<svg width="23" height="22" viewBox="0 0 23 22" fill="none" xmlns="http://www.w3.org/2000/svg">
<path d="M2.27748 9.54453C1.63758 9.54453 1.09803 9.32361 0.658828 8.88177C0.219609 8.43995 0 7.8991 0 7.25921C0 6.61933 0.220921 6.07979 0.662762 5.64059C1.10458 5.20137 1.64545 4.98176 2.28535 4.98176C2.92523 4.98176 3.46477 5.20268 3.90397 5.64453C4.34317 6.08635 4.56277 6.6272 4.56277 7.26708C4.56277 7.90697 4.34186 8.44651 3.90004 8.8857C3.45822 9.32492 2.91736 9.54453 2.27748 9.54453ZM7.79566 4.56274C7.16288 4.56274 6.62688 4.34183 6.18766 3.90001C5.74846 3.45819 5.52886 2.91733 5.52886 2.27745C5.52886 1.63755 5.74968 1.098 6.19132 0.658797C6.63296 0.219599 7.17358 0 7.81318 0C8.43822 0 8.97422 0.22091 9.42118 0.662732C9.86815 1.10455 10.0916 1.64542 10.0916 2.28532C10.0916 2.9252 9.86716 3.46474 9.41822 3.90394C8.96929 4.34314 8.42844 4.56274 7.79566 4.56274ZM15.1985 4.56274C14.5657 4.56274 14.0297 4.34183 13.5905 3.90001C13.1513 3.45819 12.9317 2.91733 12.9317 2.27745C12.9317 1.63755 13.1525 1.098 13.5941 0.658797C14.0358 0.219599 14.5764 0 15.216 0C15.841 0 16.377 0.22091 16.824 0.662732C17.271 1.10455 17.4944 1.64542 17.4944 2.28532C17.4944 2.9252 17.27 3.46474 16.8211 3.90394C16.3721 4.34314 15.8313 4.56274 15.1985 4.56274ZM20.7147 9.54453C20.0748 9.54453 19.5353 9.32361 19.0961 8.88177C18.6569 8.43995 18.4373 7.8991 18.4373 7.25921C18.4373 6.61933 18.6582 6.07979 19.1 5.64059C19.5418 5.20137 20.0827 4.98176 20.7225 4.98176C21.3625 4.98176 21.902 5.20268 22.3412 5.64453C22.7804 6.08635 23 6.6272 23 7.26708C23 7.90697 22.7791 8.44651 22.3373 8.8857C21.8954 9.32492 21.3546 9.54453 20.7147 9.54453ZM5.02371 21.7894C4.3005 21.7894 3.70921 21.5153 3.24984 20.9669C2.79044 20.4186 2.56074 19.7709 2.56074 19.0238C2.56074 18.1392 2.86455 17.3745 3.47215 16.7297C4.07973 16.0848 4.67607 15.4365 5.26115 14.7847C5.78261 14.2322 6.25052 13.6506 6.66491 13.0399C7.07927 12.4292 7.51226 11.8228 7.96389 11.2206C8.42482 10.5967 8.94193 10.0295 9.51524 9.5189C10.0886 9.00832 10.7502 8.75303 11.5 8.75303C12.2671 8.75303 12.9458 9.00832 13.5361 9.5189C14.1264 10.0295 14.6443 10.6068 15.0897 11.2509C15.5568 11.8375 15.9887 12.4389 16.3852 13.0551C16.7817 13.6712 17.2329 14.2477 17.7389 14.7847C18.324 15.4365 18.9203 16.0848 19.5279 16.7297C20.1355 17.3745 20.4393 18.1392 20.4393 19.0238C20.4393 19.7709 20.2096 20.4186 19.7502 20.9669C19.2908 21.5153 18.6995 21.7895 17.9763 21.7895C16.8869 21.7895 15.8075 21.6987 14.7382 21.5171C13.6689 21.3355 12.5895 21.2447 11.5 21.2447C10.4105 21.2447 9.33116 21.3355 8.26186 21.5171C7.19256 21.6987 6.11318 21.7894 5.02371 21.7894Z" fill="white"/>
</svg>
