<svg width="135" height="46" viewBox="0 0 135 46" fill="none" xmlns="http://www.w3.org/2000/svg">
<rect x="0.5625" y="1.0625" width="133.875" height="43.875" rx="7.3125" fill="black"/>
<rect x="0.5625" y="1.0625" width="133.875" height="43.875" rx="7.3125" stroke="#A6A6A6" stroke-width="1.125"/>
<path d="M91.7175 22.1012V24.6785H90.102V26.3688H91.7175V32.1119C91.7175 34.073 92.6046 34.8574 94.8365 34.8574C95.2287 34.8574 95.6023 34.8107 95.9291 34.7547V33.0831C95.649 33.1111 95.4715 33.1298 95.1634 33.1298C94.1642 33.1298 93.7252 32.6629 93.7252 31.5983V26.3688H95.9291V24.6785H93.7252V22.1012H91.7175Z" fill="white"/>
<path d="M101.615 34.9975C104.584 34.9975 106.405 33.0084 106.405 29.7119C106.405 26.4342 104.575 24.4357 101.615 24.4357C98.6451 24.4357 96.8148 26.4342 96.8148 29.7119C96.8148 33.0084 98.6357 34.9975 101.615 34.9975ZM101.615 33.2138C99.8684 33.2138 98.8879 31.9345 98.8879 29.7119C98.8879 27.5081 99.8684 26.2194 101.615 26.2194C103.352 26.2194 104.341 27.5081 104.341 29.7119C104.341 31.9251 103.352 33.2138 101.615 33.2138Z" fill="white"/>
<path d="M107.963 34.8013H109.971V28.7968C109.971 27.368 111.045 26.4061 112.567 26.4061C112.922 26.4061 113.52 26.4715 113.688 26.5275V24.5478C113.473 24.4918 113.09 24.4638 112.791 24.4638C111.465 24.4638 110.335 25.1922 110.046 26.1914H109.896V24.6319H107.963V34.8013Z" fill="white"/>
<path d="M118.673 26.1447C120.158 26.1447 121.129 27.1812 121.176 28.7781H116.039C116.152 27.1906 117.188 26.1447 118.673 26.1447ZM121.166 32.0559C120.793 32.8496 119.962 33.2885 118.748 33.2885C117.141 33.2885 116.105 32.1586 116.039 30.375V30.2629H123.221V29.5625C123.221 26.3688 121.512 24.4357 118.682 24.4357C115.815 24.4357 113.994 26.4995 113.994 29.7493C113.994 32.999 115.778 34.9975 118.692 34.9975C121.017 34.9975 122.642 33.8768 123.099 32.0559H121.166Z" fill="white"/>
<path d="M78.551 31.0459C78.7058 33.5431 80.7868 35.1401 83.8841 35.1401C87.1943 35.1401 89.2656 33.4657 89.2656 30.7943C89.2656 28.6939 88.0847 27.5325 85.2198 26.8646L83.6808 26.4871C81.8612 26.0612 81.1256 25.4902 81.1256 24.4933C81.1256 23.235 82.2677 22.4123 83.9809 22.4123C85.6069 22.4123 86.7297 23.2156 86.9329 24.5029H89.0429C88.9171 22.151 86.8458 20.4958 84.0099 20.4958C80.961 20.4958 78.9284 22.151 78.9284 24.6384C78.9284 26.6904 80.0802 27.9099 82.6064 28.5003L84.4067 28.9359C86.2554 29.3715 87.0684 30.0103 87.0684 31.0749C87.0684 32.3139 85.7908 33.214 84.0486 33.214C82.1806 33.214 80.8836 32.3719 80.6997 31.0459H78.551Z" fill="white"/>
<path d="M57.7527 24.4638C56.3706 24.4638 55.1753 25.1548 54.559 26.3128H54.4096V24.6319H52.4765V38.1818H54.4843V33.2605H54.643C55.1753 34.3344 56.3239 34.9694 57.7714 34.9694C60.3394 34.9694 61.9737 32.943 61.9737 29.7119C61.9737 26.4809 60.3394 24.4638 57.7527 24.4638ZM57.1831 33.1671C55.5022 33.1671 54.4469 31.8411 54.4469 29.7213C54.4469 27.5921 55.5022 26.2661 57.1924 26.2661C58.892 26.2661 59.9099 27.5641 59.9099 29.7119C59.9099 31.8691 58.892 33.1671 57.1831 33.1671Z" fill="white"/>
<path d="M68.9991 24.4638C67.617 24.4638 66.4217 25.1548 65.8054 26.3128H65.656V24.6319H63.7229V38.1818H65.7307V33.2605H65.8894C66.4217 34.3344 67.5703 34.9694 69.0178 34.9694C71.5858 34.9694 73.2201 32.943 73.2201 29.7119C73.2201 26.4809 71.5858 24.4638 68.9991 24.4638ZM68.4295 33.1671C66.7486 33.1671 65.6933 31.8411 65.6933 29.7213C65.6933 27.5921 66.7486 26.2661 68.4388 26.2661C70.1384 26.2661 71.1563 27.5641 71.1563 29.7119C71.1563 31.8691 70.1384 33.1671 68.4295 33.1671Z" fill="white"/>
<path d="M48.8743 34.8013H51.1779L46.1351 20.8346H43.8025L38.7598 34.8013H40.9859L42.2732 31.0943H47.5967L48.8743 34.8013ZM44.8575 23.3705H45.022L47.045 29.2747H42.8249L44.8575 23.3705Z" fill="white"/>
<path d="M40.1074 10.2998V17.0374H42.5401C44.5478 17.0374 45.7104 15.8001 45.7104 13.6476C45.7104 11.5278 44.5385 10.2998 42.5401 10.2998H40.1074ZM41.1533 11.2523H42.4233C43.8194 11.2523 44.6459 12.1394 44.6459 13.6616C44.6459 15.2071 43.8334 16.0849 42.4233 16.0849H41.1533V11.2523Z" fill="white"/>
<path d="M49.2712 17.1355C50.756 17.1355 51.6665 16.1409 51.6665 14.4927C51.6665 12.8538 50.7513 11.8546 49.2712 11.8546C47.7864 11.8546 46.8712 12.8538 46.8712 14.4927C46.8712 16.1409 47.7817 17.1355 49.2712 17.1355ZM49.2712 16.2437C48.398 16.2437 47.9078 15.604 47.9078 14.4927C47.9078 13.3908 48.398 12.7464 49.2712 12.7464C50.1396 12.7464 50.6346 13.3908 50.6346 14.4927C50.6346 15.5993 50.1396 16.2437 49.2712 16.2437Z" fill="white"/>
<path d="M59.4201 11.9527H58.4162L57.5104 15.8328H57.431L56.3851 11.9527H55.4233L54.3774 15.8328H54.3027L53.3922 11.9527H52.3743L53.7751 17.0374H54.807L55.8529 13.2927H55.9322L56.9828 17.0374H58.024L59.4201 11.9527Z" fill="white"/>
<path d="M60.5762 17.0374H61.5801V14.0631C61.5801 13.2694 62.0517 12.7744 62.7941 12.7744C63.5365 12.7744 63.8913 13.1807 63.8913 13.9978V17.0374H64.8952V13.7456C64.8952 12.5363 64.2695 11.8546 63.1349 11.8546C62.3692 11.8546 61.8649 12.1955 61.6174 12.7604H61.5427V11.9527H60.5762V17.0374Z" fill="white"/>
<path d="M66.4762 17.0374H67.4801V9.96826H66.4762V17.0374Z" fill="white"/>
<path d="M71.2556 17.1355C72.7404 17.1355 73.6509 16.1409 73.6509 14.4927C73.6509 12.8538 72.7357 11.8546 71.2556 11.8546C69.7708 11.8546 68.8556 12.8538 68.8556 14.4927C68.8556 16.1409 69.7661 17.1355 71.2556 17.1355ZM71.2556 16.2437C70.3824 16.2437 69.8922 15.604 69.8922 14.4927C69.8922 13.3908 70.3824 12.7464 71.2556 12.7464C72.1241 12.7464 72.619 13.3908 72.619 14.4927C72.619 15.5993 72.1241 16.2437 71.2556 16.2437Z" fill="white"/>
<path d="M76.642 16.2763C76.0957 16.2763 75.6988 16.0102 75.6988 15.5526C75.6988 15.1044 76.0163 14.8662 76.7167 14.8195L77.9587 14.7402V15.1651C77.9587 15.7954 77.3984 16.2763 76.642 16.2763ZM76.3852 17.1215C77.0528 17.1215 77.6085 16.832 77.912 16.323H77.9914V17.0374H78.9579V13.5635C78.9579 12.4896 78.2388 11.8546 76.9641 11.8546C75.8108 11.8546 74.9891 12.4149 74.8863 13.2881H75.8575C75.9696 12.9285 76.3571 12.7231 76.9174 12.7231C77.6038 12.7231 77.9587 13.0266 77.9587 13.5635V14.0024L76.5813 14.0818C75.3719 14.1565 74.6902 14.6841 74.6902 15.5993C74.6902 16.5285 75.4046 17.1215 76.3852 17.1215Z" fill="white"/>
<path d="M82.3645 17.1215C83.0649 17.1215 83.6579 16.7899 83.9614 16.2343H84.0408V17.0374H85.0026V9.96826H83.9987V12.7604H83.924C83.6485 12.2001 83.0602 11.8686 82.3645 11.8686C81.0805 11.8686 80.254 12.8865 80.254 14.4927C80.254 16.1036 81.0712 17.1215 82.3645 17.1215ZM82.6493 12.7698C83.4898 12.7698 84.0174 13.4375 84.0174 14.4974C84.0174 15.562 83.4945 16.2203 82.6493 16.2203C81.7995 16.2203 81.2906 15.5713 81.2906 14.4927C81.2906 13.4235 81.8042 12.7698 82.6493 12.7698Z" fill="white"/>
<path d="M91.5124 17.1355C92.9972 17.1355 93.9077 16.1409 93.9077 14.4927C93.9077 12.8538 92.9925 11.8546 91.5124 11.8546C90.0276 11.8546 89.1124 12.8538 89.1124 14.4927C89.1124 16.1409 90.0229 17.1355 91.5124 17.1355ZM91.5124 16.2437C90.6393 16.2437 90.149 15.604 90.149 14.4927C90.149 13.3908 90.6393 12.7464 91.5124 12.7464C92.3809 12.7464 92.8758 13.3908 92.8758 14.4927C92.8758 15.5993 92.3809 16.2437 91.5124 16.2437Z" fill="white"/>
<path d="M95.2365 17.0374H96.2404V14.0631C96.2404 13.2694 96.712 12.7744 97.4544 12.7744C98.1968 12.7744 98.5517 13.1807 98.5517 13.9978V17.0374H99.5555V13.7456C99.5555 12.5363 98.9299 11.8546 97.7953 11.8546C97.0295 11.8546 96.5252 12.1955 96.2778 12.7604H96.2031V11.9527H95.2365V17.0374Z" fill="white"/>
<path d="M104.179 10.6873V11.976H103.371V12.8211H104.179V15.6927C104.179 16.6732 104.623 17.0654 105.738 17.0654C105.935 17.0654 106.121 17.0421 106.285 17.0141V16.1783C106.145 16.1923 106.056 16.2016 105.902 16.2016C105.402 16.2016 105.183 15.9682 105.183 15.4359V12.8211H106.285V11.976H105.183V10.6873H104.179Z" fill="white"/>
<path d="M107.632 17.0374H108.636V14.0678C108.636 13.2974 109.094 12.7791 109.916 12.7791C110.625 12.7791 111.003 13.19 111.003 14.0024V17.0374H112.007V13.755C112.007 12.5457 111.34 11.8593 110.256 11.8593C109.491 11.8593 108.954 12.2001 108.706 12.7698H108.627V9.96826H107.632V17.0374Z" fill="white"/>
<path d="M115.629 12.7091C116.371 12.7091 116.857 13.2274 116.88 14.0258H114.312C114.368 13.232 114.886 12.7091 115.629 12.7091ZM116.875 15.6647C116.689 16.0616 116.273 16.281 115.666 16.281C114.863 16.281 114.345 15.716 114.312 14.8242V14.7682H117.903V14.418C117.903 12.8211 117.048 11.8546 115.633 11.8546C114.2 11.8546 113.289 12.8865 113.289 14.5114C113.289 16.1363 114.181 17.1355 115.638 17.1355C116.801 17.1355 117.613 16.5752 117.842 15.6647H116.875Z" fill="white"/>
<path d="M27.8657 23.3385C27.8901 21.4473 28.9057 19.6579 30.5169 18.6674C29.5005 17.2158 27.798 16.2954 26.0268 16.24C24.1377 16.0417 22.3062 17.3704 21.3435 17.3704C20.3622 17.3704 18.88 16.2597 17.284 16.2925C15.2036 16.3597 13.2641 17.5425 12.2519 19.3614C10.0762 23.1283 11.6991 28.6645 13.7833 31.7095C14.8261 33.2005 16.0447 34.866 17.6394 34.8069C19.1998 34.7422 19.7826 33.8119 21.6662 33.8119C23.5323 33.8119 24.0791 34.8069 25.7061 34.7694C27.3805 34.7422 28.4355 33.2717 29.4417 31.7666C30.1909 30.7042 30.7674 29.53 31.1499 28.2875C29.1821 27.4553 27.868 25.475 27.8657 23.3385Z" fill="white"/>
<path d="M24.7926 14.2375C25.7056 13.1415 26.1554 11.7328 26.0464 10.3105C24.6516 10.457 23.3632 11.1237 22.4379 12.1776C21.5331 13.2074 21.0622 14.5913 21.1512 15.9592C22.5466 15.9735 23.9183 15.325 24.7926 14.2375Z" fill="white"/>
</svg>
