<svg width="20" height="15" viewBox="0 0 20 15" fill="none" xmlns="http://www.w3.org/2000/svg">
<path d="M3.62259 8.81499H18.9471C19.2164 8.81499 19.4383 8.72766 19.613 8.55299C19.7877 8.37831 19.875 8.16678 19.875 7.9184C19.875 7.67 19.7877 7.45325 19.613 7.26815C19.4383 7.08307 19.2164 6.99053 18.9471 6.99053H3.62259L8.16831 2.44484C8.3494 2.26376 8.44394 2.047 8.45194 1.79459C8.45996 1.54219 8.36942 1.32144 8.18031 1.13234C7.99923 0.951255 7.78249 0.865922 7.53009 0.876338C7.2777 0.886755 7.06096 0.986516 6.87988 1.17562L0.882282 7.12993C0.786137 7.25493 0.704803 7.37793 0.638283 7.49893C0.571783 7.61991 0.538532 7.75973 0.538532 7.9184C0.538532 8.08507 0.571783 8.22889 0.638283 8.34987C0.704803 8.47087 0.786137 8.57944 0.882282 8.67559L6.84863 14.6539C7.02971 14.835 7.24645 14.9328 7.49884 14.9472C7.75124 14.9616 7.97199 14.8639 8.16109 14.6539C8.3502 14.4857 8.43954 14.2741 8.42913 14.0193C8.41871 13.7645 8.31895 13.5426 8.12984 13.3535L3.62259 8.81499Z" fill="black"/>
</svg>
