<svg width="16" height="16" viewBox="0 0 16 16" fill="none" xmlns="http://www.w3.org/2000/svg">
<path d="M8.00003 8.99987L1.34137 15.6585C1.20195 15.798 1.03729 15.8697 0.847396 15.8737C0.657479 15.8777 0.488812 15.806 0.341396 15.6585C0.193958 15.5111 0.120239 15.3445 0.120239 15.1586C0.120239 14.9727 0.193958 14.806 0.341396 14.6586L7.00006 7.9999L0.341396 1.34124C0.201958 1.20183 0.130239 1.03717 0.126239 0.847275C0.122239 0.657358 0.193958 0.488691 0.341396 0.341274C0.488812 0.193837 0.655469 0.120117 0.841365 0.120117C1.02726 0.120117 1.19393 0.193837 1.34137 0.341274L8.00003 6.99994L14.6587 0.341274C14.7981 0.201837 14.9628 0.130118 15.1527 0.126118C15.3426 0.122118 15.5112 0.193837 15.6587 0.341274C15.8061 0.488691 15.8798 0.655346 15.8798 0.841242C15.8798 1.02714 15.8061 1.19381 15.6587 1.34124L9 7.9999L15.6587 14.6586C15.7981 14.798 15.8698 14.9626 15.8738 15.1525C15.8778 15.3425 15.8061 15.5111 15.6587 15.6585C15.5112 15.806 15.3446 15.8797 15.1587 15.8797C14.9728 15.8797 14.8061 15.806 14.6587 15.6585L8.00003 8.99987Z" fill="black"/>
</svg>
