<svg width="19" height="18" viewBox="0 0 19 18" fill="none" xmlns="http://www.w3.org/2000/svg">
<path d="M16.5322 7.36875C16.5322 7.36875 15.6884 8.15625 14.254 9.08437C13.8603 6.80625 12.7634 3.99375 10.6259 0.5625C10.6259 0.5625 9.92279 4.24687 7.58842 7.70625C6.57592 6.13125 6.12592 4.89375 6.12592 4.89375C-1.18658 12.2344 4.88842 17.4375 8.71342 17.4375C13.6072 17.4375 17.9103 15.075 16.5322 7.36875Z" fill="#FF9D33"/>
<path d="M13.6348 13.8938C14.0566 12.9657 14.366 11.7563 14.4223 10.2376C14.4223 10.2376 13.8316 10.7438 12.8191 11.3907C12.5379 9.87197 11.7785 8.01572 10.2879 5.70947C10.2879 5.70947 9.80977 8.15635 8.17852 10.4907C7.47539 9.4501 7.16602 8.60635 7.16602 8.60635C5.95664 10.5188 5.47852 12.0376 5.45039 13.247C4.77539 12.9938 4.35352 12.797 4.35352 12.797C5.50664 16.2282 7.89727 16.9876 8.96602 16.9876C10.8785 16.9876 12.8191 16.4251 14.7316 13.697C14.7316 13.6688 14.3098 13.7813 13.6348 13.8938Z" fill="#FFCE31"/>
<path d="M6.65721 12.3469C6.65721 12.3469 7.44471 13.4156 8.03533 13.1625C8.03533 13.1625 9.16033 11.3906 10.7916 10.4062C10.7916 10.4062 10.4541 13.1062 10.8478 13.5844C11.3541 14.2312 12.7322 12.8812 12.7322 12.8812C12.7322 14.4844 10.9885 16.4812 9.41346 16.4812C7.89471 16.4812 5.70096 14.7375 6.65721 12.3469Z" fill="#FFDF85"/>
<path d="M14.5069 5.09043C15.0976 4.24668 15.4913 3.34668 15.4913 3.34668C16.4757 4.97793 15.8851 5.9623 15.4632 6.27168C14.8726 6.72168 13.8319 6.07481 14.5069 5.09043Z" fill="#FF9D33"/>
<path d="M3.7623 4.80928C3.17167 3.8249 3.11542 2.5874 3.11542 2.5874C1.70917 4.69678 2.24355 5.87803 2.72167 6.21553C3.34042 6.69365 4.40917 5.9624 3.7623 4.80928Z" fill="#FF9D33"/>
<path d="M7.025 2.61563C7.10938 1.94063 6.82812 1.26562 6.82812 1.26562C8.15 2.1375 8.15 2.86875 7.98125 3.17813C7.72813 3.54375 6.94063 3.375 7.025 2.61563Z" fill="#FF9D33"/>
</svg>
