<svg width="24" height="24" viewBox="0 0 24 24" fill="#FF0080" xmlns="http://www.w3.org/2000/svg">
<path d="M8.16118 11.6212C8.87256 11.6212 9.64315 11.6784 10.4729 11.7929C11.3027 11.9075 12.0992 12.1192 12.8623 12.4282C13.6255 12.7373 14.2949 13.1526 14.8706 13.6741C15.4463 14.1957 15.8328 14.8558 16.0302 15.6543C16.1026 15.9193 16.0522 16.16 15.8788 16.3765C15.7054 16.593 15.4815 16.7012 15.2071 16.7012H1.08472C0.812199 16.7012 0.592687 16.5912 0.426186 16.3713C0.259704 16.1514 0.204808 15.9124 0.261499 15.6543C0.474617 14.8558 0.869021 14.1957 1.44471 13.6741C2.0204 13.1526 2.68589 12.7373 3.44117 12.4282C4.19646 12.1192 4.98878 11.9075 5.81815 11.7929C6.6475 11.6784 7.42851 11.6212 8.16118 11.6212ZM0.498833 20.3153C0.360778 20.3153 0.243125 20.266 0.145875 20.1675C0.048625 20.069 0 19.9498 0 19.8099C0 19.67 0.048625 19.5529 0.145875 19.4588C0.243125 19.3647 0.360778 19.3176 0.498833 19.3176H15.7929C15.931 19.3176 16.0486 19.3669 16.1459 19.4654C16.2431 19.564 16.2918 19.6832 16.2918 19.8231C16.2918 19.963 16.2431 20.08 16.1459 20.1741C16.0486 20.2682 15.931 20.3153 15.7929 20.3153H0.498833ZM0.498833 24C0.360778 24 0.243125 23.9507 0.145875 23.8522C0.048625 23.7537 0 23.6345 0 23.4946C0 23.3547 0.048625 23.2376 0.145875 23.1435C0.243125 23.0494 0.360778 23.0024 0.498833 23.0024H15.7929C15.931 23.0024 16.0486 23.0516 16.1459 23.1501C16.2431 23.2487 16.2918 23.3679 16.2918 23.5078C16.2918 23.6477 16.2431 23.7647 16.1459 23.8588C16.0486 23.9529 15.931 24 15.7929 24H0.498833ZM18.4565 24V16.5355C18.4565 14.7105 17.7729 13.1838 16.4059 11.9555C15.0388 10.7271 13.4282 9.94589 11.5741 9.61176L11.1059 6.11529C11.0494 5.86746 11.1108 5.64903 11.2899 5.46C11.4691 5.27098 11.6901 5.17647 11.9529 5.17647H16.6659V0.4706C16.6659 0.337256 16.7116 0.225487 16.8031 0.135293C16.8945 0.0450983 17.0079 0 17.1431 0C17.2783 0 17.3894 0.0450983 17.4765 0.135293C17.5635 0.225487 17.6071 0.337256 17.6071 0.4706V5.17647H22.4494C22.7181 5.17647 22.9355 5.27 23.1015 5.45706C23.2676 5.64412 23.3302 5.86353 23.2894 6.11529L21.4753 23.2447C21.4652 23.4624 21.3737 23.6427 21.2007 23.7856C21.0277 23.9286 20.8369 24 20.6282 24H18.4565Z" fill=""/>
</svg>
