<svg width="20" height="20" viewBox="0 0 20 20" fill="none" xmlns="http://www.w3.org/2000/svg">
<g clip-path="url(#clip0_471_40375)">
<path d="M19.8052 10.2305C19.8052 9.55068 19.7501 8.86724 19.6325 8.19849H10.2002V12.0493H15.6016C15.3775 13.2913 14.6573 14.3899 13.6027 15.0881V17.5867H16.8252C18.7176 15.845 19.8052 13.2729 19.8052 10.2305Z" fill="#4285F4"/>
<path d="M10.2 20.0008C12.8971 20.0008 15.1716 19.1152 16.8287 17.5867L13.6063 15.088C12.7097 15.698 11.5522 16.0434 10.2037 16.0434C7.59486 16.0434 5.38285 14.2833 4.58917 11.917H1.26379V14.4928C2.96139 17.8696 6.41904 20.0008 10.2 20.0008V20.0008Z" fill="#34A853"/>
<path d="M4.58564 11.9168C4.16676 10.6748 4.16676 9.32995 4.58564 8.08799V5.51221H1.26395C-0.154389 8.33785 -0.154389 11.6669 1.26395 14.4925L4.58564 11.9168V11.9168Z" fill="#FBBC04"/>
<path d="M10.2 3.95805C11.6257 3.936 13.0036 4.47247 14.0362 5.45722L16.8912 2.60218C15.0834 0.904587 12.684 -0.0287217 10.2 0.000673888C6.41904 0.000673888 2.96139 2.13185 1.26379 5.51234L4.58549 8.08813C5.3755 5.71811 7.59119 3.95805 10.2 3.95805V3.95805Z" fill="#EA4335"/>
</g>
<defs>
<clipPath id="clip0_471_40375">
<rect width="20" height="20" fill="white"/>
</clipPath>
</defs>
</svg>
