<svg width="22" height="24" viewBox="0 0 22 24" fill="none" xmlns="http://www.w3.org/2000/svg">
<path d="M0 13.0683C0 10.7562 0.656327 8.46465 1.96898 6.19352C3.28166 3.92238 5.09109 1.93926 7.39726 0.244147C7.76899 -0.0341505 8.15676 -0.0745296 8.56057 0.123011C8.96441 0.320552 9.16633 0.63632 9.16633 1.07031V2.02197C9.16633 3.01841 9.62415 3.91947 10.5398 4.72517C11.4555 5.53087 12.5088 5.93371 13.6998 5.93371C14.1747 5.93371 14.6374 5.85344 15.0879 5.69289C15.5385 5.53231 15.9642 5.30119 16.3651 4.99954C16.5675 4.84969 16.7757 4.76456 16.9898 4.74414C17.2039 4.7237 17.3955 4.78938 17.5649 4.94118C18.7286 5.94343 19.6341 7.15295 20.2812 8.56974C20.9283 9.98652 21.2518 11.486 21.2518 13.0683C21.2518 15.4717 20.559 17.5925 19.1734 19.4307C17.7877 21.2688 15.9953 22.5352 13.7962 23.23C14.417 22.7474 14.9001 22.1548 15.2456 21.4522C15.591 20.7497 15.7637 20.0043 15.7637 19.2161C15.7637 18.5466 15.6353 17.9097 15.3784 17.3055C15.1215 16.7012 14.7585 16.1548 14.2895 15.6663L10.6259 12.0874L7.00024 15.6663C6.50593 16.1548 6.13033 16.7012 5.87343 17.3055C5.61654 17.9097 5.48809 18.5466 5.48809 19.2161C5.48809 20.0043 5.66081 20.7497 6.00626 21.4522C6.3517 22.1548 6.83483 22.7474 7.45563 23.23C5.27595 22.5352 3.48844 21.2688 2.09308 19.4307C0.697692 17.5925 0 15.4717 0 13.0683ZM10.6259 13.728L13.4459 16.5012C13.804 16.8593 14.0852 17.2709 14.2895 17.7361C14.4939 18.2012 14.5961 18.6945 14.5961 19.2161C14.5961 20.2845 14.2127 21.2007 13.4459 21.9645C12.6791 22.7284 11.7391 23.1103 10.6259 23.1103C9.51272 23.1103 8.57273 22.7284 7.80594 21.9645C7.03916 21.2007 6.65577 20.2845 6.65577 19.2161C6.65577 18.6945 6.75161 18.2061 6.94331 17.7507C7.13501 17.2953 7.42255 16.8788 7.80594 16.5012L10.6259 13.728Z" fill="white"/>
</svg>
