<svg width="20" height="20" viewBox="0 0 20 20" fill="none" xmlns="http://www.w3.org/2000/svg">
<path d="M10 5.3667V8.1417" stroke="#444750" stroke-width="1.25" stroke-miterlimit="10" stroke-linecap="round"/>
<path d="M10.0171 1.6665C6.9504 1.6665 4.46707 4.14984 4.46707 7.2165V8.9665C4.46707 9.53317 4.23374 10.3832 3.94207 10.8665L2.88374 12.6332C2.23374 13.7248 2.68374 14.9415 3.88374 15.3415C7.86707 16.6665 12.1754 16.6665 16.1587 15.3415C17.2837 14.9665 17.7671 13.6498 17.1587 12.6332L16.1004 10.8665C15.8087 10.3832 15.5754 9.52484 15.5754 8.9665V7.2165C15.5671 4.1665 13.0671 1.6665 10.0171 1.6665Z" stroke="#444750" stroke-width="1.25" stroke-miterlimit="10" stroke-linecap="round"/>
<path d="M12.7746 15.6831C12.7746 17.2081 11.5246 18.4581 9.99961 18.4581C9.24128 18.4581 8.54128 18.1414 8.04128 17.6414C7.54128 17.1414 7.22461 16.4414 7.22461 15.6831" stroke="#444750" stroke-width="1.25" stroke-miterlimit="10"/>
<rect x="11.6673" y="0.833333" width="7.5" height="7.5" rx="3.75" fill="#F57600"/>
<rect x="11.6673" y="0.833333" width="7.5" height="7.5" rx="3.75" stroke="white" stroke-width="1.66667"/>
</svg>
