<svg width="20" height="20" viewBox="0 0 20 20" fill="none" xmlns="http://www.w3.org/2000/svg">
<g clip-path="url(#clip0_471_40407)">
<path d="M18.25 9.86111C18.1574 7.61435 17.3306 5.7111 15.7697 4.15136C14.2087 2.5916 12.304 1.76543 10.0556 1.67283V0C11.4074 0.037037 12.6713 0.319444 13.8472 0.847222C15.0231 1.375 16.0556 2.08333 16.9444 2.97222C17.8333 3.86111 18.5417 4.89352 19.0694 6.06945C19.5972 7.24537 19.8796 8.50926 19.9167 9.86111H18.25ZM13.5278 9.86111C13.4352 8.93519 13.0648 8.15278 12.4167 7.51389C11.7685 6.875 10.9815 6.50926 10.0556 6.41667V4.75C11.4444 4.84259 12.625 5.37037 13.5972 6.33333C14.5694 7.2963 15.1019 8.47222 15.1944 9.86111H13.5278ZM18.75 20.0556C16.6019 20.0556 14.412 19.537 12.1806 18.5C9.94907 17.463 7.87963 15.9907 5.97222 14.0833C4.06482 12.1759 2.59259 10.1065 1.55556 7.875C0.518519 5.64352 0 3.4537 0 1.30556C0 0.953704 0.12037 0.657407 0.361111 0.416667C0.601852 0.175926 0.898148 0.0555556 1.25 0.0555556H5.13889C5.39815 0.0555556 5.62037 0.148148 5.80556 0.333333C5.99074 0.518519 6.12037 0.75 6.19444 1.02778L6.94444 4.52778C6.98148 4.78704 6.97685 5.02315 6.93056 5.23611C6.88426 5.44907 6.78704 5.62963 6.63889 5.77778L3.86111 8.58333C4.34259 9.39815 4.85185 10.1574 5.38889 10.8611C5.92593 11.5648 6.51852 12.2315 7.16667 12.8611C7.85185 13.5648 8.57407 14.2083 9.33333 14.7917C10.0926 15.375 10.8889 15.8889 11.7222 16.3333L14.3611 13.6111C14.5463 13.4074 14.7593 13.2685 15 13.1944C15.2407 13.1204 15.4815 13.1019 15.7222 13.1389L19.0278 13.8611C19.3056 13.9352 19.537 14.0833 19.7222 14.3056C19.9074 14.5278 20 14.7778 20 15.0556V18.8056C20 19.1574 19.8796 19.4537 19.6389 19.6944C19.3981 19.9352 19.1019 20.0556 18.75 20.0556Z" fill="#1877F2"/>
</g>
<defs>
<clipPath id="clip0_471_40407">
<rect width="20" height="20" fill="white"/>
</clipPath>
</defs>
</svg>
