<svg width="9" height="9" viewBox="0 0 9 9" fill="none" xmlns="http://www.w3.org/2000/svg">
<rect x="0.498047" y="0.723389" width="7.81452" height="7.81452" rx="3.90726" fill="black" fill-opacity="0.58"/>
<path d="M3.62305 5.83462V3.67761C3.62305 3.61684 3.64207 3.56985 3.68011 3.53664C3.71815 3.50342 3.76312 3.48682 3.81501 3.48682C3.82907 3.48682 3.8455 3.48823 3.86432 3.49106C3.88313 3.49389 3.90128 3.49989 3.91877 3.50908L5.61576 4.59977C5.64438 4.61921 5.66673 4.64182 5.68281 4.66761C5.69888 4.6934 5.70692 4.72291 5.70692 4.75611C5.70692 4.78933 5.69888 4.81883 5.68281 4.84463C5.66673 4.87042 5.64438 4.89303 5.61576 4.91246L3.91877 6.00316C3.90116 6.01234 3.88289 6.01835 3.86394 6.02117C3.845 6.024 3.82849 6.02542 3.81441 6.02542C3.76244 6.02542 3.71756 6.00881 3.67976 5.9756C3.64195 5.94238 3.62305 5.89539 3.62305 5.83462Z" fill="white"/>
</svg>
