<svg width="22" height="22" viewBox="0 0 22 22" fill="none" xmlns="http://www.w3.org/2000/svg">
<path d="M8.55265 15.0487L14.8168 11.0518L8.55265 7.05479V15.0487ZM10.8237 21.4439C9.39109 21.4439 8.04595 21.1712 6.78827 20.6258C5.53058 20.0804 4.42901 19.3354 3.48356 18.3909C2.53813 17.4463 1.79247 16.3458 1.24657 15.0893C0.700681 13.8328 0.427734 12.4882 0.427734 11.0556C0.427734 9.61858 0.700421 8.26751 1.24579 7.00242C1.79119 5.73734 2.53616 4.63689 3.48073 3.70106C4.42529 2.76525 5.52583 2.0244 6.78233 1.47851C8.03883 0.932615 9.38337 0.659668 10.816 0.659668C12.253 0.659668 13.6041 0.932354 14.8692 1.47773C16.1342 2.02312 17.2347 2.76329 18.1705 3.69823C19.1063 4.63317 19.8472 5.73259 20.3931 6.99648C20.939 8.26039 21.2119 9.61086 21.2119 11.0479C21.2119 12.4805 20.9392 13.8256 20.3939 15.0833C19.8485 16.341 19.1083 17.4426 18.1734 18.388C17.2384 19.3335 16.139 20.0791 14.8751 20.625C13.6112 21.1709 12.2607 21.4439 10.8237 21.4439ZM10.8198 20.5556C13.4637 20.5556 15.7087 19.6315 17.5547 17.7833C19.4007 15.9351 20.3237 13.6912 20.3237 11.0518C20.3237 8.40784 19.4007 6.16288 17.5547 4.31688C15.7087 2.47088 13.4637 1.54787 10.8198 1.54787C8.18035 1.54787 5.93651 2.47088 4.08829 4.31688C2.24006 6.16288 1.31594 8.40784 1.31594 11.0518C1.31594 13.6912 2.24006 15.9351 4.08829 17.7833C5.93651 19.6315 8.18035 20.5556 10.8198 20.5556Z" fill="white"/>
<path d="M8.55265 15.0487L14.8168 11.0518L8.55265 7.05479V15.0487ZM10.8237 21.4439C9.39109 21.4439 8.04595 21.1712 6.78827 20.6258C5.53058 20.0804 4.42901 19.3354 3.48356 18.3909C2.53813 17.4463 1.79247 16.3458 1.24657 15.0893C0.700681 13.8328 0.427734 12.4882 0.427734 11.0556C0.427734 9.61858 0.700421 8.26751 1.24579 7.00242C1.79119 5.73734 2.53616 4.63689 3.48073 3.70106C4.42529 2.76525 5.52583 2.0244 6.78233 1.47851C8.03883 0.932615 9.38337 0.659668 10.816 0.659668C12.253 0.659668 13.6041 0.932354 14.8692 1.47773C16.1342 2.02312 17.2347 2.76329 18.1705 3.69823C19.1063 4.63317 19.8472 5.73259 20.3931 6.99648C20.939 8.26039 21.2119 9.61086 21.2119 11.0479C21.2119 12.4805 20.9392 13.8256 20.3939 15.0833C19.8485 16.341 19.1083 17.4426 18.1734 18.388C17.2384 19.3335 16.139 20.0791 14.8751 20.625C13.6112 21.1709 12.2607 21.4439 10.8237 21.4439ZM10.8198 20.5556C13.4637 20.5556 15.7087 19.6315 17.5547 17.7833C19.4007 15.9351 20.3237 13.6912 20.3237 11.0518C20.3237 8.40784 19.4007 6.16288 17.5547 4.31688C15.7087 2.47088 13.4637 1.54787 10.8198 1.54787C8.18035 1.54787 5.93651 2.47088 4.08829 4.31688C2.24006 6.16288 1.31594 8.40784 1.31594 11.0518C1.31594 13.6912 2.24006 15.9351 4.08829 17.7833C5.93651 19.6315 8.18035 20.5556 10.8198 20.5556Z" fill="url(#paint0_linear_762_21142)" fill-opacity="0.1"/>
<defs>
<linearGradient id="paint0_linear_762_21142" x1="0.427734" y1="21.4439" x2="21.2119" y2="21.4439" gradientUnits="userSpaceOnUse">
<stop stop-color="#495AFF"/>
<stop offset="1" stop-color="#0ACFFE"/>
</linearGradient>
</defs>
</svg>
