<svg width="38" height="38" viewBox="0 0 38 38" fill="none" xmlns="http://www.w3.org/2000/svg">
<path d="M19 20.5999L25.6231 27.223C25.8461 27.4461 26.1096 27.5608 26.4134 27.5673C26.7172 27.5737 26.9871 27.4589 27.223 27.223C27.4589 26.9871 27.5769 26.7204 27.5769 26.423C27.5769 26.1256 27.4589 25.859 27.223 25.6231L20.5999 19L27.223 12.3769C27.4461 12.1538 27.5608 11.8903 27.5673 11.5865C27.5737 11.2827 27.4589 11.0128 27.223 10.7769C26.9871 10.541 26.7204 10.4231 26.423 10.4231C26.1256 10.4231 25.859 10.541 25.6231 10.7769L19 17.4L12.3769 10.7769C12.1538 10.5538 11.8903 10.4391 11.5865 10.4327C11.2827 10.4263 11.0128 10.541 10.7769 10.7769C10.541 11.0128 10.4231 11.2795 10.4231 11.5769C10.4231 11.8743 10.541 12.141 10.7769 12.3769L17.4 19L10.7769 25.6231C10.5538 25.8461 10.4391 26.1096 10.4327 26.4134C10.4263 26.7172 10.541 26.9871 10.7769 27.223C11.0128 27.4589 11.2795 27.5769 11.5769 27.5769C11.8743 27.5769 12.141 27.4589 12.3769 27.223L19 20.5999ZM19.0033 37.9999C16.3959 37.9999 13.9393 37.5012 11.6335 36.5039C9.32758 35.5066 7.3111 34.1447 5.584 32.4184C3.85687 30.692 2.49442 28.6764 1.49665 26.3716C0.498884 24.0667 0 21.6106 0 19.0033C0 16.3754 0.498667 13.9054 1.496 11.5931C2.49333 9.2808 3.85517 7.26944 5.5815 5.559C7.30787 3.84854 9.32347 2.49442 11.6283 1.49665C13.9332 0.498886 16.3893 0 18.9966 0C21.6245 0 24.0945 0.498669 26.4068 1.496C28.7191 2.49334 30.7305 3.84683 32.4409 5.5565C34.1514 7.2662 35.5055 9.27669 36.5033 11.588C37.501 13.8992 37.9999 16.3687 37.9999 18.9966C37.9999 21.604 37.5012 24.0606 36.5039 26.3665C35.5066 28.6723 34.1531 30.6888 32.4434 32.4159C30.7337 34.143 28.7232 35.5055 26.412 36.5033C24.1007 37.501 21.6312 37.9999 19.0033 37.9999ZM19 35.7307C23.6564 35.7307 27.6089 34.1012 30.8577 30.8423C34.1064 27.5833 35.7307 23.6359 35.7307 19C35.7307 14.3436 34.1064 10.391 30.8577 7.14225C27.6089 3.89355 23.6564 2.2692 19 2.2692C14.3641 2.2692 10.4166 3.89355 7.15765 7.14225C3.89868 10.391 2.2692 14.3436 2.2692 19C2.2692 23.6359 3.89868 27.5833 7.15765 30.8423C10.4166 34.1012 14.3641 35.7307 19 35.7307Z" fill="white"/>
</svg>
