<svg width="19" height="24" viewBox="0 0 19 24" fill="none" xmlns="http://www.w3.org/2000/svg">
<path d="M9.05766 7.72695C7.98042 7.72695 7.0672 7.35234 6.31799 6.60313C5.56878 5.85392 5.19417 4.94071 5.19417 3.86349C5.19417 2.78625 5.56878 1.87303 6.31799 1.12382C7.0672 0.374607 7.98042 0 9.05766 0C10.1349 0 11.0481 0.374607 11.7973 1.12382C12.5465 1.87303 12.9212 2.78625 12.9212 3.86349C12.9212 4.94071 12.5465 5.85392 11.7973 6.60313C11.0481 7.35234 10.1349 7.72695 9.05766 7.72695ZM8.25813 23.6617L1.11822 16.5498C0.775293 16.2069 0.503197 15.7843 0.301933 15.282C0.100644 14.7797 0 14.2164 0 13.5921C0 12.5149 0.376012 11.6002 1.12803 10.8482C1.88003 10.0962 2.80396 9.72022 3.89983 9.72022C4.38067 9.72022 4.8424 9.82365 5.28503 10.0305C5.72768 10.2374 6.1363 10.5188 6.51089 10.8748L9.05766 13.4495L11.6324 10.8748C11.9511 10.5375 12.3411 10.2607 12.8023 10.0445C13.2636 9.82831 13.744 9.72022 14.2434 9.72022C15.3207 9.72022 16.2353 10.0962 16.9873 10.8482C17.7393 11.6002 18.1153 12.5149 18.1153 13.5921C18.1153 14.2164 18.0147 14.7797 17.8134 15.282C17.6121 15.7843 17.34 16.2069 16.9971 16.5498L9.88514 23.6617C9.76027 23.7866 9.62981 23.8742 9.49377 23.9245C9.35773 23.9748 9.21236 24 9.05766 24C8.90296 24 8.75759 23.9748 8.62155 23.9245C8.48551 23.8742 8.36437 23.7866 8.25813 23.6617Z" fill="black"/>
<path d="M9.05766 7.72695C7.98042 7.72695 7.0672 7.35234 6.31799 6.60313C5.56878 5.85392 5.19417 4.94071 5.19417 3.86349C5.19417 2.78625 5.56878 1.87303 6.31799 1.12382C7.0672 0.374607 7.98042 0 9.05766 0C10.1349 0 11.0481 0.374607 11.7973 1.12382C12.5465 1.87303 12.9212 2.78625 12.9212 3.86349C12.9212 4.94071 12.5465 5.85392 11.7973 6.60313C11.0481 7.35234 10.1349 7.72695 9.05766 7.72695ZM8.25813 23.6617L1.11822 16.5498C0.775293 16.2069 0.503197 15.7843 0.301933 15.282C0.100644 14.7797 0 14.2164 0 13.5921C0 12.5149 0.376012 11.6002 1.12803 10.8482C1.88003 10.0962 2.80396 9.72022 3.89983 9.72022C4.38067 9.72022 4.8424 9.82365 5.28503 10.0305C5.72768 10.2374 6.1363 10.5188 6.51089 10.8748L9.05766 13.4495L11.6324 10.8748C11.9511 10.5375 12.3411 10.2607 12.8023 10.0445C13.2636 9.82831 13.744 9.72022 14.2434 9.72022C15.3207 9.72022 16.2353 10.0962 16.9873 10.8482C17.7393 11.6002 18.1153 12.5149 18.1153 13.5921C18.1153 14.2164 18.0147 14.7797 17.8134 15.282C17.6121 15.7843 17.34 16.2069 16.9971 16.5498L9.88514 23.6617C9.76027 23.7866 9.62981 23.8742 9.49377 23.9245C9.35773 23.9748 9.21236 24 9.05766 24C8.90296 24 8.75759 23.9748 8.62155 23.9245C8.48551 23.8742 8.36437 23.7866 8.25813 23.6617Z" fill="white"/>
</svg>
