<svg width="192" height="228" viewBox="0 0 192 228" fill="none" xmlns="http://www.w3.org/2000/svg">
<path d="M37.0989 182.959C37.7094 184.18 38.3975 185.434 39.1745 186.71C40.877 185.575 42.8574 184.927 44.9017 184.835L44.824 184.735L45.4011 184.801H45.5121C46.3055 184.81 47.0966 184.888 47.8763 185.034C48.2869 185.034 48.7087 185.09 49.1305 185.09C51.2822 185.092 53.4259 184.827 55.5126 184.302C56.1563 184.135 56.8001 183.947 57.4216 183.736C58.5836 183.339 59.5912 182.586 60.3014 181.584C61.0117 180.582 61.3885 179.382 61.3787 178.154C61.3689 176.926 60.9729 175.732 60.2467 174.742C59.5205 173.752 58.5011 173.015 57.3329 172.637H57.1997C56.0898 172.326 55.113 172.015 54.0918 171.682C53.9867 171.642 53.8793 171.609 53.77 171.582C53.3816 171.449 52.9597 171.293 52.5601 171.116C53.6701 170.184 54.78 169.273 55.668 168.363C53.104 167.62 51.1173 169.285 49.0084 170.728C45.8882 172.711 43.0633 175.125 40.6173 177.898C39.2977 179.478 38.1203 181.172 37.0989 182.959Z" fill="black"/>
<path d="M77.162 208.503C78.2482 210.803 79.4867 213.028 80.8691 215.162C79.5927 212.976 78.3496 210.745 77.162 208.503Z" fill="black"/>
<path d="M56.4742 187.557C58.3722 188.167 60.2258 188.8 62.0238 189.421C62.5344 189.599 63.0227 189.81 63.5 190.021L63.0006 189.777C62.3432 189.501 61.7709 189.055 61.3419 188.486C60.9129 187.917 60.6427 187.244 60.5588 186.536C60.2234 185.077 60.0227 183.591 59.9594 182.096C59.2873 182.86 58.4261 183.434 57.4621 183.761C56.8405 183.972 56.1968 184.16 55.553 184.327C56.1968 185.947 56.9737 187.013 56.4742 187.557Z" fill="black"/>
<path d="M47.8838 185.041C48.4462 185.136 49.0023 185.266 49.5487 185.43L50.2812 185.652L49.1713 185.097C48.7163 185.097 48.3166 185.063 47.8838 185.041Z" fill="black"/>
<path d="M44.7833 184.744L44.8636 184.847C45.0354 184.847 45.2071 184.847 45.3789 184.847L44.7833 184.744Z" fill="black"/>
<path d="M68.7468 149.067C69.0917 148.338 69.6417 147.724 70.3297 147.302C71.0177 146.881 71.8137 146.668 72.6204 146.692C72.9279 146.664 73.2358 146.739 73.4971 146.903C74.1187 147.336 73.9634 148.312 74.2742 148.956C74.5861 149.677 74.8457 150.418 75.0511 151.176C69.6679 154.029 69.9454 159.156 69.6679 164.495C68.4303 161.507 67.7567 158.316 67.6811 155.083V154.817C67.7228 152.855 68.0827 150.913 68.7468 149.067ZM70.1896 145.282L70.345 145.06C70.5318 144.753 70.7357 144.457 70.9555 144.172C71.0776 144.039 71.2107 143.928 71.3328 143.806C71.5667 143.548 71.8151 143.304 72.0765 143.074C72.2763 142.918 72.4983 142.796 72.7091 142.652C72.926 142.488 73.1521 142.335 73.3862 142.197C73.8584 141.936 74.3524 141.717 74.8625 141.542C75.8059 141.198 76.7825 141.076 77.393 141.897C77.4746 142.005 77.5453 142.12 77.604 142.241C77.6023 142.274 77.6023 142.308 77.604 142.341C76.7604 142.929 75.7171 143.296 75.2954 144.028C74.9818 144.626 74.4714 145.097 73.8505 145.362C73.2296 145.627 72.5363 145.669 71.8878 145.482C71.57 145.46 71.2511 145.46 70.9333 145.482H69.9899C70.0504 145.41 70.1172 145.343 70.1896 145.282ZM70.0342 145.504H70.1008H70.0232H70.0342ZM73.5083 156.149C73.586 155.116 74.9401 154.095 75.8613 153.23C76.1063 153.086 76.3818 153.002 76.6653 152.985C76.9487 152.967 77.2323 153.017 77.493 153.13C79.5242 154.106 81.4998 155.194 83.0426 155.982C82.4877 161.343 81.9327 166.382 81.4665 171.31C81.4665 171.255 81.3777 171.166 81.3222 171.055L81.0003 170.511V170.422C80.523 169.157 80.0569 167.88 79.5797 166.615C79.5797 166.615 79.5797 166.615 79.5797 166.56C79.1255 167.063 78.8284 167.688 78.725 168.358C78.614 168.968 78.6029 169.601 78.5474 170.233C78.259 170.183 77.9737 170.116 77.6927 170.034C76.5958 169.723 75.5779 169.182 74.7071 168.447C74.1951 168.047 73.854 167.468 73.7525 166.826C73.6859 165.916 73.6304 165.006 73.5971 164.096C73.4164 161.451 73.3867 158.797 73.5083 156.149ZM84.8518 164.085C85.0086 162.452 85.3818 160.847 85.9618 159.312C86.1769 158.71 86.6097 158.211 87.1748 157.913C87.7399 157.615 88.3962 157.54 89.0141 157.703C91.3671 158.058 93.7313 158.413 96.0954 158.657C96.3882 158.653 96.6785 158.711 96.9479 158.825C97.2173 158.94 97.46 159.109 97.6603 159.323C97.998 159.804 98.1481 160.393 98.0821 160.977C97.9933 165.206 98.0155 169.445 97.9711 173.674C97.8493 174.167 97.6782 174.647 97.4606 175.106L94.7745 170.123H94.2973V174.751C93.0021 174.965 91.6729 174.714 90.5458 174.041C90.2876 173.864 90.0527 173.655 89.8465 173.419C89.8465 173.419 89.8464 173.419 89.7687 173.341C88.8637 172.038 88.3795 170.488 88.3813 168.902L87.893 169.124V173.386L87.4268 173.697C87.3269 173.608 87.2049 173.519 87.0828 173.43L86.6166 173.086C86.3798 172.928 86.1604 172.746 85.9618 172.542C85.8428 172.415 85.752 172.263 85.6954 172.098C84.9071 169.505 84.6208 166.785 84.8518 164.085ZM102.888 158.957C105.419 158.601 107.994 158.468 110.547 158.224C110.824 158.224 111.09 158.224 111.324 158.169H111.579C112.589 158.169 113.177 158.402 113.51 159.145C113.676 159.553 113.781 159.983 113.821 160.422C114.193 164.021 114.382 167.637 114.387 171.255C114.387 171.921 113.765 172.598 113.21 173.73C112.489 171.799 111.99 170.478 111.501 169.157L111.046 169.279C110.857 170.711 111.124 172.52 110.358 173.475C109.592 174.429 107.738 174.585 106.284 175.184C106.007 173.741 105.774 172.553 105.563 171.443C105.474 170.977 105.385 170.533 105.297 170.089L104.831 170.189C104.098 171.765 103.354 173.341 102.433 175.306C102.278 175.051 102.167 174.873 102.067 174.729C101.986 174.619 101.912 174.504 101.845 174.385C101.792 174.316 101.758 174.236 101.745 174.152C101.501 169.512 101.223 164.873 101.134 160.222C101.157 159.811 102.233 159.045 102.888 158.957ZM122.09 155.039C123.877 154.384 125.042 154.284 125.853 155.039C126.429 155.695 126.813 156.498 126.962 157.358C127.568 159.955 127.848 162.617 127.795 165.283C127.779 166.196 127.521 167.088 127.047 167.868C126.573 168.648 125.901 169.288 125.098 169.723C124.117 170.297 122.993 170.582 121.857 170.544L120.958 167.059C120.958 167.059 120.958 167.059 120.958 166.993L120.603 167.104C119.981 168.754 119.367 170.407 118.76 172.065L118.294 171.821C117.473 166.989 116.647 162.146 115.819 157.292C117.839 156.537 119.97 155.816 122.09 155.039ZM132.49 148.379C134.152 146.474 135.701 144.472 137.129 142.386C137.728 142.488 138.29 142.744 138.761 143.129C142.091 145.737 143.101 154.128 140.648 157.48C139.86 155.005 139.538 152.308 137.529 150.521C137.429 150.432 137.296 150.355 137.185 150.266C136.991 150.105 136.787 149.957 136.574 149.822L136.319 149.656V150.033C136.785 153.129 137.429 156.215 137.662 159.334C137.795 161.277 136.419 162.664 134.71 163.774C134.332 162.453 133.999 161.332 133.666 160.2L133.189 160.266C132.716 162.109 132.235 163.959 131.746 165.816L131.091 165.727C130.861 163.476 130.441 161.248 129.837 159.068C129.213 156.879 128.101 154.86 126.585 153.163C128.65 151.683 130.622 150.078 132.49 148.357V148.379ZM93.7867 235.664C94.3068 235.808 94.8182 235.983 95.3184 236.186C96.7025 236.723 98.0585 237.33 99.3807 238.006C100.258 238.716 99.7804 239.782 98.4484 243.811L97.0388 243.056L92.4104 240.581L93.7867 235.664ZM94.7523 230.114C94.7523 230.037 95.1851 230.025 95.4182 230.025C96.7797 229.982 98.1201 230.371 99.2476 231.135C100.746 232.245 101.168 234.232 100.302 236.685C100.302 236.796 100.169 236.874 100.013 237.095C98.2486 236.363 96.5392 235.697 94.8633 234.942C94.6624 234.839 94.4849 234.695 94.3416 234.521C94.3049 234.486 94.2749 234.444 94.2529 234.398C94.2157 234.349 94.1824 234.297 94.153 234.243C94.1119 234.168 94.0891 234.085 94.0864 233.999C94.2416 232.679 94.4639 231.367 94.7523 230.07V230.114ZM114.087 232.756C120.147 232.756 124.487 236.973 129.56 239.97C129.093 239.193 128.738 238.583 128.383 238.006C128.054 237.597 127.682 237.225 127.273 236.896C130.053 237.564 132.735 238.586 135.254 239.937C135.609 240.126 135.964 240.337 136.363 240.559C136.497 240.636 136.641 240.703 136.774 240.792L137.884 241.524L138.273 241.78C138.327 241.827 138.387 241.867 138.45 241.902C143.431 245.428 147.369 250.233 149.849 255.809C149.633 253.865 149.163 251.958 148.451 250.137C147.544 247.762 146.234 245.561 144.577 243.633C142.701 241.492 140.443 239.719 137.917 238.405C135.738 237.291 133.391 236.541 130.969 236.186C129.994 236.044 129.012 235.955 128.028 235.919C128.652 235.595 129.297 235.313 129.959 235.076C131.694 234.432 133.586 234.339 135.376 234.809C136.208 235.031 136.996 235.309 137.784 235.597C138.881 235.98 139.952 236.433 140.992 236.951L141.491 237.173C141.813 237.34 142.091 237.54 142.39 237.717C143.272 238.219 144.125 238.771 144.943 239.371C148.945 242.371 152.188 246.267 154.411 250.748C156.775 255.321 155.621 258.517 151.081 260.981C147.308 263.117 142.985 264.083 138.661 263.756C134.876 263.456 131.546 262.313 129.182 259.683C128.349 258.741 127.671 257.673 127.173 256.519C126.874 255.853 126.585 255.176 126.296 254.499C125.375 252.39 124.476 250.259 123.721 248.084C122.201 243.722 120.492 239.515 117.362 236.363C117.006 236.008 116.629 235.675 116.252 235.342C115.604 234.799 114.914 234.309 114.187 233.877C113.525 233.46 112.835 233.089 112.123 232.767C112.775 232.699 113.432 232.681 114.087 232.711V232.756ZM97.4384 256.42C98.1783 254.873 98.8923 253.319 99.5805 251.758C101.638 246.898 103.179 241.834 104.176 236.652C104.453 235.231 104.964 234.942 106.395 235.22C108.514 235.637 110.527 236.479 112.311 237.695C113.27 238.341 114.159 239.085 114.964 239.915C114.984 239.946 115.011 239.973 115.042 239.993C117.001 242.024 118.448 244.493 119.263 247.196C120.077 249.898 120.236 252.756 119.726 255.532C119.204 258.362 117.817 260.271 115.031 261.003C113.199 261.492 111.312 261.791 109.481 262.113C105.445 261.761 101.552 260.448 98.1265 258.284C97.9628 258.173 97.807 258.05 97.6603 257.918C97.6232 257.872 97.5899 257.824 97.5604 257.774C97.4836 257.7 97.4197 257.613 97.3717 257.518C97.2938 257.335 97.2603 257.136 97.2738 256.937C97.2873 256.739 97.3475 256.546 97.4495 256.375L97.4384 256.42ZM90.1461 246.153L92.3659 241.369C94.053 242.323 95.5959 243.134 97.0388 244.055L97.3385 244.233C97.3959 244.283 97.448 244.338 97.4939 244.399C97.6522 244.566 97.7766 244.762 97.8601 244.976C97.9863 245.242 98.0213 245.543 97.96 245.831C97.3051 247.651 96.4505 249.394 95.5959 251.38L94.4859 250.504L94.3861 250.426L93.2761 249.516L91.0563 247.74L89.9464 246.863C89.9464 246.552 90.0462 246.386 90.1572 246.108L90.1461 246.153ZM88.4146 249.161L89.0252 248.261C89.1436 248.131 89.2778 248.015 89.4247 247.917L91.1118 249.405L92.4104 250.515C93.0882 251.004 93.7001 251.578 94.2307 252.224C94.7079 252.99 94.3416 253.667 93.376 255.476C93.376 255.565 93.1873 255.587 92.9875 255.698C92.366 255.176 91.7112 254.655 91.0674 254.122L89.7354 253.012C89.1027 252.49 88.6255 252.102 88.2926 251.769C87.4712 250.925 87.5711 250.437 88.4258 249.116L88.4146 249.161ZM86.8496 252.357L88.4146 253.589L92.5324 256.819C91.4225 259.039 91.2561 259.039 89.4247 257.818L88.3148 257.063C87.7931 256.697 87.2603 256.331 86.7498 255.953C86.3523 255.681 85.9808 255.373 85.6398 255.032C84.9406 254.155 85.3401 253.534 86.8607 252.313L86.8496 252.357ZM55.6718 168.358C55.8378 168.403 56.0008 168.459 56.1601 168.524C56.5375 168.669 56.9037 168.835 57.27 169.013C56.937 169.312 56.6042 169.59 56.2823 169.867L54.8727 171.055L54.1067 171.676C54.0016 171.636 53.8942 171.603 53.785 171.577C53.3965 171.443 52.9746 171.288 52.575 171.11C53.7183 170.134 54.7505 169.223 55.6829 168.313L55.6718 168.358ZM58.6574 169.778C59.629 170.344 60.5566 170.982 61.4322 171.688C61.2768 172.165 61.1325 172.642 61.0105 173.119C60.9217 173.419 60.844 173.73 60.7774 174.03C60.7108 174.329 60.5887 174.784 60.511 175.139C59.7827 173.962 58.6566 173.084 57.3367 172.664C57.7917 171.677 58.2246 170.7 58.6685 169.734L58.6574 169.778ZM119.926 208.737L120.025 208.881L119.881 208.781L119.926 208.737Z" fill="black"/>
<path d="M84.93 147.153C84.93 147.231 84.93 147.319 84.93 147.408L85.1299 148.074C85.3075 148.718 85.5071 149.35 85.718 149.983C85.9289 150.616 86.0621 150.993 86.2841 151.47C86.4225 151.766 86.6102 152.037 86.8391 152.27V152.336V152.392L87.0167 152.547L87.1499 152.647L87.2831 152.747C87.4275 152.846 87.5895 152.918 87.7604 152.958C89.8249 153.446 91.9004 154.001 93.9871 154.356C94.8861 154.512 95.774 154.645 96.673 154.711C97.7829 154.8 98.8152 154.856 99.8918 154.878C107.382 155.14 114.841 153.797 121.768 150.938L122.601 150.594C126.308 148.907 126.463 148.518 125.664 144.622C125.598 144.3 125.542 143.978 125.476 143.657C125.309 142.724 125.176 141.803 125.076 140.904C125.076 140.826 125.076 140.76 125.076 140.693C125.076 140.282 124.998 139.883 124.965 139.472C124.932 139.061 124.965 138.939 124.965 138.684C124.965 138.429 124.965 138.351 124.965 138.185V137.963C124.965 137.208 124.965 136.464 124.965 135.743C124.965 135.299 124.965 134.866 125.054 134.422C125.054 134.155 125.054 133.889 125.132 133.634C125.132 133.101 125.265 132.58 125.354 132.069C125.476 131.348 125.631 130.637 125.809 129.938C125.886 129.605 125.986 129.272 126.086 128.95C126.086 128.795 126.175 128.628 126.23 128.473L126.297 128.251L126.397 127.985C126.515 127.615 126.648 127.245 126.796 126.875C126.907 126.608 127.019 126.342 127.141 126.075C127.263 125.809 127.418 125.443 127.573 125.132C127.729 124.821 127.895 124.477 128.073 124.155C128.25 123.833 128.517 123.356 128.761 122.968C128.815 122.868 128.874 122.772 128.939 122.679C129.127 122.368 129.338 122.046 129.549 121.735L129.693 121.525H109.471V127.074L110.114 126.985C110.725 126.897 111.335 126.786 111.946 126.675L112.933 126.508C113.821 126.342 114.721 126.153 115.62 125.953H115.742C115.975 125.902 116.213 125.872 116.452 125.864H116.53L116.729 125.998C116.774 126.036 116.822 126.069 116.874 126.097C115.886 126.786 115.02 127.563 114.066 128.106C113.94 128.183 113.81 128.254 113.677 128.317L113.555 128.384C113.045 128.621 112.545 128.865 112.057 129.117L110.78 129.794L109.804 130.337L108.871 130.892L108.005 131.425L106.241 132.535C105.501 133.046 104.761 133.567 104.021 134.1C102.6 135.099 101.202 136.143 99.792 137.175L97.3391 138.984C96.6842 139.461 96.0182 139.949 95.3523 140.416L93.4653 141.736L93.0546 142.014C92.6218 142.302 92.1667 142.58 91.7117 142.835C91.2566 143.091 90.9237 143.268 90.513 143.479C89.6361 143.923 88.7371 144.322 87.8269 144.711L86.0066 145.466C85.0632 145.921 84.7857 146.409 84.93 147.153Z" fill="#FBAF7C"/>
<path d="M104.582 127.606L103.361 127.695L101.763 127.783H100.553H98.9435H98.3552V127.362H106.191L104.582 127.606Z" fill="#FBAF7C"/>
<path d="M49.1477 185.078L50.2577 185.633C52.3554 186.266 54.42 186.91 56.4289 187.565C56.9284 187.021 56.1513 185.955 55.4743 184.312C53.4047 184.826 51.28 185.083 49.1477 185.078Z" fill="#00F5FF"/>
<path d="M0.442001 148.876C0.805405 147.686 1.42696 146.59 2.2623 145.668C3.17244 144.68 4.37123 143.826 4.68201 142.527C4.76537 141.987 4.80988 141.442 4.81519 140.895C4.94206 139.96 5.25967 139.061 5.74844 138.253C6.23721 137.445 6.88666 136.747 7.65654 136.2C9.20184 135.106 10.9312 134.298 12.7622 133.814C13.4148 133.63 14.05 133.388 14.6602 133.093C15.4372 132.589 16.1789 132.033 16.8801 131.428C20.8647 128.531 26.5698 129.208 30.8763 131.65C31.8312 132.253 32.8422 132.762 33.8952 133.17C35.3382 133.648 36.77 133.17 38.2351 133.337C39.8047 133.557 41.3916 133.628 42.9745 133.548C43.5808 133.449 44.2009 133.479 44.7947 133.636C45.3658 133.884 45.852 134.293 46.1932 134.813C47.2536 136.264 47.7542 138.05 47.6028 139.841C47.5167 140.256 47.5513 140.688 47.7027 141.084C47.9034 141.38 48.1793 141.618 48.5019 141.772C50.2237 142.794 51.8507 143.968 53.3634 145.28C54.2449 145.964 54.9775 146.822 55.5166 147.799C56.0164 149.025 56.1995 150.357 56.0494 151.673C55.9905 153.228 55.7635 154.773 55.3723 156.279C54.9851 157.291 54.4462 158.238 53.7741 159.087C52.4881 161.186 50.8022 163.011 48.8126 164.459C48.6279 164.589 48.4352 164.708 48.2356 164.814C48.7189 165.384 49.1256 166.015 49.4454 166.69C49.5896 166.601 49.7451 166.501 49.8782 166.402C53.9517 163.715 59.1794 160.408 60.1006 156.324C60.1783 155.968 60.5114 154.359 60.8443 152.417C61.3216 149.653 61.2882 148.643 61.5768 147.666C62.8122 142.901 65.8746 138.814 70.1011 136.289C71.2608 136.743 72.3756 137.304 73.4309 137.965C74.5408 138.709 75.34 139.697 76.3611 140.485C80.2903 143.482 84.6856 142.227 89.1364 142.793C90.0122 142.906 90.8966 142.936 91.778 142.882C91.3895 143.104 90.9899 143.315 90.5792 143.526C89.7024 143.97 88.8034 144.369 87.8933 144.758L86.073 145.513C85.1295 145.912 84.8521 146.401 84.9631 147.144C84.9631 147.222 84.9631 147.311 84.9631 147.4L85.1628 148.065C85.3403 148.709 85.5402 149.342 85.7511 149.975C85.9619 150.607 86.0951 150.985 86.3171 151.462C86.4556 151.758 86.6432 152.028 86.8721 152.261V152.328V152.383L87.0497 152.539L87.1829 152.639L87.3161 152.738C87.4605 152.838 87.6225 152.91 87.7934 152.949C89.8579 153.438 91.9334 153.993 94.0201 154.348C94.9191 154.503 95.807 154.636 96.706 154.703C97.816 154.792 98.8482 154.847 99.9249 154.869C107.415 155.132 114.874 153.788 121.801 150.929L122.634 150.585C126.341 148.898 126.497 148.51 125.697 144.614C125.631 144.292 125.575 143.97 125.509 143.648C125.342 142.716 125.209 141.794 125.109 140.895C125.109 140.818 125.109 140.751 125.109 140.685C125.109 140.274 125.031 139.874 124.998 139.464C124.965 139.053 124.998 138.931 124.998 138.676C124.998 138.42 124.998 138.187 124.998 137.954C124.998 137.199 124.998 136.456 124.998 135.734C124.998 135.29 124.998 134.858 125.087 134.414C125.087 134.147 125.087 133.881 125.165 133.625C125.165 133.093 125.298 132.571 125.387 132.06C125.509 131.339 125.664 130.629 125.842 129.929C126.972 129.251 128.144 128.643 129.349 128.109L130.093 127.787C130.098 127.735 130.098 127.683 130.093 127.632L137.407 119.707H137.54C138.184 121.638 138.106 122.915 137.54 123.825C135.32 125.345 136.43 124.657 135.443 125.812C134.28 127.138 133.329 128.635 132.623 130.251C132.478 130.487 132.387 130.753 132.357 131.028C132.255 131.446 132.203 131.874 132.202 132.305C132.181 132.569 132.219 132.834 132.313 133.081C132.519 133.522 132.889 133.865 133.345 134.036C135.105 134.844 136.763 135.857 138.284 137.055C139.808 138.268 141.189 139.649 142.402 141.173C143.156 142.104 143.821 143.103 144.389 144.159C146.04 147.234 146.655 150.761 146.142 154.215C146.11 154.532 146.11 154.852 146.142 155.169C146.159 155.248 146.182 155.326 146.209 155.402C146.235 155.585 146.283 155.764 146.353 155.935C146.399 156.042 146.459 156.143 146.531 156.235C146.588 156.314 146.651 156.388 146.719 156.457C146.896 156.657 147.102 156.829 147.33 156.967L147.507 157.078C154.667 161.518 160.483 167.8 167.397 172.617C176.799 179.099 180.717 189.954 184.046 199.555C187.376 209.156 192.648 223.707 186.089 236.294C183.869 240.556 180.872 243.475 174.989 249.169C170.028 254.008 165.144 258.759 158.851 261.9C143.19 269.725 126.341 263.82 125.931 266.084C125.931 266.362 126.086 266.684 126.474 267.028H126.341C125.805 267.203 125.318 267.503 124.92 267.904C122.8 269.736 120.037 270.124 116.518 270.657C112.273 271.193 107.965 270.944 103.81 269.925C100.424 269.224 97.1204 268.171 93.9534 266.783C91.8981 265.75 89.9436 264.528 88.1152 263.132C79.3579 257.127 78.6365 255.362 74.2855 253.875C72.2766 253.209 70.2453 253.442 68.2475 252.909C65.5322 251.995 63.1747 250.247 61.5103 247.915C60.4003 246.438 59.7344 244.396 60.7 242.876C58.2164 242.632 55.8792 241.588 54.0405 239.901C50.9216 237.182 49.6008 233.086 46.271 230.611C46.049 230.411 45.7692 230.286 45.4719 230.256C45.1881 230.273 44.9167 230.378 44.6948 230.555C43.6809 231.432 42.5041 232.099 41.2319 232.52C39.8139 232.674 38.391 232.277 37.2584 231.41C34.673 229.611 32.778 226.984 31.8862 223.963C31.4123 222.419 31.162 220.815 31.1427 219.201C31.1427 217.503 31.3313 216.715 30.0881 215.416C29.2368 214.508 28.6414 213.391 28.3625 212.178C28.0837 210.966 28.1315 209.7 28.501 208.512C28.6966 208.101 28.7771 207.645 28.7341 207.191C28.5445 206.714 28.2395 206.29 27.8462 205.96C27.3148 205.232 26.9659 204.388 26.8288 203.497C26.6917 202.607 26.7702 201.696 27.0581 200.843C27.5797 198.856 28.845 197.058 29.2779 195.093C29.528 192.76 29.3931 190.401 28.8784 188.112C28.8572 187.917 28.7887 187.73 28.6786 187.568C28.3235 187.146 27.6463 187.446 27.1801 187.745C24.5519 189.404 21.5512 190.381 18.45 190.586C15.3489 190.792 12.2454 190.22 9.42128 188.922C8.68874 188.567 7.85631 187.934 8.05609 187.146C8.25589 186.358 9.09952 186.203 9.80988 186.036C14.2496 184.926 19.5439 179.732 15.4927 175.203C13.2728 172.662 9.36584 173.86 7.81195 170.187C7.69437 169.84 7.53012 169.512 7.32364 169.21C6.67989 168.388 5.44774 168.433 4.42661 168.2C3.55324 167.954 2.75352 167.497 2.09755 166.87C1.44157 166.243 0.949463 165.465 0.664078 164.604C0.115631 162.871 0.0503387 161.021 0.475342 159.254C0.773987 158.23 0.916183 157.167 0.89711 156.101C0.756836 155.285 0.545059 154.483 0.264374 153.704C-0.141403 152.111 -0.0797119 150.435 0.442001 148.876ZM44.8391 184.738L44.9169 184.838C45.0834 184.838 45.2498 184.838 45.4163 184.838L44.8391 184.738ZM68.7581 149.065C68.1177 150.9 67.7766 152.826 67.7481 154.769V155.036C67.8236 158.269 68.4973 161.46 69.7349 164.448C70.0124 159.131 69.7348 154.004 75.118 151.129C74.9126 150.371 74.6529 149.629 74.341 148.909C74.0302 148.265 74.1856 147.289 73.5641 146.856C73.3028 146.691 72.9947 146.617 72.6872 146.645C71.8663 146.614 71.055 146.828 70.3555 147.259C69.6561 147.689 69.1002 148.318 68.7581 149.065ZM77.6376 142.238C77.5789 142.117 77.5082 142.002 77.4266 141.894C76.8161 141.073 75.8394 141.195 74.8959 141.539C74.3858 141.714 73.8919 141.933 73.4198 142.194C73.1857 142.333 72.9596 142.485 72.7427 142.649C72.5318 142.793 72.3099 142.915 72.1101 143.071C71.8486 143.301 71.6003 143.546 71.3664 143.804C71.2443 143.926 71.1112 144.036 70.9891 144.17C70.7693 144.454 70.5654 144.751 70.3786 145.058L70.2232 145.28C70.1651 145.349 70.1131 145.423 70.0678 145.502H70.1455H70.0789H71.0223C71.3401 145.479 71.6592 145.479 71.9769 145.502C72.6255 145.689 73.3186 145.646 73.9395 145.381C74.5604 145.117 75.0708 144.645 75.3844 144.048C75.8061 143.315 76.8494 142.938 77.693 142.361C77.6642 142.322 77.6382 142.281 77.6153 142.238H77.6376ZM77.5266 153.127C77.2659 153.014 76.9822 152.965 76.6987 152.982C76.4153 152.999 76.1399 153.083 75.8949 153.227C74.9736 154.093 73.675 155.114 73.5418 156.146C73.3661 158.78 73.3402 161.422 73.4642 164.06C73.4642 164.97 73.553 165.88 73.6196 166.79C73.721 167.432 74.0622 168.011 74.5741 168.411C75.445 169.146 76.4629 169.687 77.5598 169.998C77.8408 170.08 78.1261 170.147 78.4145 170.198C78.4145 169.565 78.4811 168.932 78.5921 168.322C78.6954 167.652 78.9925 167.027 79.4467 166.524C79.4467 166.524 79.4467 166.524 79.4467 166.579C79.924 167.845 80.3901 169.121 80.8673 170.386V170.475L81.1893 171.019C81.1893 171.13 81.3003 171.219 81.3336 171.274C81.833 166.346 82.3547 161.285 82.9097 155.946C81.5112 155.191 79.5355 154.104 77.5044 153.149L77.5266 153.127ZM97.705 159.32C97.5047 159.107 97.262 158.937 96.9926 158.823C96.7232 158.708 96.4328 158.651 96.14 158.654C93.7758 158.41 91.4117 158.055 89.0586 157.7C88.4408 157.538 87.7846 157.613 87.2195 157.911C86.6544 158.209 86.2215 158.708 86.0063 159.309C85.4264 160.844 85.0531 162.449 84.8964 164.082C84.669 166.783 84.9591 169.503 85.7511 172.096C85.8077 172.261 85.8985 172.412 86.0174 172.539C86.2161 172.743 86.4357 172.925 86.6724 173.083L87.1385 173.427C87.2606 173.516 87.3827 173.605 87.4826 173.694L87.9487 173.383V169.121L88.4371 168.899C88.4354 170.486 88.9195 172.035 89.8245 173.339C89.8245 173.339 89.88 173.339 89.9022 173.416C90.1083 173.652 90.3433 173.861 90.6014 174.038C91.7286 174.711 93.0578 174.963 94.353 174.748V170.12H94.8303L97.5163 175.103C97.7339 174.644 97.9051 174.165 98.0269 173.672C98.0269 169.443 98.0269 165.203 98.1379 160.974C98.1943 160.386 98.0323 159.797 97.6828 159.32H97.705ZM92.444 240.556L97.0724 243.031L98.4819 243.786C99.8138 239.757 100.291 238.691 99.4143 237.981C98.092 237.305 96.7361 236.698 95.352 236.161C94.8518 235.958 94.3403 235.784 93.8203 235.639L92.444 240.556ZM99.2812 231.088C98.1537 230.324 96.8133 229.935 95.4518 229.978C95.2187 229.978 94.797 229.978 94.7859 230.067C94.4975 231.365 94.2752 232.676 94.12 233.996C94.1226 234.082 94.1454 234.165 94.1865 234.24C94.2158 234.295 94.2493 234.347 94.2865 234.396C94.3085 234.441 94.3385 234.483 94.3752 234.518C94.5185 234.693 94.696 234.836 94.8969 234.94C96.5728 235.694 98.2267 236.36 100.047 237.093C100.202 236.871 100.302 236.793 100.336 236.682C101.179 234.174 100.757 232.231 99.2589 231.088H99.2812ZM113.81 160.408C113.77 159.969 113.666 159.539 113.499 159.131C113.166 158.388 112.578 158.155 111.568 158.155H111.279C111.046 158.155 110.78 158.155 110.503 158.21C107.95 158.455 105.375 158.588 102.844 158.943C102.189 159.032 101.112 159.775 101.124 160.197C101.212 164.848 101.49 169.487 101.734 174.127C101.747 174.211 101.782 174.292 101.834 174.36C101.901 174.479 101.975 174.594 102.056 174.704C102.156 174.848 102.267 175.026 102.422 175.281C103.343 173.316 104.087 171.74 104.82 170.164L105.286 170.064C105.375 170.508 105.463 170.952 105.552 171.418C105.763 172.528 105.996 173.716 106.274 175.159C107.728 174.604 109.537 174.438 110.347 173.45C111.157 172.462 110.847 170.686 111.035 169.254L111.49 169.132C111.979 170.453 112.478 171.774 113.2 173.705C113.755 172.595 114.398 171.896 114.376 171.23C114.371 167.615 114.182 164.003 113.81 160.408ZM125.808 155.014C124.998 154.281 123.833 154.381 122.046 155.014C119.926 155.791 117.795 156.512 115.775 157.233C116.603 162.095 117.428 166.938 118.25 171.763L118.716 172.007C119.33 170.357 119.944 168.703 120.558 167.045L120.914 166.934C120.914 166.934 120.914 166.934 120.914 167.001L121.813 170.486C122.949 170.524 124.072 170.239 125.054 169.665C125.856 169.23 126.529 168.59 127.003 167.81C127.477 167.03 127.735 166.138 127.751 165.225C127.804 162.559 127.524 159.897 126.918 157.3C126.779 156.457 126.415 155.667 125.864 155.014H125.808ZM138.772 143.16C138.302 142.775 137.74 142.519 137.141 142.416C135.713 144.503 134.164 146.504 132.501 148.41C130.642 150.103 128.681 151.682 126.63 153.138C128.146 154.835 129.258 156.854 129.882 159.043C130.486 161.224 130.906 163.451 131.136 165.702L131.791 165.791C132.279 163.934 132.76 162.084 133.234 160.241L133.711 160.175C134.044 161.285 134.377 162.395 134.754 163.749C136.464 162.639 137.84 161.24 137.707 159.309C137.485 156.19 136.83 153.105 136.364 150.008V149.631L136.619 149.797C136.832 149.932 137.035 150.08 137.23 150.241C137.341 150.33 137.474 150.408 137.574 150.496C139.56 152.283 139.904 154.936 140.692 157.455C143.112 154.103 142.08 145.713 138.772 143.16ZM126.341 254.596C126.63 255.273 126.918 255.951 127.218 256.617C127.716 257.771 128.394 258.839 129.227 259.78C131.591 262.41 134.921 263.554 138.706 263.853C143.029 264.18 147.353 263.214 151.126 261.078C155.699 258.592 156.853 255.418 154.456 250.845C152.233 246.365 148.99 242.468 144.988 239.468C144.169 238.868 143.317 238.316 142.435 237.814C142.135 237.637 141.858 237.437 141.536 237.271L141.037 237.049C139.997 236.53 138.926 236.078 137.829 235.695C137.041 235.406 136.253 235.128 135.42 234.906C133.63 234.436 131.739 234.529 130.004 235.173C129.342 235.41 128.697 235.692 128.073 236.016C129.057 236.052 130.039 236.141 131.014 236.283C133.436 236.638 135.783 237.388 137.962 238.502C140.487 239.816 142.746 241.589 144.622 243.73C146.278 245.659 147.589 247.859 148.495 250.234C149.208 252.056 149.678 253.963 149.894 255.906C147.44 250.318 143.526 245.494 138.562 241.943C138.498 241.909 138.439 241.868 138.384 241.821L137.995 241.566L136.886 240.833C136.752 240.745 136.608 240.678 136.475 240.6C136.109 240.378 135.753 240.167 135.365 239.979C132.846 238.628 130.164 237.605 127.384 236.938C127.793 237.267 128.165 237.639 128.494 238.047C128.85 238.625 129.205 239.235 129.671 240.012C124.599 237.015 120.259 232.797 114.199 232.797C113.548 232.797 112.899 232.846 112.256 232.942C112.969 233.264 113.658 233.635 114.321 234.052C115.047 234.483 115.738 234.973 116.385 235.517C116.774 235.85 117.151 236.183 117.495 236.538C120.625 239.69 122.334 243.897 123.855 248.259C124.521 250.301 125.42 252.432 126.341 254.541V254.596ZM97.3166 257.538C97.3646 257.633 97.4284 257.719 97.5053 257.793C97.5347 257.844 97.5681 257.892 97.6051 257.937C97.7519 258.07 97.9075 258.192 98.0712 258.304C101.496 260.467 105.39 261.78 109.426 262.133C111.279 261.755 113.166 261.456 114.976 261.023C117.761 260.29 119.149 258.381 119.671 255.551C120.181 252.775 120.022 249.918 119.207 247.215C118.393 244.513 116.946 242.044 114.987 240.012C114.955 239.992 114.929 239.965 114.909 239.934C114.104 239.104 113.215 238.36 112.256 237.714C110.471 236.499 108.459 235.657 106.34 235.239C104.964 234.962 104.453 235.239 104.12 236.671C103.123 241.854 101.583 246.917 99.5253 251.777C98.8593 253.339 98.1452 254.893 97.3831 256.439C97.2983 256.598 97.2485 256.773 97.237 256.953C97.2255 257.133 97.2527 257.314 97.3166 257.482V257.538ZM95.5629 251.344C96.4176 249.402 97.2721 247.659 97.9269 245.795C97.9883 245.507 97.9532 245.206 97.8271 244.94C97.7435 244.726 97.6192 244.53 97.4609 244.363C97.4149 244.302 97.3628 244.246 97.3054 244.196L97.0057 244.019C95.5628 243.098 94.0201 242.287 92.333 241.333L90.1131 246.117C90.0021 246.339 89.9022 246.561 89.8023 246.783L90.9122 247.659L93.1321 249.435L94.242 250.346L94.3419 250.423L95.5629 251.344ZM93.3431 255.495C94.3087 253.686 94.6749 253.009 94.1976 252.243C93.667 251.598 93.0552 251.023 92.3773 250.534L91.0788 249.424L89.3917 247.937C89.2447 248.035 89.1105 248.15 88.9921 248.281L88.3816 249.18C87.5269 250.501 87.4271 250.989 88.2595 251.822C88.5925 252.155 89.0698 252.543 89.7025 253.065L91.0343 254.175C91.6781 254.707 92.3329 255.229 92.9545 255.751C93.2098 255.551 93.3541 255.529 93.3985 255.44L93.3431 255.495ZM85.6512 255.007C85.9921 255.348 86.3637 255.656 86.7611 255.928C87.2717 256.306 87.8045 256.672 88.3262 257.038L89.4361 257.793C91.2675 259.047 91.4672 258.981 92.5438 256.794L88.426 253.564L86.861 252.332C85.3515 253.531 84.952 254.152 85.7067 254.952L85.6512 255.007ZM33.984 195.326C34.3503 195.4 34.7276 195.4 35.0939 195.326C39.8555 194.028 44.262 195.903 48.8017 196.658L48.8682 197.246C46.9702 197.568 45.0833 197.935 43.1853 198.201C41.7313 198.39 40.2329 198.323 38.7456 198.578C35.205 199.222 33.529 201.742 34.0618 205.349L40.2996 205.693C38.4571 207.103 36.2594 208.246 34.8831 210.033C34.7786 210.173 34.6928 210.326 34.6278 210.488C34.1728 211.598 34.5168 213.418 34.4058 215.05L46.615 213.485L46.8814 213.973C45.5494 214.65 44.2509 215.383 42.8968 215.971C41.0876 216.77 39.1564 217.303 37.4249 218.191C36.952 218.402 36.5264 218.706 36.1738 219.085C35.8211 219.465 35.5485 219.911 35.3724 220.398C35.1962 220.885 35.1201 221.403 35.1485 221.92C35.177 222.437 35.3094 222.943 35.5379 223.408C36.1373 225.017 37.0031 226.538 37.9132 228.447C40.1996 225.827 42.8079 225.316 45.4828 224.884C46.6386 224.592 47.862 224.746 48.9091 225.316C49.9561 225.886 50.75 226.829 51.1325 227.958C52.0168 229.943 53.095 231.835 54.3513 233.608C58.8576 239.901 65.6836 241.866 72.998 239.157C73.9414 238.802 74.8626 238.414 75.8838 238.047C75.3843 240.034 73.8305 241.022 67.6371 243.464C71.8992 249.28 80.5344 250.745 85.629 244.263C88.5961 240.337 89.9034 235.402 89.2696 230.522C89.207 230.128 89.0606 229.751 88.8405 229.418C88.6203 229.085 88.3314 228.803 87.9931 228.591C79.5355 224.395 75.0847 216.87 71.3442 208.768C69.9346 205.76 68.4141 202.807 66.9823 199.81C66.1634 197.999 64.9812 196.374 63.5093 195.038C62.0373 193.702 60.3067 192.682 58.4246 192.041C54.0811 190.524 49.7081 189.111 45.3053 187.801C43.6095 187.165 41.748 187.124 40.0259 187.685C38.3037 188.245 36.823 189.374 35.8265 190.887C35.0718 191.908 34.1172 192.785 33.2736 193.75C32.4301 194.716 32.8852 195.104 34.0396 195.326H33.984Z" fill="#010101"/>
<path d="M52.5653 171.061C52.9649 171.239 53.3867 171.395 53.7752 171.528C53.8844 171.554 53.9919 171.588 54.097 171.628C55.1181 171.96 56.1504 172.271 57.2048 172.582H57.338C58.658 173.001 59.7841 173.879 60.5124 175.057C60.5938 174.68 60.6826 174.31 60.7788 173.947C60.8454 173.648 60.923 173.337 61.0118 173.037C61.1339 172.56 61.2782 172.083 61.4336 171.605C60.5579 170.9 59.6304 170.262 58.6588 169.696C58.211 169.415 57.7478 169.16 57.2714 168.93C56.9162 168.753 56.5499 168.586 56.1614 168.442C56.0022 168.377 55.8392 168.321 55.6731 168.276C54.7408 169.219 53.7085 170.129 52.5653 171.061Z" fill="#010101"/>
<path d="M126.008 265.983C126.008 266.261 126.163 266.583 126.551 266.927C127.795 268.037 130.991 269.346 133.888 270.112C145.065 272.987 154.977 268.203 160.526 265.384C166.52 262.365 182.558 254.285 189.118 237.236C189.619 235.921 190.049 234.58 190.406 233.218C192.914 223.928 192.004 214.35 189.296 205.47C183.424 186.069 169.173 169.864 163.923 166.767C158.673 163.67 155.043 158.742 150.071 155.335C149.698 155.089 149.408 154.737 149.238 154.325C149.104 153.895 149.104 153.434 149.238 153.004C149.393 150.76 149.152 148.506 148.528 146.344C146.552 139.474 141.18 135.456 138.994 133.924C138.039 133.247 137.218 132.703 136.641 132.359C136.434 131.058 136.434 129.732 136.641 128.43C137.107 125.611 136.796 124.945 137.129 124.29C137.234 124.086 137.373 123.902 137.54 123.746C135.32 125.267 136.43 124.579 135.442 125.733C134.279 127.059 133.328 128.557 132.623 130.173C132.343 130.813 132.2 131.505 132.201 132.204C132.181 132.468 132.219 132.733 132.312 132.981C132.518 133.422 132.889 133.764 133.344 133.935C135.104 134.743 136.762 135.756 138.284 136.954C139.807 138.167 141.188 139.549 142.401 141.072C143.156 142.003 143.821 143.003 144.388 144.058C146.04 147.134 146.655 150.661 146.142 154.114C146.11 154.431 146.11 154.751 146.142 155.068C146.159 155.147 146.181 155.225 146.208 155.301C146.234 155.484 146.283 155.663 146.353 155.834C146.403 155.939 146.462 156.039 146.53 156.134C146.587 156.213 146.65 156.287 146.719 156.356C146.903 156.548 147.108 156.719 147.329 156.867L147.507 156.977C154.666 161.417 160.482 167.699 167.397 172.516C176.798 178.998 180.716 189.853 184.046 199.454C187.376 209.055 192.648 223.607 186.088 236.193C183.868 240.455 180.871 243.374 174.989 249.068C170.027 253.907 165.144 258.658 158.85 261.799C143.245 269.624 126.396 263.719 126.008 265.983Z" fill="#010101"/>
<path d="M33.3931 193.631C34.2367 192.665 35.1912 191.788 35.9459 190.767C36.9424 189.255 38.4231 188.126 40.1453 187.566C41.8674 187.005 43.7289 187.046 45.4247 187.682C49.8644 188.992 54.2375 190.405 58.544 191.922C60.4261 192.562 62.1567 193.582 63.6287 194.919C65.1006 196.255 66.2827 197.879 67.1017 199.691C68.5335 202.688 70.054 205.64 71.4636 208.648C75.1708 216.595 79.5328 223.987 87.6796 228.227L88.157 228.472C88.4952 228.684 88.7841 228.966 89.0043 229.299C89.2245 229.632 89.3708 230.009 89.4334 230.403C90.0672 235.283 88.7599 240.217 85.7928 244.144C80.6982 250.626 72.063 249.161 67.8009 243.345C73.9943 240.903 75.5703 239.915 76.0476 237.928C75.0265 238.328 74.1053 238.716 73.1618 239.038C65.8474 241.78 59.0213 239.815 54.515 233.489C53.2587 231.716 52.1806 229.824 51.2963 227.839C50.9138 226.71 50.1198 225.766 49.0728 225.197C48.0257 224.627 46.8024 224.472 45.6467 224.764C42.9717 225.197 40.3635 225.708 38.077 228.327L37.3111 226.762C36.7097 225.636 36.1724 224.476 35.7017 223.288C35.4732 222.823 35.3408 222.318 35.3124 221.8C35.2839 221.283 35.36 220.766 35.5362 220.279C35.7123 219.792 35.9848 219.345 36.3375 218.966C36.6901 218.587 37.1156 218.283 37.5886 218.072C39.3201 217.15 41.2514 216.618 43.0606 215.852C44.4147 215.263 45.7133 214.531 47.0452 213.854L46.7788 213.365L34.5696 214.93C34.6806 213.299 34.3366 211.501 34.7917 210.369C34.8566 210.207 34.9424 210.053 35.0469 209.913C36.4232 208.126 38.6209 206.983 40.4634 205.574L34.2256 205.23C33.6928 201.622 35.3355 199.103 38.9095 198.459C40.3413 198.204 41.8397 198.27 43.3492 198.082C45.2471 197.815 47.134 197.449 49.032 197.127L48.9653 196.539C44.4257 195.784 40.0193 193.908 35.2578 195.207C34.8914 195.28 34.5141 195.28 34.1478 195.207C32.8825 195.118 32.5718 194.574 33.3931 193.631Z" fill="#FBAF7C"/>
<path d="M61.4163 178.065C61.3927 177.015 61.0859 175.991 60.5283 175.102C60.6097 174.724 60.6985 174.354 60.7947 173.992C60.8613 173.692 60.9389 173.381 61.0277 173.082C61.1498 172.604 61.2941 172.127 61.4495 171.65C61.6049 171.172 61.7049 170.873 61.8381 170.54C62.0267 169.963 62.2487 169.43 62.4818 168.808C62.5595 168.598 62.6482 168.376 62.737 168.176V168.087C62.8702 167.754 63.0145 167.421 63.1588 167.088C63.4247 166.611 63.737 166.161 64.0911 165.745C65.1452 167.538 66.364 169.228 67.7317 170.795C70.9661 174.519 74.9685 177.499 79.4637 179.53C86.3453 182.605 93.6042 182.705 100.93 182.105C101.651 182.05 102.361 181.95 103.072 181.861C103.782 181.772 104.459 181.683 105.158 181.595C105.158 181.839 105.281 182.072 105.336 182.305L95.9684 186.179C98.6171 186.437 101.29 186.261 103.882 185.657C119.688 180.851 134.272 173.914 145.36 160.584C149.278 163.392 153.252 166.045 157.014 168.975C161.323 172.245 165.271 175.966 168.791 180.074C171.307 183.082 173.46 186.375 175.206 189.886C178.767 197.204 181.282 204.987 182.676 213.006C183.841 219.488 184.652 226.014 183.786 232.607C183.516 233.723 183.144 234.811 182.676 235.859C182.121 232.529 181.977 229.355 181.744 226.169C181.422 221.73 180.556 218.211 179.657 216.979C179.657 220.076 179.657 223.284 179.657 226.503C179.623 232.24 177.884 237.838 174.662 242.585C172.831 245.26 170.322 248.634 167.636 250.488C166.515 249.099 165.481 247.642 164.54 246.126C163.346 244.564 162.052 243.081 160.666 241.686C158.187 238.995 155.062 236.982 151.587 235.837C156.521 235.903 161.335 237.366 165.472 240.055C166.242 240.564 166.983 241.116 167.692 241.708V241.608C167.603 241.328 167.472 241.062 167.303 240.82C161.987 234.949 155.549 232.218 147.58 233.783C147.088 233.81 146.594 233.765 146.115 233.65L150.81 227.08C155.46 220.62 156.915 218.711 158.269 215.459C159.061 213.548 159.659 211.562 160.056 209.532C158.415 212.587 156.272 215.344 153.718 217.689C152.265 219.203 150.565 220.457 148.69 221.397C147.624 221.855 146.506 222.179 145.36 222.363C145.238 221.012 145.186 219.656 145.205 218.3C145.205 217.123 145.293 215.991 145.393 214.97C145.46 214.249 145.549 213.561 145.649 212.906C145.749 212.251 145.86 211.607 145.982 210.997C146.048 210.697 146.104 210.397 146.17 210.109C144.517 213.439 142.841 216.768 141.131 220.187C141.131 219.821 141.131 219.521 141.131 219.232C141.722 212.837 144.138 206.746 148.091 201.684C148.408 201.183 148.683 200.656 148.912 200.108C144.139 203.316 140.843 207.878 137.757 212.606C137.757 204.015 139.755 196.135 145.527 189.364C143.264 190.343 141.117 191.567 139.122 193.016C135.127 196.124 133.251 200.541 132.096 205.369C130.121 200.597 130.043 195.613 130.143 190.585C128.185 195.581 127.503 200.987 128.156 206.313C128.656 211.651 129.41 216.979 130.11 222.784C128.633 220.287 127.579 218.123 126.181 216.213C124.371 213.727 122.285 211.429 120.32 209.054L120.009 208.832L119.909 208.688L120.054 208.788L120.242 209.054C122.462 214.892 124.749 220.72 126.902 226.569C127.102 227.102 127.124 228.212 126.902 228.3C125.315 228.944 123.872 230.198 121.874 229.466C118.95 228.298 115.821 227.732 112.673 227.801C112.108 227.823 111.544 227.879 110.986 227.967C110.749 227.967 110.516 228.012 110.286 228.101H110.153C108.202 228.52 106.349 229.307 104.692 230.42C101.529 226.746 97.6776 224.638 92.7718 224.871C92.5929 224.871 92.4169 224.826 92.2611 224.738C90.4852 223.805 88.6871 222.906 87.0112 221.852C84.5568 220.019 82.4483 217.764 80.7845 215.192C79.5303 212.972 78.2872 210.752 77.0773 208.533C76.8887 208.155 76.7111 207.8 76.5335 207.423C75.7935 205.824 75.0202 204.234 74.2136 202.65C73.6143 201.44 73.0261 200.23 72.4378 199.01C70.8493 195.593 68.2392 192.754 64.968 190.885C64.7238 190.729 64.4353 190.607 64.1689 190.463L63.403 190.086L62.9035 189.842C62.2462 189.566 61.6737 189.12 61.2448 188.551C60.8158 187.982 60.5455 187.308 60.4616 186.6C60.1262 185.142 59.9257 183.656 59.8624 182.161C60.8974 181.052 61.4554 179.581 61.4163 178.065ZM85.5572 187.71L81.7945 186.767C82.5779 187.398 83.4351 187.931 84.3473 188.354H84.4362C84.7692 188.498 85.102 188.632 85.4461 188.754C87.3044 189.373 89.2612 189.644 91.2178 189.553L92.7051 189.453L85.5572 187.71ZM175.273 212.806C177.992 205.836 173.43 191.429 166.393 185.635C171.022 194.059 174.034 203.274 175.273 212.806ZM160.078 209.476V209.409L159.978 209.465L160.078 209.476ZM162.198 177.288C159.978 174.103 155.294 172.515 151.853 173.836C148.153 175.281 144.874 177.632 142.319 180.674C148.657 177.732 155.072 175.546 162.198 177.233V177.288ZM82.3827 212.073L82.6159 212.395C84.1679 215.069 86.2308 217.411 88.6872 219.288C89.5093 219.921 90.3692 220.502 91.2621 221.03C91.9956 221.424 92.8064 221.651 93.6374 221.696C97.368 221.918 100.925 223.347 103.771 225.77C104.085 226.121 104.516 226.346 104.984 226.403C105.451 226.461 105.924 226.346 106.313 226.081C106.55 225.962 106.783 225.851 107.012 225.748L108.122 225.304C108.477 225.171 108.821 225.048 109.154 224.893H109.232C109.896 224.518 110.533 224.099 111.141 223.639C110.475 223.528 109.82 223.417 109.154 223.284L108.344 223.128L107.234 222.906C98.3828 221.225 90.0136 217.605 82.7268 212.306L82.3717 212.107V212.029L82.3827 212.073ZM83.6591 208.81C81.1507 204.714 78.5535 200.674 76.1449 196.523C73.7364 192.372 71.4166 187.966 69.0636 183.693C70.8062 193.748 76.1893 201.862 83.6591 208.755V208.81Z" fill="#00F5FF"/>
<path d="M54.0966 171.622C55.1177 171.955 56.15 172.266 57.2044 172.577H57.3376C57.7816 171.611 58.2144 170.634 58.6584 169.669C59.1689 168.559 59.6906 167.449 60.2012 166.284C59.1911 167.216 58.2144 168.082 57.2709 168.903C56.938 169.203 56.605 169.48 56.2831 169.758L54.8736 170.945L54.0966 171.622Z" fill="#00F5FF"/>
<path d="M101.188 160.206C101.277 164.857 101.555 169.496 101.799 174.135C101.812 174.22 101.846 174.301 101.899 174.369C101.965 174.488 102.04 174.603 102.121 174.713C102.22 174.857 102.332 175.035 102.487 175.29C103.408 173.325 104.152 171.749 104.884 170.173L105.35 170.073C105.439 170.517 105.528 170.961 105.617 171.427C105.828 172.537 106.061 173.725 106.338 175.168C107.792 174.613 109.602 174.446 110.412 173.459C111.222 172.471 110.911 170.695 111.1 169.263L111.555 169.141C112.043 170.462 112.543 171.783 113.264 173.714C113.819 172.604 114.463 171.905 114.441 171.239C114.436 167.62 114.247 164.005 113.875 160.406C113.835 159.967 113.73 159.537 113.564 159.129C113.231 158.386 112.643 158.153 111.633 158.153H111.344C111.111 158.153 110.845 158.153 110.567 158.208C108.014 158.452 105.439 158.585 102.909 158.941C102.254 159.04 101.177 159.806 101.188 160.206Z" fill="#00F5FF"/>
<path d="M85.6995 172.095C85.7562 172.261 85.847 172.412 85.966 172.539C86.1647 172.743 86.3841 172.925 86.6208 173.083L87.0869 173.427C87.209 173.516 87.3312 173.605 87.4311 173.694L87.8973 173.383V169.121L88.3856 168.899C88.3838 170.486 88.868 172.035 89.773 173.338C89.773 173.338 89.8286 173.339 89.8508 173.416C90.0569 173.652 90.2918 173.861 90.55 174.038C91.6772 174.711 93.0063 174.962 94.3014 174.748V170.12H94.7788L97.4649 175.103C97.6825 174.644 97.8535 174.165 97.9754 173.672C97.9754 169.443 97.9753 165.203 98.0863 160.974C98.1523 160.39 98.0023 159.802 97.6646 159.32C97.4642 159.107 97.2216 158.937 96.9522 158.822C96.6827 158.708 96.3925 158.65 96.0997 158.654C93.7355 158.41 91.3714 158.055 89.0183 157.7C88.4004 157.537 87.7441 157.613 87.1791 157.911C86.614 158.209 86.1811 158.708 85.966 159.309C85.3861 160.844 85.0128 162.449 84.8561 164.082C84.6251 166.782 84.9113 169.502 85.6995 172.095Z" fill="#00F5FF"/>
<path d="M126.623 153.087C128.14 154.785 129.251 156.804 129.875 158.992C130.48 161.173 130.899 163.401 131.13 165.652L131.784 165.741C132.273 163.883 132.754 162.034 133.227 160.191L133.705 160.124C134.038 161.234 134.371 162.344 134.748 163.698C136.457 162.588 137.834 161.19 137.7 159.259C137.478 156.14 136.823 153.054 136.357 149.958V149.58L136.613 149.747C136.825 149.882 137.029 150.03 137.223 150.191C137.334 150.279 137.467 150.357 137.567 150.446C139.554 152.233 139.898 154.886 140.686 157.405C143.139 154.075 142.107 145.662 138.799 143.054C138.329 142.669 137.767 142.413 137.168 142.31C135.74 144.397 134.19 146.398 132.528 148.304C130.66 150.017 128.688 151.615 126.623 153.087Z" fill="#00F5FF"/>
<path d="M115.799 157.237C116.628 162.099 117.453 166.942 118.275 171.766L118.741 172.01C119.355 170.36 119.969 168.707 120.583 167.049L120.938 166.938C120.938 166.938 120.938 166.938 120.938 167.005C121.238 168.17 121.538 169.324 121.848 170.49C122.985 170.527 124.108 170.242 125.089 169.668C125.892 169.234 126.565 168.594 127.039 167.814C127.513 167.033 127.771 166.141 127.787 165.229C127.84 162.563 127.56 159.901 126.954 157.304C126.805 156.443 126.421 155.64 125.844 154.984C125.034 154.252 123.869 154.351 122.082 154.984C119.95 155.805 117.819 156.527 115.799 157.237Z" fill="#00F5FF"/>
<path d="M73.4315 164.052C73.4315 164.962 73.5203 165.872 73.5869 166.782C73.6883 167.424 74.0294 168.003 74.5414 168.403C75.4122 169.139 76.4301 169.68 77.527 169.99C77.808 170.072 78.0933 170.139 78.3817 170.19C78.3817 169.557 78.4483 168.924 78.5593 168.314C78.6627 167.644 78.9598 167.019 79.414 166.516C79.414 166.516 79.414 166.516 79.414 166.572C79.8913 167.837 80.3575 169.113 80.8347 170.379V170.467L81.1565 171.011C81.1565 171.122 81.2675 171.211 81.3008 171.267C81.8003 166.339 82.322 161.277 82.877 155.938C81.3785 155.15 79.4029 154.063 77.3273 153.086C77.0666 152.973 76.7831 152.924 76.4996 152.941C76.2162 152.958 75.9408 153.042 75.6957 153.186C74.7745 154.052 73.4759 155.073 73.3427 156.105C73.2211 158.753 73.2507 161.407 73.4315 164.052Z" fill="#00F5FF"/>
<path d="M67.7316 154.765V155.032C67.8072 158.265 68.4808 161.456 69.7184 164.444C69.9959 159.127 69.7184 154 75.1016 151.125C74.8962 150.367 74.6365 149.625 74.3245 148.905C74.0138 148.261 74.1692 147.285 73.5476 146.852C73.2863 146.687 72.9782 146.613 72.6707 146.641C71.8641 146.617 71.0681 146.83 70.3802 147.251C69.6922 147.673 69.142 148.286 68.7971 149.016C68.1331 150.862 67.7733 152.804 67.7316 154.765Z" fill="#00F5FF"/>
<path d="M70.0148 145.504H70.9584C71.2762 145.482 71.5951 145.482 71.9129 145.504C72.5614 145.691 73.2547 145.649 73.8756 145.384C74.4964 145.119 75.0067 144.648 75.3203 144.05C75.7421 143.317 76.7854 142.94 77.6289 142.363C77.6272 142.33 77.6272 142.296 77.6289 142.263C77.5703 142.141 77.4997 142.026 77.4181 141.919C76.8076 141.097 75.8309 141.22 74.8874 141.564C74.3773 141.739 73.8834 141.958 73.4113 142.218C73.1772 142.357 72.9511 142.509 72.7342 142.674C72.5233 142.818 72.3013 142.94 72.1015 143.095C71.84 143.325 71.5918 143.57 71.3579 143.828C71.2358 143.95 71.1025 144.061 70.9804 144.194C70.7606 144.479 70.5569 144.775 70.3701 145.082L70.2147 145.304C70.142 145.364 70.0751 145.431 70.0148 145.504Z" fill="#00F5FF"/>
<path d="M82.5834 212.356L82.3502 212.034L82.7166 212.234C90.0011 217.527 98.3663 221.143 107.213 222.822C108.511 223.1 109.832 223.344 111.164 223.566C110.556 224.026 109.919 224.445 109.255 224.82C108.278 225.264 107.202 225.531 106.269 226.041C105.882 226.306 105.411 226.42 104.945 226.363C104.48 226.306 104.051 226.081 103.739 225.73C100.893 223.308 97.3356 221.878 93.6049 221.657C92.7737 221.613 91.9626 221.386 91.2297 220.991C90.3375 220.462 89.4777 219.88 88.6547 219.248C86.198 217.372 84.135 215.03 82.5834 212.356Z" fill="black"/>
<path d="M151.848 173.791C155.289 172.47 159.973 174.057 162.182 177.243C155.056 175.556 148.652 177.742 142.303 180.628C144.859 177.583 148.142 175.232 151.848 173.791Z" fill="black"/>
<path d="M166.366 185.638C173.425 191.443 177.998 205.85 175.245 212.82C174.016 203.283 171.003 194.062 166.366 185.638Z" fill="black"/>
<path d="M83.6523 208.765C76.1714 201.872 70.7994 193.758 69.0568 183.647C71.4098 187.92 73.6852 192.249 76.1381 196.478C78.5911 200.706 81.1328 204.669 83.6523 208.765Z" fill="black"/>
<path d="M91.2113 189.605C87.8211 189.862 84.4557 188.854 81.7658 186.774H81.6992H81.5771H81.7214H81.777L92.6875 189.505C92.1991 189.56 91.6997 189.594 91.2113 189.605Z" fill="black"/>
<path d="M160.137 209.409L160.069 209.476L160.015 209.462L160.137 209.409Z" fill="black"/>
<path d="M82.3164 211.978V212.086L82.1948 212.019L82.3164 211.978Z" fill="black"/>
<path d="M82.3164 211.947L82.2647 211.998L82.3164 211.947Z" fill="black"/>
<path d="M38.2975 195.451H38.3418L38.2201 195.473L38.2975 195.451Z" fill="black"/>
<path d="M26.2518 160.12C30.3475 160.494 34.4531 159.516 37.9394 157.334C37.6901 158.145 37.2483 158.883 36.6518 159.487C36.1638 159.97 35.582 160.347 34.9425 160.597C38.7051 160.73 44.8098 155.702 47.6068 150.108C47.6939 151.814 47.3942 153.518 46.73 155.092C47.6564 154.516 48.4204 153.714 48.9499 152.761C49.2351 152.224 49.4371 151.648 49.5492 151.052C49.7315 150.363 49.6709 149.633 49.3778 148.984C49.0846 148.335 48.5768 147.807 47.9398 147.488C46.2971 146.634 44.5323 146.012 42.6343 145.269C42.2348 146.378 41.9462 147.244 41.6354 148.166L43.5777 148.499C40.9197 152.102 37.5116 155.086 33.5884 157.245C31.2771 158.515 28.8111 159.482 26.2518 160.12Z" fill="#ED1C24"/>
<path d="M20.3438 170.438C25.2053 174.701 30.7438 175.122 35.5387 171.548C36.8467 170.538 37.8932 169.228 38.5904 167.729C39.2876 166.231 39.6152 164.587 39.5455 162.935C36.6023 165.732 33.0721 167.837 29.2121 169.095C26.3521 170.037 23.3543 170.491 20.3438 170.438Z" fill="#ED1C24"/>
<path d="M6.20133 162.702C7.03377 163.19 7.96607 163.523 9.20919 164.1C8.39894 162.913 7.81063 162.069 7.22237 161.226C10.9143 164.205 15.5563 165.753 20.2974 165.588C22.1091 165.495 23.8953 165.12 25.5917 164.478L20.2862 163.046C21.024 163.116 21.7651 163.146 22.5061 163.135C23.9456 163.113 25.3785 162.934 26.7793 162.602C23.6073 162.333 20.4607 161.821 17.3671 161.07C14.1829 160.3 11.0622 159.287 8.0326 158.04C8.11682 157.906 8.21752 157.783 8.3323 157.674C8.64548 157.423 9.04206 157.3 9.44223 157.33C9.04702 157.1 8.61018 156.95 8.15684 156.89C7.70351 156.829 7.24268 156.859 6.801 156.978C6.35933 157.097 5.94552 157.301 5.58349 157.581C5.22147 157.86 4.91835 158.209 4.6917 158.606C4.37184 159.352 4.3501 160.193 4.63087 160.955C4.91164 161.716 5.47369 162.342 6.20133 162.702Z" fill="#ED1C24"/>
<path d="M19.3617 137.247C20.9457 136.557 22.6857 136.304 24.4007 136.514C26.1543 136.77 26.9425 137.447 29.0735 138.057C30.7416 138.526 32.4689 138.75 34.2014 138.723L33.269 139.356C34.4553 139.924 35.4758 140.788 36.2325 141.864C36.8741 142.868 37.2959 143.996 37.47 145.175C37.644 146.353 37.5666 147.555 37.2426 148.701L40.1949 142.519C40.3069 142.763 40.389 143.021 40.4392 143.285C40.5117 143.681 40.5117 144.087 40.4392 144.484C40.8071 143.971 41.0618 143.387 41.1862 142.769C41.3106 142.151 41.3019 141.513 41.1607 140.899C41.0123 140.316 40.7362 139.774 40.3522 139.311C39.9683 138.848 39.4861 138.477 38.9408 138.224C38.0418 137.824 36.8319 137.891 34.4233 137.791C33.9749 137.802 33.5302 137.707 33.1252 137.515C32.7202 137.322 32.3664 137.036 32.0925 136.681C28.7627 132.996 23.6682 132.696 20.3051 135.87C19.9383 136.291 19.6217 136.753 19.3617 137.247Z" fill="#ED1C24"/>
<path d="M11.3039 153C11.5919 153.889 12.0996 154.69 12.7801 155.331C12.9749 155.522 13.1826 155.7 13.4017 155.863L13.6236 156.03L14.1453 156.418C14.334 156.563 14.5338 156.707 14.7336 156.874C14.4339 155.52 14.2231 154.532 13.9567 153.377C14.7814 154.961 16.0155 156.295 17.5306 157.24C17.1599 156.914 16.8742 156.502 16.6982 156.041C16.5604 155.657 16.4963 155.25 16.5094 154.842C17.3329 155.628 18.2633 156.293 19.2731 156.818C21.1069 157.828 23.2091 158.243 25.289 158.006C27.178 157.756 28.9607 156.988 30.4391 155.786L32.8809 153.866C32.0484 154.021 24.945 155.286 19.3731 153.444C16.3652 152.434 14.3118 151.679 13.2352 150.025C12.9577 149.581 12.6136 148.915 12.1253 148.915C11.6369 148.915 11.1929 150.125 11.0153 150.78C10.9203 151.533 11.0197 152.297 11.3039 153Z" fill="#ED1C24"/>
<path d="M14.6675 146.738C15.2003 148.691 17.7421 150.178 20.9609 150.589C18.9075 149.313 16.1327 148.558 16.5212 145.45C16.7209 143.53 18.2415 142.32 20.2283 141.199C19.907 141.54 19.6546 141.939 19.4847 142.376C19.405 142.558 19.3418 142.748 19.296 142.942C20.4082 141.66 21.9776 140.863 23.6692 140.722C24.5952 140.672 25.5195 140.848 26.3624 141.235C27.2054 141.622 27.9418 142.208 28.5084 142.942C28.6971 143.164 28.8969 143.375 29.2188 143.73C29.3948 143.217 29.4299 142.666 29.3206 142.135C29.2112 141.604 28.9614 141.112 28.5972 140.711C28.0867 140.072 27.4352 139.56 26.6938 139.216C25.9524 138.871 25.1413 138.703 24.324 138.724C21.5435 138.706 18.8549 139.718 16.7764 141.565C15.5975 142.435 14.8018 143.728 14.5566 145.173C14.5116 145.697 14.549 146.225 14.6675 146.738Z" fill="#ED1C24"/>
<path d="M33.1892 147.28C33.1892 147.613 33.1115 147.957 33.0671 148.29C33.6872 147.727 34.1111 146.981 34.2769 146.159C34.3842 145.44 34.3157 144.705 34.0771 144.017C33.8774 143.385 33.1891 142.907 32.4788 142.419C32.1014 146.382 29.4043 148.646 26.6739 151.198C29.8039 151.254 31.6685 149.811 33.1892 147.28Z" fill="#ED1C24"/>
<path d="M6.35016 153.51C6.17258 152.233 6.00612 151.012 5.82853 149.791C5.94064 150.319 6.15983 150.817 6.47238 151.256C6.68933 151.578 6.95958 151.859 7.27149 152.089C7.52678 151.212 7.77087 150.324 8.01506 149.447C8.10385 149.17 8.20376 148.881 8.30365 148.593C8.71635 148.075 9.08749 147.526 9.41358 146.95C9.70281 146.246 9.8463 145.491 9.83536 144.73C7.5378 145.218 5.65098 146.029 4.89623 148.304C4.58241 149.217 4.55337 150.204 4.81304 151.133C5.07271 152.063 5.60875 152.892 6.35016 153.51Z" fill="#ED1C24"/>
<path d="M18.9532 146.838C20.3406 148.17 24.5027 148.814 26.0566 146.949C23.5149 146.327 20.5071 146.949 18.7756 144.119C18.605 144.307 18.474 144.528 18.3904 144.768C18.3068 145.008 18.2723 145.262 18.2889 145.516C18.3055 145.77 18.3727 146.017 18.4869 146.244C18.601 146.472 18.7596 146.674 18.9532 146.838Z" fill="#ED1C24"/>
<path d="M12.066 143.987C12.4409 142.654 13.0964 141.417 13.9884 140.359C14.8805 139.3 15.9885 138.444 17.2383 137.849C13.6865 137.849 10.6786 141.656 12.066 143.987Z" fill="#ED1C24"/>
<path d="M43.3335 166.586C44.6301 165.686 45.6428 164.434 46.2526 162.979C46.8018 161.661 46.997 160.222 46.8187 158.805C45.8637 159.487 45.2047 160.507 44.9762 161.657C44.843 162.335 44.6543 162.768 44.6432 162.89C44.279 164.146 43.8418 165.38 43.3335 166.586Z" fill="#ED1C24"/>
<path d="M12.1261 167.863C12.3581 168.971 12.9235 169.982 13.7465 170.76C14.5225 171.499 15.4993 171.993 16.5547 172.18L12.1261 167.863Z" fill="#ED1C24"/>
<path d="M21.0275 143.765C21.8749 143.34 22.8253 143.163 23.769 143.254C24.9895 143.397 26.1172 143.976 26.9434 144.886C26.7268 144.123 26.2623 143.453 25.6233 142.983C24.9842 142.513 24.2069 142.268 23.4137 142.289C22.9348 142.354 22.4749 142.519 22.0638 142.773C21.6528 143.028 21.2997 143.365 21.0275 143.765Z" fill="#ED1C24"/>
<path d="M15.0127 187.101C15.3235 187.844 16.2669 188.066 17.066 188.089C18.6484 188.141 20.2213 187.826 21.6612 187.167C22.4106 186.802 23.1306 186.379 23.8145 185.902C25.0103 185.134 26.0746 184.178 26.9667 183.072C27.7436 182.05 28.7092 180.286 28.0766 179.032C27.554 177.665 26.5129 176.56 25.1797 175.957C24.7192 175.818 24.24 175.751 23.7589 175.757C23.382 175.713 23.0001 175.752 22.6397 175.871C22.2793 175.99 21.9491 176.186 21.6723 176.445C21.317 177.043 21.1724 177.743 21.2616 178.432C21.2771 179.644 21.158 180.854 20.9065 182.039C20.8339 182.532 20.66 183.005 20.3958 183.427C20.023 183.874 19.5571 184.233 19.0306 184.481C17.7431 185.192 16.4445 185.891 15.1459 186.59C15.0642 186.619 14.994 186.673 14.946 186.746C14.9255 186.805 14.9208 186.87 14.9325 186.932C14.9442 186.994 14.9718 187.052 15.0127 187.101Z" fill="#ED1C24"/>
<path d="M30.7718 176.124C31.3085 178.184 31.9759 180.208 32.7697 182.184L33.1359 183.072L33.2913 183.416C33.6576 184.271 34.1461 185.336 34.7565 186.524C34.8342 186.679 34.923 186.846 35.0007 187.023C35.0784 187.201 35.1782 187.345 35.267 187.512C35.5778 188.067 35.3559 187.711 35.711 188.311C36.4158 187.489 37.2568 186.794 38.1973 186.257C37.9133 185.802 37.654 185.331 37.4204 184.848C37.2872 184.604 37.1761 184.37 37.0651 184.148C36.6322 183.327 36.2549 182.528 35.9552 181.74C35.7998 181.407 35.6666 181.063 35.5334 180.73C35.4916 180.64 35.4546 180.547 35.4224 180.453C35.3004 180.153 35.1893 179.875 35.0894 179.598C34.8008 178.81 34.5456 178.055 34.3347 177.378C34.2348 177.078 34.1572 176.79 34.0795 176.512C34.0018 176.235 33.9129 175.913 33.8352 175.635L30.7718 176.124Z" fill="#ED1C24"/>
<path d="M37.216 176.639C37.3403 177.303 37.5848 177.938 37.9375 178.515C38.4568 179.187 39.1466 179.708 39.9353 180.024L40.3238 180.202C43.7211 181.598 47.5076 181.724 50.9902 180.557C50.0579 180.279 49.1367 180.013 48.2154 179.702C47.2193 179.396 46.276 178.94 45.4184 178.348C44.7597 177.836 44.1961 177.213 43.7535 176.506C43.3828 175.951 43.0562 175.368 42.7767 174.763C42.5437 174.297 42.355 173.309 41.8111 173.165C41.4137 173.182 41.0192 173.241 40.6345 173.342C40.246 173.342 39.8576 173.342 39.5246 173.342C39.0921 173.332 38.6638 173.428 38.2769 173.622C37.89 173.815 37.5562 174.1 37.3047 174.452C36.9973 175.143 36.9655 175.925 37.216 176.639Z" fill="#ED1C24"/>
<path d="M84.9492 147.149C84.9492 147.226 84.9492 147.315 84.9492 147.404L85.1491 148.07C91.8086 146.183 98.8788 144.973 105.194 142.243C108.924 140.633 112.309 138.524 116.072 136.959C118.97 135.756 121.998 134.893 125.095 134.384C125.095 134.118 125.095 133.851 125.173 133.596C125.173 133.063 125.306 132.542 125.395 132.031C125.517 131.31 125.672 130.6 125.85 129.9C125.928 129.567 126.028 129.234 126.128 128.912C126.128 128.757 126.216 128.591 126.272 128.435L126.338 128.213L126.438 127.947C126.557 127.577 126.69 127.207 126.838 126.837H118.358C116.804 127.314 115.25 127.803 113.719 128.302C109.893 129.59 106.153 131.029 102.497 132.62V133.063L103.374 132.953C104.195 132.853 105.017 132.731 105.838 132.608L106.271 132.553L107.159 132.42C108.358 132.242 109.567 132.031 110.777 131.809H110.944C111.259 131.75 111.578 131.713 111.898 131.698H112.009L112.265 131.854C112.334 131.885 112.401 131.922 112.464 131.965C111.954 132.264 111.465 132.564 110.988 132.875C110.043 133.513 109.04 134.059 107.991 134.506C104.428 135.883 100.843 137.37 97.3361 138.946C96.6812 139.423 96.0152 139.912 95.3492 140.378L93.4624 141.699L93.0518 141.976C92.6189 142.265 92.1637 142.542 91.7086 142.798C91.2536 143.053 90.9206 143.231 90.51 143.441C89.6331 143.885 88.734 144.285 87.8239 144.674L86.0036 145.428C85.0824 145.917 84.8049 146.405 84.9492 147.149Z" fill="#D89568"/>
<path d="M48.1263 28.847C48.315 29.6462 48.5481 30.5009 48.8367 31.3888C49.1253 32.2767 49.4582 33.2089 49.7912 34.0192C51.3715 21.7801 55.8961 10.1069 62.9772 0C63.273 4.6771 65.2987 9.07661 68.66 12.3423C71.4936 14.9954 75.0886 16.6921 78.9379 17.1928C78.0156 15.1829 77.5315 12.9998 77.5173 10.7885C77.5074 8.49119 77.9958 6.21909 78.9491 4.1289C80.5622 7.00008 82.7754 9.48986 85.4378 11.4283C88.1002 13.3666 91.1492 14.7082 94.3771 15.3615C93.6041 13.571 93.0704 11.6863 92.7898 9.75631C92.6224 8.58388 92.552 7.39972 92.579 6.21571C95.3404 8.36553 98.3159 10.2252 101.458 11.7653C105.88 13.7873 110.49 15.3674 115.222 16.4825C120.616 17.9033 122.114 17.8476 125.211 19.4015C127.826 20.7455 130.188 22.5331 132.192 24.6848C132.478 22.6374 133.011 20.6324 133.78 18.7135C134.905 15.8702 136.512 13.242 138.53 10.944C137.598 23.7415 140.406 29.169 143.258 31.7329C143.991 32.3878 146.588 34.4743 150.173 37.9373C153.758 41.4002 154.613 42.5658 155.135 43.3872C156.767 46.4012 157.375 49.8645 156.866 53.2543C158.415 52.192 160.187 51.4987 162.045 51.2274C163.904 50.9561 165.8 51.1142 167.588 51.6894C165.17 52.8287 163.007 54.4445 161.228 56.44C160.197 57.5975 159.31 58.8758 158.586 60.2469C161.724 68.0265 162.296 76.6049 160.218 84.732C158.679 89.7697 156.205 94.4726 152.926 98.595C142.77 110.993 106.542 124.989 59.9804 104.7C54.4308 102.291 54.0867 90.5702 56.3732 87.7843C57.1039 86.9124 57.9695 86.1629 58.937 85.5645C58.937 85.176 59.0148 84.7763 59.0592 84.3768C59.2368 82.5454 59.3366 80.6807 59.3588 78.8271C58.3681 77.4281 57.5063 75.9421 56.7838 74.3874C56.1474 72.9695 55.6241 71.5036 55.2188 70.0033C54.3624 66.1514 54.4194 62.1526 55.3853 58.3268C51.0053 55.8732 47.6442 51.9376 45.9065 47.2275C42.6322 37.9041 47.4826 29.957 48.1263 28.847Z" fill="black"/>
<path d="M49.03 46.1374C50.8521 50.7556 54.0386 54.7087 58.1647 57.4697C57.3678 60.97 57.3525 64.603 58.1199 68.1099C58.8872 71.6169 60.4184 74.9116 62.6044 77.7592C62.6044 79.979 62.5267 82.1989 62.2936 84.7074C62.1826 85.7285 62.0717 86.7385 61.9274 87.7041C60.7389 88.1804 59.6866 88.9429 58.864 89.924C56.1002 93.2537 56.5331 99.2028 59.9739 104.73C59.9587 107.432 60.3058 110.124 61.006 112.733C61.1281 113.188 61.2613 113.632 61.3945 114.054C61.7521 115.187 62.1745 116.299 62.6598 117.384C65.4336 122.366 68.6152 127.111 72.172 131.568C72.4828 131.968 72.8046 132.357 73.1265 132.678C73.4484 133 74.0477 133.722 74.5028 134.21C76.5882 136.399 78.8652 138.398 81.3067 140.182C81.3067 140.37 81.3067 140.614 81.3067 140.836C82.3357 141.092 83.3447 141.422 84.3256 141.824C81.4953 140.537 85.8906 141.624 87.2114 141.547C88.8701 141.437 90.5224 141.245 92.1618 140.97C93.2717 140.792 94.3816 140.626 95.3251 140.459C99.121 139.837 101.396 139.349 102.906 139.005C104.361 138.63 105.791 138.166 107.19 137.618C111.341 136.275 110.398 136.197 119.277 132.811C121.361 132.135 123.378 131.27 125.304 130.226L125.859 129.892C126.99 129.214 128.161 128.606 129.367 128.072L130.11 127.75C130.116 127.699 130.116 127.647 130.11 127.595L137.425 119.67H137.558C142.927 117.996 147.463 114.351 150.255 109.47C153.585 103.92 154.04 99.7912 153.94 97.3826C153.913 96.5944 153.813 95.8103 153.641 95.0406L153.441 94.0529C156.094 90.0016 163.23 77.9256 159.435 65.1947C158.955 63.5829 158.319 62.0217 157.536 60.5331C158.596 58.1205 160.272 56.0301 162.398 54.4729C165.361 52.3197 166.449 52.0864 166.449 52.0864C164.582 51.7835 162.685 51.709 160.8 51.8645C159.345 52.4088 158.03 53.2694 156.948 54.384C156.948 54.384 156.948 54.0068 156.859 53.3741C156.582 50.9989 155.561 44.9828 152.009 42.0637C147.8 38.8311 144.164 34.914 141.254 30.4762C138.668 26.2473 137.125 16.6021 137.125 16.6021C137.125 16.6021 134.539 21.2194 134.095 23.861C133.841 25.2253 133.674 26.6044 133.595 27.9899C131.171 24.4981 127.486 22.0829 123.317 21.2526C116.081 19.6432 114.627 19.7877 114.627 19.7877C114.627 19.7877 106.491 16.3579 101.796 14.1269C99.162 12.9322 96.7403 11.3163 94.6258 9.34308C94.6258 9.34308 95.9577 14.8929 96.8457 16.2026L97.7003 17.5456C97.7003 17.5456 90.6079 16.1359 86.6011 13.8606C84.4069 12.75 82.5055 11.1377 81.0514 9.15448C80.8013 11.3178 80.8761 13.5065 81.2733 15.6477C81.9393 18.3337 81.9837 18.5666 81.9837 18.5666C81.9837 18.5666 73.5815 18.7886 68.3649 14.1269C65.277 11.4421 63.088 7.87382 62.0938 3.90454C62.0938 3.90454 56.7218 14.4267 54.9348 18.9775C53.1478 23.5282 51.2054 28.5781 51.3053 32.9068C51.2671 34.7994 51.4383 36.6904 51.8158 38.5453C50.7871 37.9004 49.9212 37.0268 49.2853 35.9925C48.6831 35.1838 48.1973 34.2947 47.8423 33.351C47.0903 37.6427 47.5005 42.0575 49.03 46.1374Z" fill="black"/>
<path d="M62.3425 105.967C62.3556 107.532 62.508 109.092 62.7976 110.629C63.1159 112.267 63.5954 113.869 64.2293 115.413C64.712 116.535 65.2797 117.618 65.9276 118.654C67.5866 121.335 69.3834 123.928 71.3107 126.423C72.845 128.589 74.4899 130.675 76.2388 132.672C77.4647 134.149 78.8577 135.479 80.3899 136.635C84.308 139.31 88.8365 139.043 92.3106 138.788C93.7313 138.688 97.7602 138.299 105.974 134.981C112.866 132.195 116.74 130.63 121.191 127.211C125.964 123.488 129.92 118.822 132.812 113.504C132.658 113.888 132.584 114.301 132.595 114.715C132.607 115.129 132.703 115.537 132.878 115.912C133.733 117.344 136.075 117.189 136.941 117.133C139.253 116.886 141.417 115.874 143.09 114.258C146.031 111.695 152.535 106.023 151.969 98.1756C151.88 96.8992 151.592 92.6925 149.017 91.516C146.442 90.3395 142.357 92.7037 140.326 94.9014C138.772 96.5774 138.706 97.7207 136.297 100.54C135.35 101.642 134.326 102.677 133.234 103.636C133.297 100.769 133.586 97.9116 134.099 95.09C134.532 92.7147 134.621 92.2929 134.621 92.2929C135.442 88.1307 135.731 87.3315 135.476 85.8775C135.145 84.851 134.733 83.8526 134.244 82.8919C133.511 81.2936 132.568 79.4624 132.568 79.4624C133.245 72.8028 133.678 69.0067 134.055 67.4306C134.174 66.9179 134.207 66.3894 134.155 65.8657C134.024 64.7539 133.564 63.7062 132.834 62.8576C132.184 62.1214 131.401 61.5152 130.525 61.0708C129.338 60.3493 128.861 60.2715 127.451 59.5389C126.594 59.0878 125.764 58.5877 124.965 58.0407C125.854 58.3422 126.789 58.4885 127.728 58.4734C128.525 58.4697 129.314 58.3232 130.059 58.0407C127.054 57.6785 124.113 56.8976 121.324 55.7208C118.983 54.6926 116.888 53.1794 115.175 51.2811C116.413 51.5148 117.682 51.5336 118.927 51.3367C119.095 51.3103 119.262 51.2731 119.426 51.2256C119.98 51.0886 120.506 50.8558 120.98 50.5376C121.202 50.3822 121.946 49.8383 122.756 49.1724C123.344 48.684 123.866 48.2622 124.132 47.9736C121.821 47.404 119.453 47.1023 117.073 47.0745C116.363 47.0745 115.519 47.0745 114.487 47.1522C111.712 47.3853 109.17 48.0735 102.589 49.3721C92.1996 51.4144 90.6457 51.2368 89.2694 50.7706C87.8341 50.2067 86.2888 49.9788 84.7519 50.1045C83.1823 50.3505 81.6748 50.8972 80.3122 51.7142C77.5083 52.9063 74.3958 53.1669 71.4328 52.4577L70.7003 54.2668C70.2563 55.3767 69.8123 56.4867 69.3794 57.6521C68.6691 59.4724 67.9809 61.2928 67.3039 63.0909C66.7045 64.7225 66.1052 66.3429 65.5391 67.9523C66.0681 67.4201 66.5647 66.8567 67.0264 66.2652C67.6207 65.3623 68.2772 64.5018 68.991 63.6901C69.7085 63.0833 70.538 62.6232 71.4328 62.336C73.9583 61.301 76.6617 60.7695 79.391 60.7711C79.9875 60.7162 80.5885 60.8037 81.1446 61.0263C82.0482 61.4572 82.7796 62.1809 83.2202 63.0798C84.3961 65.2584 85.2771 67.5837 85.8397 69.9946C82.9478 68.8909 79.8883 68.2902 76.7938 68.2186C75.3687 68.0999 73.9337 68.2086 72.5427 68.5406C70.5781 69.0622 70.1009 69.7282 65.972 72.7361C65.6668 72.9276 65.4359 73.2173 65.3172 73.5575C65.2481 73.8231 65.2481 74.102 65.3172 74.3677C65.5503 75.4776 64.8176 84.2017 64.2849 88.7968C63.7965 93.0478 62.9974 97.987 62.4868 102.726C62.3757 103.803 62.3275 104.885 62.3425 105.967Z" fill="#FBAF7C"/>
<path d="M100.623 63.4596C100.285 64.7999 100.095 66.1733 100.057 67.5551C99.9754 67.7573 99.9595 67.98 100.011 68.1917C100.063 68.4033 100.18 68.5935 100.345 68.7355C100.51 68.8775 100.716 68.9642 100.933 68.9835C101.15 69.0027 101.367 68.9536 101.555 68.8428C106.444 67.8892 111.46 67.7878 116.384 68.5431C117.839 68.7265 119.265 69.0997 120.624 69.653C122.486 70.5851 124.196 71.7938 125.696 73.2381C126.934 74.2502 128.085 75.364 129.137 76.5679C127.717 73.2207 126.074 69.9725 124.22 66.8449C123.785 65.8785 123.121 65.0327 122.286 64.3809C121.45 63.7291 120.468 63.2908 119.425 63.1043C118.215 62.7269 116.994 62.3717 115.773 61.9944C113.644 61.3704 111.484 60.8556 109.302 60.4517C108.192 60.2741 107.16 60.13 106.095 60.0412C105.418 59.9501 104.731 59.9762 104.063 60.1187C103.734 60.1969 103.426 60.3497 103.165 60.5652C102.903 60.7807 102.694 61.0532 102.554 61.3619C102.698 60.7667 103.024 60.2311 103.486 59.8301C102.754 59.6747 102.199 60.5072 101.81 61.0067C101.263 61.7417 100.86 62.5741 100.623 63.4596Z" fill="black"/>
<path d="M99.9884 62.1402C99.7791 62.7037 99.6304 63.288 99.5445 63.8829C99.9901 62.6548 100.668 61.5242 101.542 60.5531C101.687 60.3866 101.842 60.2422 101.986 60.0979C101.894 60.1075 101.801 60.1075 101.709 60.0979C101.605 60.1071 101.501 60.1071 101.398 60.0979C101.143 60.0424 100.455 60.6418 99.9884 62.1402Z" fill="black"/>
<path d="M84.2927 62.5943C84.7121 63.1927 85.0621 63.8369 85.3359 64.5145C85.3174 64.0923 85.2617 63.6728 85.1694 63.2604C84.9962 62.5871 84.7231 61.9437 84.3592 61.3513C84.2689 61.1801 84.1246 61.0434 83.9485 60.9628H83.782C83.6377 60.9628 83.2271 60.9074 82.6056 60.8186C82.8417 60.9818 83.0644 61.1636 83.2715 61.3625C83.6634 61.7275 84.0067 62.1414 84.2927 62.5943Z" fill="black"/>
<path d="M102.697 86.6039L102.764 86.6705C103.304 87.251 103.894 87.7821 104.529 88.2576C106.203 89.4026 108.146 90.0948 110.167 90.2667C112.303 90.6361 114.492 90.5755 116.605 90.0889C117.569 89.7456 118.501 89.3186 119.391 88.8126C120.169 88.2079 121.015 87.6938 121.91 87.2808C118.153 88.1395 114.267 88.2864 110.456 87.7138C108.531 87.4295 106.647 86.9228 104.839 86.2042C104.228 85.9855 103.706 85.5721 103.352 85.0276C103.052 84.6391 101.587 83.4183 101.621 82.9744C101.481 83.8048 101.557 84.6572 101.843 85.4495C102.064 85.8774 102.353 86.2671 102.697 86.6039Z" fill="#D89568"/>
<path d="M82.8845 84.8961C82.6404 85.0403 82.3407 85.1181 82.0743 85.2402C81.8079 85.3623 81.3861 85.562 81.0309 85.6952C79.6223 86.225 78.1595 86.5972 76.669 86.8051C74.3695 87.2551 71.998 87.1792 69.7319 86.5832C72.8387 86.383 75.9154 85.8548 78.9109 85.0072C79.9341 84.6074 80.9037 84.0815 81.7968 83.442C82.2519 83.1645 82.7513 82.9759 83.2063 82.7095C83.4616 82.5652 83.6947 82.4097 83.9389 82.2543C84.1831 82.0989 84.5605 81.8881 84.5605 81.7993C84.5571 82.3634 84.4202 82.9187 84.161 83.4198C83.8778 83.9844 83.4532 84.4662 82.9288 84.8183L82.8845 84.8961Z" fill="#D89568"/>
<path d="M84.2864 89.8225L83.5093 90.0113C82.3684 90.2913 81.3059 90.8263 80.4016 91.5762C79.4396 92.4498 78.8019 93.6235 78.5924 94.906C78.4528 96.4337 78.8449 97.9626 79.7023 99.2346C80.1901 100.133 80.8112 100.953 81.5447 101.666C81.0211 100.843 80.5824 99.9686 80.2351 99.0571C79.6468 97.5032 79.2139 96.3488 79.5912 95.0724C79.8859 94.1658 80.4761 93.3842 81.2673 92.8525C81.2404 93.3405 81.2404 93.8297 81.2673 94.3177C81.3631 95.4294 81.5942 96.5251 81.9554 97.5808C81.7811 97.4429 81.5813 97.341 81.3672 97.2811C81.1976 97.2627 81.0263 97.2627 80.8566 97.2811C81.2236 98.1733 81.7009 99.016 82.2773 99.7896C82.9166 100.624 83.6629 101.37 84.4972 102.009C83.1986 98.9238 82.3439 96.5376 81.9776 95.4165C81.6842 94.5642 81.6842 93.6384 81.9776 92.7861C82.3551 92.2796 82.872 91.8939 83.465 91.6762C84.1459 91.2545 84.8983 90.9611 85.6849 90.8104C86.0528 90.7551 86.4269 90.7551 86.7948 90.8104C87.652 90.9941 88.411 91.4882 88.9258 92.1979C88.6758 91.5644 88.2714 91.0036 87.7493 90.5663C87.0034 89.9728 86.0716 89.6622 85.1188 89.6894C85.4054 89.2945 85.6685 88.883 85.9068 88.4573C86.6613 87.1252 87.2149 85.6892 87.5495 84.1953C86.9723 85.3718 86.4396 86.3042 86.0622 86.9479C86.1288 86.9146 85.7959 87.4916 84.2864 89.8225Z" fill="black"/>
<path d="M88.0659 99.3838L89.3423 100.871C89.5087 101.071 89.6988 101.25 89.9083 101.404C90.4966 101.781 91.2958 101.659 91.9062 101.992C91.5275 101.164 91.0858 100.366 90.5854 99.6058C90.4436 99.3574 90.2551 99.1388 90.0304 98.9619C89.7043 98.7434 89.3092 98.6526 88.9205 98.7067C88.6192 98.732 88.3236 98.803 88.0437 98.9175C87.7107 99.0285 87.8884 99.1729 88.0659 99.3838Z" fill="black"/>
<path d="M90.0165 94.5856C90.5382 95.0185 90.9822 95.3513 91.293 95.5733C90.0874 94.0273 88.576 92.7465 86.8533 91.8108C86.2086 91.5229 85.5236 91.3357 84.8221 91.2558C84.3062 91.2209 83.7879 91.2508 83.2793 91.3447C83.7717 91.3996 84.2608 91.4811 84.7444 91.5889C85.2902 91.7003 85.8252 91.8599 86.3427 92.0661C87.1433 92.3906 87.8914 92.8319 88.5626 93.3757C89.0954 93.7864 89.1175 93.8642 90.0165 94.5856Z" fill="black"/>
<path d="M77.0292 114.201C77.5821 115.879 78.327 117.488 79.2491 118.995C81.025 121.793 85.2649 122.203 87.174 122.392C92.0564 122.82 96.9107 121.305 100.682 118.174C100.826 118.052 102.902 116.121 106.886 112.28L107.996 111.17C108.162 111.339 108.318 111.516 108.462 111.703C108.63 111.923 108.779 112.157 108.906 112.403C108.952 111.824 108.864 111.244 108.651 110.704C108.311 110.021 107.817 109.426 107.209 108.966C106.6 108.506 105.893 108.193 105.144 108.052C105.685 108.481 106.151 108.999 106.52 109.583C106.653 109.786 106.771 109.997 106.875 110.216C106.209 110.427 105.665 110.582 105.266 110.693C105.055 110.763 104.84 110.819 104.622 110.86C104.15 110.95 103.669 110.976 103.19 110.937C102.657 110.937 102.08 110.937 101.581 110.871C98.8282 110.582 101.237 110.949 96.7971 110.438C94.2998 110.149 93.545 110.027 91.8912 109.827C88.3505 109.406 86.5746 109.195 84.9763 109.173C83.378 109.15 81.5022 109.295 77.5508 109.606L74.4209 109.861C75.0114 110.449 75.526 111.109 75.9526 111.825C76.4117 112.568 76.7736 113.366 77.0292 114.201Z" fill="black"/>
<path d="M139.801 103.085C139.828 103.273 139.828 103.464 139.801 103.651C139.715 103.961 139.546 104.241 139.312 104.461C138.746 105.083 138.102 105.638 137.592 106.315C137.224 106.805 136.925 107.342 136.704 107.913C136.507 108.401 136.402 108.92 136.393 109.445C136.39 109.976 136.557 110.493 136.871 110.921C137.19 111.262 137.575 111.536 138.002 111.727C138.429 111.917 138.889 112.021 139.357 112.031C139.725 112.082 140.098 112.082 140.467 112.031C140.736 111.97 141 111.884 141.255 111.776C141.858 111.557 142.438 111.278 142.986 110.944C143.427 110.654 143.826 110.307 144.174 109.911C142.619 110.504 140.94 110.699 139.29 110.477C138.993 110.449 138.703 110.366 138.435 110.233C138.301 110.165 138.186 110.064 138.101 109.94C138.015 109.816 137.963 109.673 137.947 109.523C137.947 109.101 138.269 108.768 138.58 108.48C139.213 107.951 139.74 107.307 140.134 106.582C140.331 106.216 140.444 105.811 140.463 105.395C140.482 104.98 140.408 104.566 140.245 104.184C140.833 104.146 141.418 104.302 141.91 104.628C141.508 104.26 141.005 104.021 140.467 103.94C140.419 103.949 140.37 103.949 140.322 103.94C140.275 103.891 140.244 103.829 140.234 103.762C140.089 103.109 139.858 102.478 139.545 101.887C139.679 102.242 139.745 102.663 139.801 103.085Z" fill="black"/>
<path d="M143.624 103.322C143.335 103.055 141.537 101.357 141.404 99.659C141.365 99.2819 141.418 98.9009 141.559 98.5491C141.822 97.9935 142.269 97.5461 142.825 97.2836C147.153 94.8418 147.886 94.753 148.507 95.0638C148.862 95.2347 149.191 95.4553 149.484 95.7187C149.822 96.042 150.107 96.4166 150.328 96.8287C150.753 98.0279 150.753 99.3367 150.328 100.536C149.993 101.687 149.492 102.782 148.84 103.788C148.521 104.332 148.173 104.858 147.797 105.364C147.797 105.364 148.274 104.454 148.907 103.144C149.378 102.258 149.704 101.303 149.873 100.314C149.873 100.136 150.05 97.6834 148.63 96.9064C148.372 96.7696 148.088 96.6901 147.797 96.6734C148.201 97.5665 148.325 98.5608 148.152 99.5257C148.105 98.578 147.768 97.6678 147.187 96.9175L144.356 98.6158C144.356 99.2262 144.223 99.87 144.134 100.525C144.001 101.535 143.824 102.456 143.624 103.322Z" fill="black"/>
<path d="M60.9624 91.187C60.5257 91.7105 60.1531 92.2844 59.8525 92.8963C59.6825 93.168 59.5447 93.4586 59.4418 93.7621C59.3712 94.0717 59.334 94.3881 59.3309 94.7057C59.2976 95.2861 59.2976 95.8677 59.3309 96.4481C59.478 97.6391 59.7879 98.8045 60.2521 99.9112C60.4517 100.508 60.7238 101.079 61.0623 101.609C61.0623 100.178 61.0623 98.7568 61.2177 97.3361C61.2364 96.9456 61.2771 96.5564 61.3398 96.1706C61.4064 95.7599 61.5062 95.3605 61.6061 94.9498L62.5163 91.2981C62.6228 91.0074 62.6972 90.7059 62.7383 90.399C62.7383 90.0882 62.5273 90.2102 62.2721 90.3101C61.7702 90.4906 61.3205 90.7918 60.9624 91.187Z" fill="#FBAF7C"/>
<path d="M54.7381 50.7343C51.1086 47.127 49.8656 41.4221 49.8656 41.4221C50.4961 42.7792 51.3883 43.9982 52.4911 45.0096C53.594 46.021 54.8856 46.8046 56.292 47.3156C55.5617 46.7201 54.9354 46.0075 54.4385 45.2068C53.9248 44.3739 53.5499 43.4631 53.3286 42.5098C53.893 43.0446 54.4858 43.5483 55.1045 44.0191C56.3935 44.9754 57.7998 45.7626 59.2889 46.3612C56.2522 43.4882 54.142 39.7741 53.2286 35.6947C52.7025 33.2214 52.6611 30.6695 53.1065 28.1804C53.5781 25.7319 54.5368 23.4031 55.9258 21.3323C55.3747 24.2684 55.4341 27.2866 56.1006 30.1987C56.767 33.1108 58.0262 35.8545 59.7994 38.2587C59.2681 37.1807 58.8764 36.0393 58.634 34.8622C59.832 36.4413 61.2441 37.8459 62.8295 39.0356C62.2354 38.2023 61.7225 37.3141 61.2978 36.383C60.8483 35.3725 60.4989 34.3204 60.2545 33.2418C64.2907 40.3003 70.8246 45.5909 78.5684 48.0705C76.6768 48.2102 74.7749 48.083 72.9187 47.6931C71.6429 47.4182 70.3947 47.028 69.1894 46.5276C71.6493 48.7184 74.7797 50.0097 78.0688 50.1904C75.3245 50.8799 72.4597 50.9387 69.6895 50.3619C66.9193 49.7852 64.3159 48.5881 62.0748 46.8606C63.0519 48.7244 64.5027 50.2979 66.2814 51.4225C67.1641 51.9715 68.1159 52.4006 69.1117 52.6989C68.2746 52.8305 67.424 52.8529 66.5811 52.7655C66.2676 52.7371 65.9562 52.6888 65.6488 52.6211C65.4305 53.2138 65.045 53.7306 64.5389 54.1085C62.8629 55.2184 60.4543 54.1862 58.9892 53.5868C57.396 52.9293 55.9505 51.9594 54.7381 50.7343Z" fill="#211F1F"/>
<path d="M61.4661 9.4469C58.7233 16.3952 58.775 24.1351 61.6104 31.0461C66.8381 43.2553 78.8031 46.6627 80.579 47.14C87.0427 48.8056 93.877 48.2704 100.003 45.6193C95.2961 45.0918 90.7216 43.7274 86.495 41.5904C95.9183 44.1543 101.534 44.4652 104.997 44.1988C105.575 44.1988 107.706 43.9656 110.691 43.8213C114.21 43.6548 117.107 43.6439 119.027 43.655C118.716 43.4108 118.383 43.1553 118.017 42.9111C117.058 42.2576 116.026 41.7176 114.942 41.3018C116.756 41.5778 118.537 42.0351 120.259 42.667C121.25 43.0358 122.221 43.4583 123.167 43.9324C122.723 43.0112 122.224 42.0677 121.68 41.1021C119.954 38.0674 117.915 35.2214 115.597 32.611C119.815 35.0993 123.042 38.9699 124.732 43.5661C125.155 44.8045 125.445 46.0844 125.598 47.3842C126.381 46.9011 126.977 46.1651 127.285 45.2976C127.531 44.5827 127.566 43.8119 127.385 43.0778C127.686 43.3492 127.923 43.6841 128.078 44.0584C128.234 44.4328 128.304 44.8372 128.284 45.2421C128.243 45.5873 128.121 45.9179 127.929 46.2076C128.304 46.1345 128.675 46.0381 129.039 45.919C129.583 45.74 130.114 45.5213 130.626 45.2643C129.414 47.3524 127.72 49.1194 125.684 50.4172C123.649 51.715 121.331 52.5058 118.927 52.723C123.05 54.4817 127.574 55.0842 132.013 54.4656C134.471 54.0996 136.857 53.3506 139.083 52.2458C138.322 54.0127 137.131 55.5615 135.619 56.7516C134.107 57.9417 132.322 58.7353 130.426 59.0606C132.563 59.5975 134.811 59.4863 136.885 58.7411C138.958 57.996 140.763 56.6505 142.069 54.8762C141.556 56.2423 140.758 57.4835 139.727 58.5168C137.901 60.263 135.512 61.3016 132.99 61.4469C135.043 62.6716 137.415 63.2554 139.802 63.1229C142.189 62.9904 144.482 62.1478 146.387 60.7033C146.374 61.0493 146.318 61.3923 146.22 61.7243C145.901 62.7089 145.26 63.5575 144.4 64.1331C146.963 63.0239 149.065 61.0635 150.349 58.5834C151.05 57.096 151.428 55.477 151.459 53.8329C151.707 54.7206 151.775 55.6489 151.659 56.5633C151.534 57.5539 151.193 58.505 150.66 59.3492C151.55 58.5852 152.25 57.6235 152.702 56.5411C153.115 55.558 153.32 54.4995 153.302 53.4332C153.701 54.7598 153.925 56.1332 153.967 57.5179C154.02 59.0123 153.863 60.5067 153.501 61.9577C154.534 59.3271 155.721 54.7651 154.112 50.4031C153.236 48.35 152.118 46.4088 150.782 44.6204C149.819 43.2705 148.766 41.9874 147.63 40.7801L148.529 47.3397C147.184 43.4853 145.273 39.853 142.857 36.5624C141.181 34.3425 139.394 32.4334 137.94 28.9926C137.13 27.08 136.578 25.0683 136.297 23.0102C135.697 24.8678 135.456 26.8228 135.587 28.7706C135.733 30.8927 136.311 32.9625 137.285 34.853C135.562 32.4249 133.503 30.2538 131.17 28.4046C127.358 25.4065 122.919 23.3083 118.183 22.2666C120.563 23.4441 122.71 25.0422 124.521 26.9838C125.255 27.7811 125.93 28.6304 126.541 29.5253C122.898 26.9875 119.111 24.6641 115.198 22.5663C114.51 22.2 113.5 21.6671 112.112 21.0234C108.671 19.4029 106.94 18.9368 104.853 18.0377C102.384 16.9575 100.061 15.5703 97.9383 13.9088C98.8426 15.4523 99.964 16.8578 101.268 18.0822C103.063 19.764 105.166 21.0831 107.462 21.9669C106.474 21.6117 104.953 21.0901 103.022 20.5684C97.9384 19.181 95.4298 19.2143 92.0779 18.3485C88.7864 17.5173 85.6575 16.1402 82.8211 14.2749C83.6474 16.275 84.9733 18.0297 86.6718 19.3707C88.3704 20.7116 90.3846 21.5941 92.5219 21.9336C91.3453 21.9336 89.5806 21.7892 87.4495 21.5894C80.8677 20.9457 75.9395 20.4795 71.2778 18.2041C67.3174 16.1645 63.9409 13.151 61.4661 9.4469Z" fill="#211F1F"/>
<path d="M154.291 63.7768C155.232 60.8802 156.801 58.2272 158.887 56.0073C159.677 55.161 160.542 54.3882 161.473 53.6986C159.383 54.44 157.572 55.8075 156.287 57.6148C155.002 59.4221 154.305 61.5816 154.291 63.7991V63.7768Z" fill="#211F1F"/>
<path d="M154.79 61.8157C156.864 68.4266 157.01 75.4918 155.212 82.1829C154.454 84.8589 153.377 87.4338 152.004 89.8524C153.727 87.7566 155.133 85.4193 156.178 82.9154C157.623 79.2687 158.306 75.3648 158.186 71.4441C158.065 67.5233 157.144 63.6687 155.478 60.1174C155.245 60.6835 155.012 61.2496 154.79 61.8157Z" fill="#211F1F"/>
<path d="M80.4148 112.981C80.9112 113.324 81.4689 113.569 82.0576 113.702C83.001 113.923 83.9639 114.049 84.9323 114.08C86.7858 114.202 88.6394 114.279 90.4819 114.29C92.4029 114.356 94.3256 114.226 96.2203 113.902C98.0985 113.495 99.8712 112.701 101.426 111.571C100.127 111.66 98.8175 111.738 97.4634 111.782C91.2085 111.983 84.9482 111.611 78.761 110.672C79.0498 111.599 79.6297 112.409 80.4148 112.981Z" fill="white"/>
<path d="M100.48 117.624C100.168 118.049 99.7661 118.401 99.3035 118.656C98.7914 118.956 98.2527 119.209 97.6942 119.411C97.4944 119.499 97.2834 119.566 97.0836 119.644C94.0091 120.754 90.8237 121.952 87.5383 121.764C86.5617 121.686 85.593 121.53 84.6414 121.298C83.5861 121.114 82.5827 120.705 81.7001 120.099C81.5225 119.966 81.3117 119.799 81.1119 119.622C80.6468 119.268 80.3397 118.746 80.2572 118.167C80.2903 117.804 80.4212 117.456 80.6362 117.161C80.8512 116.866 81.1422 116.634 81.4781 116.491C82.3366 116.074 83.2673 115.825 84.2196 115.759H84.3085C85.1631 115.67 86.0288 115.603 86.8835 115.559H87.5827C90.0912 115.433 92.5996 115.389 95.1081 115.426C96.6965 115.36 98.2844 115.566 99.8031 116.036C100.203 116.181 100.624 116.414 100.713 116.824C100.742 117.111 100.659 117.398 100.48 117.624Z" fill="#E02A00"/>
<path d="M84.1992 115.744C83.8218 116.043 83.4445 116.365 83.0893 116.676C82.4608 117.134 81.9163 117.697 81.4799 118.341C81.2403 118.72 81.1098 119.158 81.1026 119.606C80.6375 119.253 80.3304 118.73 80.2479 118.152C80.281 117.788 80.4119 117.441 80.6269 117.145C80.8419 116.85 81.1329 116.619 81.4688 116.476C82.3239 116.06 83.2507 115.811 84.1992 115.744Z" fill="#AD1800"/>
<path d="M100.478 117.628C100.166 118.054 99.7639 118.406 99.3014 118.66C98.7892 118.961 98.2506 119.213 97.692 119.415C97.8402 119.246 97.967 119.06 98.0694 118.86C98.172 118.581 98.2095 118.281 98.1787 117.985C98.1479 117.689 98.0498 117.403 97.8919 117.151C97.3258 116.196 95.9383 116.041 94.4732 115.985C90.5774 115.719 87.8137 115.686 86.8813 115.541H87.5806C90.089 115.416 92.5975 115.371 95.1059 115.408C96.6943 115.342 98.2823 115.548 99.8009 116.019C100.2 116.163 100.622 116.396 100.711 116.807C100.728 116.952 100.717 117.099 100.677 117.24C100.637 117.381 100.569 117.513 100.478 117.628Z" fill="#AD1800"/>
<path d="M84.5946 82.1753C81.2826 84.218 77.5304 85.4395 73.6507 85.7381C72.921 85.8459 72.1765 85.7862 71.4734 85.5636C70.7702 85.341 70.1268 84.9614 69.5921 84.4534C69.0574 83.9454 68.6453 83.3225 68.3869 82.6316C68.1286 81.9408 68.0308 81.2002 68.101 80.466C68.101 80.466 69.9769 73.4512 74.2834 74.3169C76.3059 74.8138 78.3832 75.0526 80.4657 75.0274C80.4657 75.0274 83.1296 76.7032 83.5957 78.4125C84.0619 80.1218 85.1273 80.7879 84.5946 82.1753Z" fill="white"/>
<path d="M82.315 78.481C82.3927 81.0561 79.1739 82.9208 76.4657 82.9208C75.0544 82.9381 73.6796 82.4721 72.5698 81.6C72.1068 81.1928 71.7602 80.6699 71.5652 80.085C71.3702 79.5 71.3338 78.8738 71.4599 78.2702C71.7142 77.2282 72.3373 76.3134 73.2137 75.6951C74.4276 74.7792 75.9233 74.316 77.4424 74.3855C79.9287 74.5187 82.2373 76.3278 82.315 78.481Z" fill="black"/>
<path d="M72.1902 79.7419C72.3068 80.0952 72.4958 80.4201 72.7451 80.6963C73.5886 81.5288 74.6948 82.0428 75.8751 82.1503C77.0924 82.3151 78.3311 82.1061 79.4269 81.5509C80.1923 81.1455 80.7927 80.4862 81.125 79.6863L79.3158 78.998C79.155 79.3005 78.9318 79.5652 78.661 79.7749C78.0018 80.2074 77.2295 80.4354 76.4411 80.4299C75.7998 80.4828 75.1554 80.376 74.5654 80.1191C74.4006 80.0346 74.2445 79.9342 74.0992 79.8194C73.807 79.6157 73.5549 79.3599 73.3555 79.0647L72.1902 79.7419Z" fill="black"/>
<path d="M75.7744 72.4966C76.773 72.3706 77.7835 72.3706 78.7822 72.4966C80.2926 72.6402 81.7281 73.2228 82.9113 74.1726C83.6545 74.8036 84.1693 75.6617 84.3763 76.6144C84.205 76.3712 84.0158 76.1411 83.8102 75.9261C83.3335 75.4254 82.7967 74.9856 82.212 74.6165C83.7104 76.9807 84.9978 79.578 84.5982 82.1974C84.5145 81.6162 84.377 81.0439 84.1876 80.4881C83.7771 79.0892 83.0125 77.8198 81.9677 76.803C81.5275 76.3592 81.0222 75.9849 80.4693 75.6931C78.8133 74.9792 76.9682 74.8311 75.2194 75.2715L75.952 74.6943C74.7631 74.8604 73.6131 75.2362 72.5555 75.8042C71.6038 76.2871 70.7775 76.9847 70.1418 77.842C69.5061 78.6992 69.0786 79.6924 68.8929 80.7433C68.7169 81.3475 68.7 81.987 68.8439 82.5995C68.9878 83.2121 69.2877 83.7769 69.7142 84.2395C70.2686 84.6903 70.9004 85.0365 71.5788 85.2608C72.4056 85.5647 73.274 85.7406 74.1539 85.7824C72.5228 85.9832 70.8693 85.6811 69.4145 84.9167C66.7063 83.2518 67.0725 79.9443 67.9604 78.0574C68.714 76.6407 69.8735 75.4812 71.2902 74.7276H69.8252C71.6239 73.5632 73.6535 72.8021 75.7744 72.4966Z" fill="black"/>
<path d="M72.7392 76.7733C72.6048 77.0774 72.5934 77.4218 72.7072 77.7342C72.821 78.0466 73.0512 78.3028 73.3497 78.4493C73.8699 78.5943 74.4251 78.5447 74.9113 78.3097C75.3976 78.0748 75.7816 77.6706 75.9913 77.173C76.0576 76.8832 76.0206 76.5794 75.8869 76.314C75.7531 76.0485 75.531 75.8381 75.2587 75.7189C74.7813 75.5887 74.274 75.6216 73.8175 75.8127C73.361 76.0037 72.9815 76.3418 72.7392 76.7733Z" fill="#F4F4F4"/>
<path d="M79.1374 77.9761C79.3002 78.1562 79.5103 78.2869 79.7438 78.3536C79.9773 78.4203 80.2247 78.4205 80.4581 78.3536C80.6757 78.3156 80.8713 78.1977 81.0067 78.0233C81.1422 77.8488 81.2078 77.6302 81.1907 77.41C81.1196 77.1341 80.9451 76.8962 80.7033 76.7453C80.4616 76.5945 80.1711 76.5424 79.892 76.5998C79.1928 76.6997 78.76 77.4766 79.1374 77.9761Z" fill="#F4F4F4"/>
<path d="M115.209 86.7566C115.209 86.7566 105.22 86.7566 103.266 85.6467C101.313 84.5368 101.446 83.1716 101.446 83.1716C101.446 83.1716 101.946 76.9228 107.273 75.4688C110.942 74.6532 114.755 74.7601 118.373 75.7796L121.969 80.3746V83.7043L118.306 85.4026L115.209 86.7566Z" fill="white"/>
<path d="M116.85 80.224C116.345 81.5085 115.425 82.5869 114.236 83.2871C113.047 83.9873 111.658 84.2688 110.29 84.0865C107.093 83.7979 104.807 81.5226 105.162 79.1585C105.55 76.5835 108.903 75.2182 111.489 75.2071C112.89 75.1518 114.273 75.5403 115.44 76.317C116.045 76.7468 116.505 77.3513 116.757 78.0496C117.009 78.7479 117.041 79.5067 116.85 80.224Z" fill="black"/>
<path d="M108.364 76.6138C108.752 76.5307 109.153 76.5307 109.541 76.6138C109.888 76.6975 110.195 76.9021 110.406 77.191C110.795 77.8459 109.996 78.5449 109.862 78.667C109.48 78.9792 109.028 79.193 108.544 79.2897C108.06 79.3865 107.56 79.3632 107.088 79.222C106.946 79.1672 106.818 79.0841 106.71 78.9778C106.244 78.545 106.521 78.0344 106.866 77.5904C107.243 77.1078 107.77 76.7643 108.364 76.6138Z" fill="#F4F4F4"/>
<path d="M113.77 79.0539C114.06 79.2534 114.406 79.3546 114.758 79.3425C114.978 79.3342 115.19 79.2609 115.368 79.1316C115.45 79.0639 115.515 78.9791 115.56 78.8832C115.606 78.7872 115.629 78.6826 115.629 78.5767C115.629 78.4707 115.606 78.3661 115.56 78.2702C115.515 78.1743 115.45 78.0894 115.368 78.0217C115.178 77.8441 114.945 77.7195 114.692 77.661C114.438 77.6026 114.174 77.6122 113.926 77.6887C113.794 77.7401 113.679 77.8265 113.593 77.9385C113.506 78.0506 113.452 78.184 113.436 78.3244C113.42 78.4648 113.443 78.6069 113.502 78.7355C113.561 78.864 113.653 78.9742 113.77 79.0539Z" fill="#F4F4F4"/>
<path d="M102.711 79.8955C103.556 78.6752 104.656 77.6525 105.934 76.8976C107.212 76.1427 108.638 75.6735 110.115 75.5224C111.459 75.3531 112.822 75.4169 114.144 75.711C116.055 76.1543 117.763 77.225 118.994 78.7522C119.782 79.6957 121.38 81.5936 120.437 83.4916C119.838 84.5007 118.92 85.2817 117.829 85.7115C116.572 86.2497 115.222 86.54 113.855 86.5661C112.152 86.6752 110.442 86.6195 108.749 86.3998C107.34 86.2777 105.42 86.0778 103.2 85.7448C105.626 86.5628 108.148 87.0665 110.703 87.2433C113.028 87.5137 115.383 87.3555 117.651 86.777C119.182 86.3508 120.626 85.6556 121.913 84.7238L120.304 85.3562C120.949 85.0436 121.52 84.5972 121.98 84.0466C122.14 83.8374 122.281 83.6144 122.402 83.3805C122.729 82.6691 122.815 81.8701 122.646 81.1054C122.279 79.0742 119.926 77.2538 119.638 77.0429C120.412 77.3737 121.116 77.8482 121.713 78.4414C120.859 76.5434 118.506 75.2116 116.031 74.4236C113.075 73.4092 109.881 73.3202 106.874 74.1683C105.407 74.6208 104.093 75.4696 103.078 76.6212C104.067 75.9794 105.134 75.4646 106.252 75.0894C104.906 76.03 103.734 77.1983 102.789 78.5414C101.748 80.0927 101.231 81.9362 101.313 83.8024C101.385 83.1427 101.549 82.4963 101.801 81.8823C101.948 81.1589 102.259 80.4791 102.711 79.8955Z" fill="black"/>
<path d="M105.864 80.4327C106.136 81.1251 106.573 81.7413 107.135 82.2284C107.698 82.7155 108.37 83.059 109.094 83.2297C110.072 83.469 111.091 83.4834 112.076 83.272C113.06 83.0605 113.983 82.6285 114.777 82.0087C115.264 81.603 115.645 81.0851 115.887 80.4993L113.667 79.9221C113.328 80.3602 112.901 80.7221 112.414 80.9841C111.926 81.2461 111.389 81.4022 110.836 81.4426C110.104 81.5286 109.362 81.4211 108.685 81.131C108.007 80.8408 107.417 80.378 106.974 79.7888L105.864 80.4327Z" fill="black"/>
<path d="M109.838 112.081C109.527 111.503 109.383 109.65 109.005 109.217C108.51 108.616 107.839 108.186 107.086 107.986C106.334 107.787 105.537 107.829 104.81 108.107C103.988 108.496 103.411 109.217 102.59 109.683C101.813 109.997 100.971 110.118 100.137 110.038C97.5759 109.975 95.0266 109.67 92.5228 109.128C91.685 108.917 90.8366 108.75 89.9812 108.629C89.1703 108.542 88.3547 108.505 87.5392 108.518C83.4325 108.518 79.3221 108.555 75.2079 108.629C74.6767 108.577 74.1448 108.719 73.7096 109.028C73.4894 109.306 73.3343 109.63 73.2555 109.976C73.1768 110.321 73.1764 110.68 73.2545 111.026C73.5264 112.892 73.5264 114.788 73.2545 116.654C72.9104 118.041 70.8904 117.353 70.5574 116.187C69.9638 114.089 69.7532 111.901 69.9358 109.727C70.0579 107.929 69.5696 105.965 70.846 104.433C71.2432 104.004 71.7211 103.658 72.2525 103.414C72.7839 103.17 73.3583 103.034 73.9426 103.013C75.1097 102.97 76.2774 103.078 77.4167 103.335C82.9663 104.322 88.738 105.177 94.1434 103.601C95.6862 103.157 97.1735 102.491 98.7274 102.114C102.316 101.2 106.113 101.593 109.438 103.223C110.017 103.488 110.538 103.866 110.97 104.333C111.649 105.272 112.007 106.405 111.991 107.563C112.235 110.398 112.28 113.247 112.124 116.088C112.151 116.458 112.031 116.825 111.791 117.109C110.337 118.429 109.771 117.186 109.727 116.909C109.638 116.11 110.215 112.769 109.838 112.081Z" fill="black"/>
<path d="M71.4986 52.4348L70.977 53.7333C73.4925 54.7947 76.3122 54.8856 78.8908 53.9886C80.3337 53.589 81.6656 52.5569 83.1529 52.7345C83.8048 52.853 84.4389 53.0544 85.0397 53.3339C89.4794 55.0543 94.5741 54.1996 99.1692 52.8011C103.764 51.4026 108.282 49.4713 113.077 49.1605C115.785 48.9608 118.549 49.2716 121.19 48.6611C120.458 48.8276 119.448 49.9597 118.693 50.3149C117.777 50.7886 116.785 51.0965 115.763 51.2249C116.829 51.3134 117.9 51.3468 118.97 51.3248C119.139 51.2985 119.306 51.2613 119.47 51.2137C120.024 51.0767 120.55 50.844 121.024 50.5257C121.246 50.3703 121.989 49.8265 122.799 49.1605C123.388 48.6722 123.909 48.2503 124.176 47.9617C121.865 47.3922 119.496 47.0904 117.117 47.0626C116.406 47.0626 115.563 47.0627 114.531 47.1404C111.756 47.3735 109.214 48.0616 102.632 49.3602C92.2432 51.4025 90.6894 51.2249 89.313 50.7588C87.8778 50.1949 86.3325 49.9669 84.7956 50.0927C83.2259 50.3387 81.7185 50.8853 80.3558 51.7023C77.5574 52.8859 74.4535 53.1425 71.4986 52.4348Z" fill="#D89568"/>
<path d="M61.2293 111.593C61.2293 112.415 61.2849 113.236 61.3958 114.057C61.7684 117.868 62.4777 121.638 63.5157 125.323C64.0285 127.866 64.8485 130.337 65.9576 132.682C66.6884 134.058 67.8233 135.178 69.2096 135.89C69.4871 136.034 69.7646 136.167 70.0532 136.289C71.2129 136.743 72.3277 137.304 73.383 137.965C74.4929 138.709 75.2921 139.697 76.3132 140.485C80.2424 143.482 84.6377 142.227 89.0885 142.793C89.9643 142.906 90.8488 142.936 91.7301 142.882C95.6815 142.66 99.4996 140.94 102.951 139.008L103.451 138.731C106.514 136.977 109.467 134.768 112.708 133.359C115.928 132.156 118.985 130.556 121.809 128.597C122.506 128.066 123.16 127.48 123.763 126.844C125.148 125.464 126.199 123.786 126.837 121.938L126.97 121.494V121.372C127.425 119.607 127.414 117.753 127.769 115.966C128.051 114.608 128.487 113.286 129.068 112.026C129.39 111.271 129.745 110.517 130.111 109.806C131.199 107.586 132.346 105.433 133.552 103.346C134.573 101.533 135.635 99.7504 136.738 97.9967C136.99 97.6803 137.134 97.2912 137.148 96.8867C137.026 95.9433 134.928 95.7102 134.285 96.0432C134.15 96.114 134.023 96.1996 133.907 96.2985C133.32 96.876 132.802 97.5205 132.365 98.2186C130.389 100.849 128.802 104.079 125.705 105.644C123.108 106.976 120 106.754 117.247 107.709C115.349 108.408 113.62 109.501 112.175 110.916C111.397 111.648 110.656 112.419 109.955 113.225C109.4 113.824 108.845 114.435 108.324 115.045C107.375 116.139 106.371 117.184 105.316 118.175C102.899 120.38 100.058 122.067 96.9658 123.134C93.8738 124.201 90.5965 124.625 87.3349 124.38C83.7498 124.091 80.0648 122.859 77.7451 120.106C76.6351 118.752 75.0035 117.176 73.4496 115.511C72.1209 114.153 70.931 112.666 69.8978 111.072C69.6367 110.635 69.4104 110.179 69.2208 109.706C69.0321 109.218 68.8434 108.752 68.6769 108.286C66.7456 103.236 65.5692 99.0844 63.5935 94.1119C63.3715 93.5459 63.1384 93.0019 62.8831 92.3582C63.3271 93.4015 62.4502 96.1763 62.2837 97.3195C62.0284 99.0954 61.7287 100.871 61.429 102.636C61.2873 103.533 61.1909 104.437 61.1404 105.344C61.0406 107.353 61.1405 109.529 61.2293 111.593Z" fill="black"/>
<path d="M37.3111 226.822L38.077 228.387C40.3635 225.768 42.9717 225.257 45.6466 224.824C46.8024 224.532 48.0257 224.687 49.0728 225.257C50.1198 225.826 50.9138 226.77 51.2963 227.899C52.1806 229.883 53.2587 231.776 54.515 233.548C59.0213 239.841 65.8474 241.806 73.1618 239.098C74.1052 238.743 75.0265 238.354 76.0476 237.988C75.5481 239.975 73.9943 240.963 67.8009 243.405C72.063 249.221 80.6982 250.686 85.7928 244.204C88.7599 240.277 90.0672 235.343 89.4334 230.463C89.3708 230.068 89.2245 229.692 89.0043 229.359C88.7841 229.026 88.4952 228.743 88.157 228.531L87.6796 228.287C87.6796 228.864 87.6796 229.397 87.6796 229.719C87.3361 234.472 85.1207 238.895 81.5196 242.017C79.1777 244.004 75.8479 245.347 73.062 244.104C75.2071 243.613 77.0826 242.319 78.3028 240.488C79.523 238.657 79.9949 236.427 79.6215 234.259C77.7479 235.509 75.6402 236.365 73.4259 236.777C71.2116 237.189 68.9368 237.147 66.7391 236.654C64.5414 236.161 62.4666 235.227 60.6402 233.909C58.8138 232.591 57.2738 230.917 56.1133 228.987C55.0034 227.066 54.171 224.869 52.5172 223.381C49.8866 221.006 45.7022 221.161 42.5278 222.726C40.5562 223.766 38.7888 225.153 37.3111 226.822Z" fill="#D89568"/>
<path d="M62.749 168.118C65.4845 171.762 68.6904 175.027 72.2833 177.83C77.6775 182.269 84.4259 186.454 91.1521 184.755L85.5359 187.719L84.326 188.363L82.3171 189.417C85.9946 190.305 89.7871 190.619 93.5607 190.35C106.161 189.837 118.514 186.687 129.822 181.104C136.482 177.774 142.875 173.501 146.626 167.141C151.513 168.477 156.166 170.554 160.423 173.301C163.443 175.244 166.252 177.499 168.803 180.027C165.283 175.919 161.335 172.198 157.026 168.928C153.264 165.998 149.257 163.378 145.372 160.537C134.273 173.856 119.699 180.804 103.894 185.61C101.302 186.214 98.629 186.39 95.9802 186.132L105.348 182.258C105.293 182.025 105.226 181.792 105.17 181.548C104.471 181.637 103.783 181.737 103.084 181.814C102.385 181.892 101.663 182.003 100.942 182.058C93.6162 182.658 86.3571 182.558 79.4756 179.483C74.9804 177.452 70.9781 174.473 67.7437 170.748C66.376 169.182 65.1572 167.491 64.1031 165.698C63.749 166.114 63.4367 166.564 63.1708 167.041C63.0265 167.374 62.8822 167.707 62.749 168.04V168.118Z" fill="#00E0E0"/>
</svg>
