<svg width="20" height="20" viewBox="0 0 20 20" fill="none" xmlns="http://www.w3.org/2000/svg">
<g clip-path="url(#clip0_869_1888)">
<path fill-rule="evenodd" clip-rule="evenodd" d="M17.4259 2.0929C14.1899 -0.869098 9.13058 -0.649764 6.11724 2.53223C4.77861 3.94352 4.02012 5.80689 3.99258 7.75186C3.96503 9.69683 4.67045 11.5809 5.96858 13.0296L0.163242 18.4196C0.110507 18.4687 0.0684498 18.5281 0.0396924 18.5942C0.010935 18.6602 -0.00390625 18.7315 -0.00390625 18.8036C-0.00390625 18.8756 0.010935 18.9469 0.0396924 19.013C0.0684498 19.079 0.110507 19.1385 0.163242 19.1876C0.275242 19.2976 0.424576 19.3336 0.573242 19.3336C0.721909 19.3336 0.870576 19.2976 0.981909 19.1876L6.74991 13.7976C8.21121 15.0486 10.0716 15.7359 11.9952 15.7356H12.2926C14.4126 15.6629 16.3846 14.7482 17.8726 13.2122C18.5835 12.462 19.1374 11.5773 19.5016 10.61C19.8657 9.6427 20.0329 8.61238 19.9932 7.57957C19.9186 5.4949 18.9886 3.51957 17.4259 2.0929ZM17.0539 12.4442C15.7988 13.7643 14.0757 14.5392 12.2552 14.6022C10.4348 14.677 8.65791 14.0331 7.30791 12.8096C4.51791 10.2862 4.36924 5.97023 6.93591 3.26357C8.27524 1.8369 10.1352 1.10557 11.9952 1.10557C13.6692 1.10557 15.3432 1.69024 16.6819 2.89757C18.0212 4.14157 18.8026 5.78757 18.8772 7.61623C18.9182 8.50274 18.7776 9.38826 18.464 10.2185C18.1505 11.0487 17.6706 11.8061 17.0539 12.4442Z" fill="#444750"/>
</g>
<defs>
<clipPath id="clip0_869_1888">
<rect width="20" height="19.3333" fill="white"/>
</clipPath>
</defs>
</svg>
