<svg width="17" height="17" viewBox="0 0 17 17" fill="none" xmlns="http://www.w3.org/2000/svg">
<path d="M7.33138 15.5832C7.20152 15.5832 7.08642 15.5419 6.98607 15.4592C6.88572 15.3766 6.82374 15.2703 6.80013 15.1405L6.5168 13.3519C6.29249 13.2693 6.05638 13.1571 5.80846 13.0155C5.56055 12.8738 5.34214 12.7262 5.15326 12.5728L3.50638 13.3342C3.37652 13.3932 3.24666 13.4021 3.1168 13.3608C2.98694 13.3195 2.88659 13.2339 2.81576 13.104L1.64701 11.0321C1.57617 10.9141 1.55846 10.7901 1.59388 10.6603C1.6293 10.5304 1.70013 10.4241 1.80638 10.3415L3.3293 9.22588C3.30569 9.11963 3.29093 8.99862 3.28503 8.86286C3.27912 8.72709 3.27617 8.60609 3.27617 8.49984C3.27617 8.39359 3.27912 8.27258 3.28503 8.13682C3.29093 8.00105 3.30569 7.88005 3.3293 7.7738L1.80638 6.65817C1.70013 6.57553 1.6293 6.46928 1.59388 6.33942C1.55846 6.20956 1.57617 6.0856 1.64701 5.96755L2.81576 3.89567C2.88659 3.76581 2.98694 3.68022 3.1168 3.6389C3.24666 3.59758 3.37652 3.60643 3.50638 3.66546L5.15326 4.42692C5.34214 4.27345 5.56055 4.12588 5.80846 3.98421C6.05638 3.84255 6.29249 3.7363 6.5168 3.66546L6.80013 1.85921C6.82374 1.72935 6.88572 1.6231 6.98607 1.54046C7.08642 1.45782 7.20152 1.4165 7.33138 1.4165H9.66888C9.79874 1.4165 9.91385 1.45782 10.0142 1.54046C10.1145 1.6231 10.1765 1.72935 10.2001 1.85921L10.4835 3.64775C10.7078 3.73039 10.9468 3.83959 11.2007 3.97536C11.4545 4.11112 11.6699 4.26164 11.847 4.42692L13.4939 3.66546C13.6237 3.60643 13.7536 3.59758 13.8835 3.6389C14.0133 3.68022 14.1137 3.76581 14.1845 3.89567L15.3533 5.94984C15.4241 6.06789 15.4447 6.1948 15.4152 6.33057C15.3857 6.46633 15.3119 6.57553 15.1939 6.65817L13.671 7.73838C13.6946 7.85643 13.7093 7.98334 13.7152 8.11911C13.7211 8.25487 13.7241 8.38178 13.7241 8.49984C13.7241 8.61789 13.7211 8.74185 13.7152 8.87171C13.7093 9.00157 13.6946 9.12553 13.671 9.24359L15.1939 10.3415C15.3001 10.4241 15.371 10.5304 15.4064 10.6603C15.4418 10.7901 15.4241 10.9141 15.3533 11.0321L14.1845 13.104C14.1137 13.2339 14.0133 13.3195 13.8835 13.3608C13.7536 13.4021 13.6237 13.3932 13.4939 13.3342L11.847 12.5728C11.6581 12.7262 11.4427 12.8767 11.2007 13.0243C10.9586 13.1719 10.7196 13.2811 10.4835 13.3519L10.2001 15.1405C10.1765 15.2703 10.1145 15.3766 10.0142 15.4592C9.91385 15.5419 9.79874 15.5832 9.66888 15.5832H7.33138ZM7.72096 14.5207H9.2793L9.52721 12.5373C9.9168 12.4429 10.2857 12.2953 10.634 12.0946C10.9822 11.8939 11.298 11.6519 11.5814 11.3686L13.4585 12.1832L14.1668 10.9082L12.5022 9.6863C12.5494 9.4856 12.5878 9.28786 12.6173 9.09307C12.6468 8.89827 12.6616 8.70053 12.6616 8.49984C12.6616 8.29914 12.6498 8.1014 12.6262 7.90661C12.6026 7.71182 12.5612 7.51407 12.5022 7.31338L14.1668 6.0915L13.4585 4.8165L11.5814 5.63109C11.3099 5.32414 11.0029 5.06737 10.6605 4.86077C10.3182 4.65418 9.94041 4.52136 9.52721 4.46234L9.2793 2.479H7.72096L7.47305 4.46234C7.07166 4.54498 6.69683 4.68664 6.34857 4.88734C6.0003 5.08803 5.69041 5.33595 5.41888 5.63109L3.5418 4.8165L2.83346 6.0915L4.49805 7.31338C4.45082 7.51407 4.41246 7.71182 4.38294 7.90661C4.35343 8.1014 4.33867 8.29914 4.33867 8.49984C4.33867 8.70053 4.35343 8.89827 4.38294 9.09307C4.41246 9.28786 4.45082 9.4856 4.49805 9.6863L2.83346 10.9082L3.5418 12.1832L5.41888 11.3686C5.70221 11.6519 6.01801 11.8939 6.36628 12.0946C6.71454 12.2953 7.08346 12.4429 7.47305 12.5373L7.72096 14.5207ZM8.50013 10.8019C9.13763 10.8019 9.68069 10.5776 10.1293 10.129C10.5779 9.68039 10.8022 9.13734 10.8022 8.49984C10.8022 7.86234 10.5779 7.31928 10.1293 6.87067C9.68069 6.42206 9.13763 6.19775 8.50013 6.19775C7.86263 6.19775 7.31958 6.42206 6.87096 6.87067C6.42235 7.31928 6.19805 7.86234 6.19805 8.49984C6.19805 9.13734 6.42235 9.68039 6.87096 10.129C7.31958 10.5776 7.86263 10.8019 8.50013 10.8019Z" fill="white"/>
</svg>
