<svg width="21" height="20" viewBox="0 0 21 20" fill="none" xmlns="http://www.w3.org/2000/svg">
<path d="M10.5996 12.5C11.9803 12.5 13.0996 11.3807 13.0996 10C13.0996 8.61929 11.9803 7.5 10.5996 7.5C9.2189 7.5 8.09961 8.61929 8.09961 10C8.09961 11.3807 9.2189 12.5 10.5996 12.5Z" stroke="#444750" stroke-width="1.25" stroke-miterlimit="10" stroke-linecap="round" stroke-linejoin="round"/>
<path d="M2.26562 10.7334V9.26669C2.26562 8.40003 2.97396 7.68336 3.84896 7.68336C5.35729 7.68336 5.97396 6.6167 5.21562 5.30836C4.78229 4.55836 5.04062 3.58336 5.79896 3.15003L7.24062 2.32503C7.89896 1.93336 8.74896 2.1667 9.14062 2.82503L9.23229 2.98336C9.98229 4.2917 11.2156 4.2917 11.974 2.98336L12.0656 2.82503C12.4573 2.1667 13.3073 1.93336 13.9656 2.32503L15.4073 3.15003C16.1656 3.58336 16.424 4.55836 15.9906 5.30836C15.2323 6.6167 15.849 7.68336 17.3573 7.68336C18.224 7.68336 18.9406 8.39169 18.9406 9.26669V10.7334C18.9406 11.6 18.2323 12.3167 17.3573 12.3167C15.849 12.3167 15.2323 13.3834 15.9906 14.6917C16.424 15.45 16.1656 16.4167 15.4073 16.85L13.9656 17.675C13.3073 18.0667 12.4573 17.8334 12.0656 17.175L11.974 17.0167C11.224 15.7084 9.99062 15.7084 9.23229 17.0167L9.14062 17.175C8.74896 17.8334 7.89896 18.0667 7.24062 17.675L5.79896 16.85C5.04062 16.4167 4.78229 15.4417 5.21562 14.6917C5.97396 13.3834 5.35729 12.3167 3.84896 12.3167C2.97396 12.3167 2.26562 11.6 2.26562 10.7334Z" stroke="#444750" stroke-width="1.25" stroke-miterlimit="10" stroke-linecap="round" stroke-linejoin="round"/>
</svg>
