<svg width="25" height="25" viewBox="0 0 25 25" fill="none" xmlns="http://www.w3.org/2000/svg">
    <rect x="0.46875" y="0.841797" width="23.9818" height="23.9818" rx="11.9909" fill="white"
        fill-opacity="0.46" />
    <path
        d="M18.1707 19.6083L16.0009 17.4384C15.7969 17.5819 15.5771 17.7083 15.3414 17.8176C15.1058 17.9269 14.8657 18.0189 14.621 18.0937V17.5252C14.7981 17.4709 14.9709 17.408 15.1395 17.3364C15.3081 17.2647 15.4711 17.1702 15.6285 17.0528L12.6994 14.1196V16.7632L10.2173 14.2811H7.84201V11.5055H10.0679L6.46484 7.90242L6.85051 7.50342L18.5564 19.2186L18.1707 19.6083ZM17.4127 16.1307L17.0404 15.7584C17.3518 15.3474 17.5869 14.8981 17.7457 14.4106C17.9045 13.923 17.9839 13.4097 17.9839 12.8705C17.9839 11.8069 17.6769 10.8462 17.0631 9.9884C16.4492 9.13064 15.6352 8.54341 14.621 8.2267V7.65821C15.7793 8.02653 16.7184 8.68776 17.4381 9.6419C18.1578 10.596 18.5177 11.674 18.5177 12.8759C18.5177 13.4747 18.4211 14.0485 18.2281 14.5974C18.035 15.1463 17.7632 15.6574 17.4127 16.1307ZM15.4884 14.2064L14.621 13.339V10.5633C15.0134 10.8178 15.3116 11.1527 15.5158 11.5682C15.72 11.9836 15.822 12.4253 15.822 12.8933C15.822 13.129 15.7942 13.3575 15.7386 13.5785C15.683 13.7996 15.5996 14.0089 15.4884 14.2064ZM12.6994 11.4174L11.5091 10.2137L12.6994 9.02335V11.4174ZM12.1656 15.4581V13.6032L10.6017 12.0392H8.37579V13.7473H10.4549L12.1656 15.4581Z"
        fill="white" />
</svg>