<svg width="48" height="48" viewBox="0 0 48 48" fill="none" xmlns="http://www.w3.org/2000/svg">
<path d="M26.6616 22.8654L23.3769 19.5807C23.1538 19.3576 23.0423 19.0974 23.0423 18.7999C23.0423 18.5025 23.1538 18.2423 23.3769 18.0192C23.6 17.7961 23.8613 17.6846 24.1609 17.6846C24.4604 17.6846 24.7196 17.7961 24.9384 18.0192L29.9269 23.0076C30.2269 23.2948 30.3769 23.632 30.3769 24.0192C30.3769 24.4064 30.2269 24.7435 29.9269 25.0307L24.9384 30.0191C24.7196 30.2422 24.4604 30.3538 24.1609 30.3538C23.8613 30.3538 23.6 30.2422 23.3769 30.0191C23.1538 29.7961 23.0423 29.5316 23.0423 29.2256C23.0423 28.9196 23.1538 28.6573 23.3769 28.4385L26.6616 25.1538L18.1769 25.1538C17.8468 25.1538 17.5751 25.0471 17.362 24.8339C17.1489 24.6206 17.0423 24.3488 17.0423 24.0185C17.0423 23.6882 17.1489 23.4134 17.362 23.1942C17.5751 22.975 17.8468 22.8654 18.1769 22.8654L26.6616 22.8654ZM42.9999 24.0033C42.9999 21.3959 42.5012 18.9393 41.5039 16.6334C40.5066 14.3276 39.1447 12.3111 37.4184 10.584C35.692 8.85687 33.6764 7.49442 31.3716 6.49665C29.0667 5.49888 26.6106 5 24.0033 5C21.3754 5 18.9054 5.49867 16.5931 6.496C14.2808 7.49333 12.2694 8.85517 10.559 10.5815C8.84854 12.3079 7.49442 14.3235 6.49665 16.6283C5.49889 18.9332 5 21.3893 5 23.9966C5 26.6245 5.49867 29.0945 6.496 31.4068C7.49334 33.7191 8.84684 35.7305 10.5565 37.4409C12.2662 39.1514 14.2767 40.5055 16.588 41.5033C18.8992 42.501 21.3687 42.9999 23.9966 42.9999C26.604 42.9999 29.0606 42.5012 31.3665 41.5039C33.6723 40.5066 35.6888 39.1531 37.4159 37.4434C39.143 35.7337 40.5055 33.7232 41.5033 31.412C42.501 29.1007 42.9999 26.6312 42.9999 24.0033ZM40.7307 23.9999C40.7307 28.6563 39.1012 32.6089 35.8423 35.8577C32.5833 39.1064 28.6359 40.7307 24 40.7307C19.3436 40.7307 15.391 39.1064 12.1423 35.8577C8.89355 32.6089 7.2692 28.6564 7.2692 24C7.2692 19.3641 8.89355 15.4166 12.1423 12.1577C15.391 8.89868 19.3436 7.2692 24 7.2692C28.6359 7.2692 32.5833 8.89868 35.8423 12.1577C39.1012 15.4166 40.7307 19.364 40.7307 23.9999Z" fill="url(#paint0_linear_762_18309)"/>
<path d="M26.6616 22.8654L23.3769 19.5807C23.1538 19.3576 23.0423 19.0974 23.0423 18.7999C23.0423 18.5025 23.1538 18.2423 23.3769 18.0192C23.6 17.7961 23.8613 17.6846 24.1609 17.6846C24.4604 17.6846 24.7196 17.7961 24.9384 18.0192L29.9269 23.0076C30.2269 23.2948 30.3769 23.632 30.3769 24.0192C30.3769 24.4064 30.2269 24.7435 29.9269 25.0307L24.9384 30.0191C24.7196 30.2422 24.4604 30.3538 24.1609 30.3538C23.8613 30.3538 23.6 30.2422 23.3769 30.0191C23.1538 29.7961 23.0423 29.5316 23.0423 29.2256C23.0423 28.9196 23.1538 28.6573 23.3769 28.4385L26.6616 25.1538L18.1769 25.1538C17.8468 25.1538 17.5751 25.0471 17.362 24.8339C17.1489 24.6206 17.0423 24.3488 17.0423 24.0185C17.0423 23.6882 17.1489 23.4134 17.362 23.1942C17.5751 22.975 17.8468 22.8654 18.1769 22.8654L26.6616 22.8654ZM42.9999 24.0033C42.9999 21.3959 42.5012 18.9393 41.5039 16.6334C40.5066 14.3276 39.1447 12.3111 37.4184 10.584C35.692 8.85687 33.6764 7.49442 31.3716 6.49665C29.0667 5.49888 26.6106 5 24.0033 5C21.3754 5 18.9054 5.49867 16.5931 6.496C14.2808 7.49333 12.2694 8.85517 10.559 10.5815C8.84854 12.3079 7.49442 14.3235 6.49665 16.6283C5.49889 18.9332 5 21.3893 5 23.9966C5 26.6245 5.49867 29.0945 6.496 31.4068C7.49334 33.7191 8.84684 35.7305 10.5565 37.4409C12.2662 39.1514 14.2767 40.5055 16.588 41.5033C18.8992 42.501 21.3687 42.9999 23.9966 42.9999C26.604 42.9999 29.0606 42.5012 31.3665 41.5039C33.6723 40.5066 35.6888 39.1531 37.4159 37.4434C39.143 35.7337 40.5055 33.7232 41.5033 31.412C42.501 29.1007 42.9999 26.6312 42.9999 24.0033ZM40.7307 23.9999C40.7307 28.6563 39.1012 32.6089 35.8423 35.8577C32.5833 39.1064 28.6359 40.7307 24 40.7307C19.3436 40.7307 15.391 39.1064 12.1423 35.8577C8.89355 32.6089 7.2692 28.6564 7.2692 24C7.2692 19.3641 8.89355 15.4166 12.1423 12.1577C15.391 8.89868 19.3436 7.2692 24 7.2692C28.6359 7.2692 32.5833 8.89868 35.8423 12.1577C39.1012 15.4166 40.7307 19.364 40.7307 23.9999Z" fill="#FF0080"/>
<defs>
<linearGradient id="paint0_linear_762_18309" x1="42.9999" y1="5" x2="42.9999" y2="42.9999" gradientUnits="userSpaceOnUse">
<stop stop-color="#E8012B"/>
<stop offset="1" stop-color="#F6794F"/>
</linearGradient>
</defs>
</svg>
