<svg width="66" height="66" viewBox="0 0 66 66" fill="none" xmlns="http://www.w3.org/2000/svg">
    <rect x="1" y="1" width="64" height="64" rx="32" stroke="#FF0080" stroke-dasharray="2 2" />
    <path
        d="M31.8884 33.7816H24.9466C24.6784 33.7816 24.4536 33.6904 24.2721 33.5079C24.0907 33.3254 24 33.0992 24 32.8295C24 32.5597 24.0907 32.3354 24.2721 32.1566C24.4536 31.9778 24.6784 31.8884 24.9466 31.8884H31.8884V24.9466C31.8884 24.6784 31.9796 24.4536 32.1621 24.2721C32.3446 24.0907 32.5708 24 32.8405 24C33.1103 24 33.3346 24.0907 33.5134 24.2721C33.6922 24.4536 33.7816 24.6784 33.7816 24.9466V31.8884H40.7234C40.9916 31.8884 41.2164 31.9796 41.3979 32.1621C41.5793 32.3446 41.67 32.5708 41.67 32.8405C41.67 33.1103 41.5793 33.3346 41.3979 33.5134C41.2164 33.6922 40.9916 33.7816 40.7234 33.7816H33.7816V40.7234C33.7816 40.9916 33.6904 41.2164 33.5079 41.3979C33.3254 41.5793 33.0992 41.67 32.8295 41.67C32.5597 41.67 32.3354 41.5793 32.1566 41.3979C31.9778 41.2164 31.8884 40.9916 31.8884 40.7234V33.7816Z"
        fill="#FF0080" />
</svg>