<svg width="253" height="178" viewBox="0 0 253 178" fill="none" xmlns="http://www.w3.org/2000/svg">
<path d="M184.436 4.09281C189.011 2.62804 193.894 2.34416 198.69 2.62216C205.58 3.02153 212.741 4.73659 217.807 9.42319C220.999 12.3767 223.117 16.2788 225.683 19.7904C233.128 29.9783 244.637 37.2677 249.659 48.8427C253.952 58.7354 252.338 71.1771 244.95 79.0326C237.563 86.8886 224.554 89.1193 215.408 83.4055C206.628 77.9202 202.747 67.0008 194.726 60.4546C188.992 55.7756 181.587 53.688 175.358 49.6923C168.984 45.6028 163.798 39.1747 162.626 31.6921C161.654 25.4815 163.889 18.7338 168.732 14.6477C173.469 10.6515 178.453 6.00819 184.436 4.09281Z" fill="#FFDDEE"/>
<path d="M224.229 80.1281C216.31 81.3984 208.567 79.3508 200.657 77.8923C193.061 76.4918 185.493 73.8625 179.462 68.8979C176.699 66.6239 174.251 63.7977 173.166 60.3873C171.62 55.5218 173.032 50.2687 173.017 45.1634C173.001 39.172 171.508 33.3982 167.348 28.9795C164.815 26.2902 161.872 23.9317 159.886 20.8174C155.745 14.3259 158.951 5.63468 165.434 1.96939C171.34 -1.36918 178.854 -0.0480304 184.988 2.84876C191.123 5.74513 196.508 10.0609 202.669 12.9027C209.422 16.0183 216.81 17.2395 224.259 17.9412C229.955 18.4779 235.757 17.8245 240.404 21.1614C243.729 23.5487 246.08 27.1317 247.445 30.9906C250.028 38.2918 249.509 46.8755 248.318 54.414C247.519 59.4642 245.915 64.465 242.986 68.656C239.391 73.8012 233.894 77.5043 227.88 79.297C226.658 79.6611 225.441 79.9337 224.229 80.1281Z" fill="#FF0080"/>
<path d="M211.761 177.375H27.5899C13.6838 166.761 4.02214 151.619 1.41218 134.321C0.326615 127.127 0.944356 118.61 6.80639 114.302C15.8214 107.677 29.3499 116.03 39.5345 111.401C46.0953 108.419 49.3285 100.672 49.3961 93.4653C49.4641 86.259 47.0293 79.3035 45.2063 72.3311C43.3833 65.3587 42.1818 57.8299 44.6448 51.0575C47.1078 44.2846 54.3594 38.7896 61.3381 40.5874C67.3185 42.1281 71.1136 48.1871 76.8446 50.4889C82.8099 52.8846 89.7344 50.7051 95.0291 47.0596C100.324 43.4144 104.538 38.4251 109.487 34.3226C118.175 27.1205 129.651 22.7069 140.81 24.3884C151.969 26.0698 162.293 34.7165 164.036 45.8661C165.46 54.9869 161.624 65.5259 167.214 72.8724C173.517 81.1558 186.701 78.8306 195.813 83.8616C203.231 87.9573 207.189 97.4485 204.878 105.601C202.518 113.926 194.499 120.911 195.805 129.465C196.741 135.597 202.178 139.832 206.007 144.712C213.367 154.09 216.696 166.523 211.761 177.375Z" fill="#FFDDEE"/>
<path d="M203.115 177.375H45.3246C40.5263 173.001 35.1418 168.974 32.4163 163.081C29.6909 157.188 29.698 149.532 34.1805 144.835C39.5907 139.167 48.6338 139.94 56.242 138.065C65.0155 135.902 72.9949 128.855 74.1182 119.889C75.5691 108.313 65.8726 97.7374 66.4773 86.0869C66.9539 76.9031 74.7486 68.6503 83.8904 67.6512C90.0699 66.9755 96.4804 69.2407 102.45 67.5068C107.985 65.8996 111.977 61.2042 116.787 58.0298C122.433 54.3045 129.639 52.6852 136.145 54.5376C142.65 56.3899 148.156 62.0164 149.032 68.7233C149.964 75.8553 146.084 83.9565 150.199 89.855C153.265 94.2485 159.381 95.0972 164.735 94.9259C170.09 94.7545 175.801 94.036 180.507 96.596C184.883 98.9767 187.486 103.903 187.974 108.861C188.462 113.819 187.079 118.797 185.037 123.342C183.253 127.313 180.954 131.069 179.612 135.21C178.27 139.352 177.992 144.109 180.179 147.874C182.48 151.837 186.945 153.895 190.584 156.681C197.015 161.602 202.633 169.29 203.115 177.375Z" fill="#FF49A5"/>
<path d="M189.909 24.0312L199.023 47.2026L218.441 36.2424L189.909 24.0312Z" fill="#FAFAFA"/>
<path d="M189.909 24.0312L207.819 42.2376L212.696 39.4849L189.909 24.0312Z" fill="#D9D9D9"/>
<path d="M212.696 39.4849L209.3 47.8884L207.819 42.2376L212.696 39.4849Z" fill="#D9D9D9"/>
<path d="M209.3 47.8886L205.109 43.7677L207.82 42.2378L209.3 47.8886Z" fill="#B0B0B0"/>
<path d="M70.6975 170.186C50.147 164.771 32.2245 150.105 22.8513 131.032C18.9832 123.161 16.5017 114.421 17.0833 105.671C17.665 96.9203 21.5847 88.175 28.6096 82.9248C35.6345 77.6746 45.8723 76.5387 53.3016 81.1992C60.4798 85.7023 63.8985 94.3372 70.1188 100.092C77.5527 106.969 89.3494 108.977 98.3114 104.261C107.274 99.5442 112.312 88.0817 109.042 78.4969C106.015 69.6263 97.4598 64.1108 90.0276 58.4003C82.5954 52.6899 75.2052 44.6614 76.2681 35.3491C77.1819 27.3457 84.2311 21.3304 91.657 18.2085C105.874 12.2319 124.205 14.8889 133.893 26.8876C144.317 39.7971 142.313 58.6292 137.612 74.5418C132.911 90.4544 125.979 106.562 128.318 122.989C130.261 136.638 138.725 148.911 149.95 156.915C161.174 164.918 174.949 168.883 188.709 169.727C202.44 170.57 217.181 168.018 227.338 158.739C237.495 149.46 240.926 132.155 231.943 121.735C227.294 116.342 220.352 113.607 213.678 111.128C207.003 108.649 200.039 106.055 195.201 100.831C190.364 95.6063 188.489 86.8782 193.039 81.4012C198.309 75.0571 212.348 74.3629 217.313 67.7773C220.855 63.0794 216.717 54.0291 212.696 49.5852" stroke="#FF0080" stroke-width="1.06704" stroke-miterlimit="10" stroke-dasharray="3.2 3.2"/>
<path d="M59.2637 145.875C50.3835 140.043 42.4662 132.748 35.9285 124.374C33.1884 120.864 30.6695 117.13 29.0074 112.999C27.3452 108.868 26.5725 104.296 27.3893 99.9186C27.9752 96.7791 29.6827 93.5115 32.7142 92.5074C35.0827 91.7233 37.7582 92.5393 39.7307 94.0666C41.7032 95.594 43.0873 97.7466 44.3119 99.9207C49.0367 108.308 51.9369 117.571 55.4308 126.542C57.1077 130.847 58.9382 135.105 61.1635 139.158C62.2692 141.172 63.4686 143.136 64.7931 145.014C65.9929 146.715 68.1741 148.547 68.9283 150.384C67.2023 151.755 60.8742 146.933 59.2637 145.875Z" fill="#429C9B"/>
<path d="M34.2607 97.27C38.6026 115.673 48.8035 132.647 63.0161 145.118" stroke="#57BABD" stroke-width="0.848249" stroke-miterlimit="10"/>
<path d="M177.478 145.967C185.105 142.265 192.119 137.307 198.154 131.352C200.683 128.856 203.059 126.161 204.8 123.063C206.54 119.965 207.621 116.427 207.425 112.879C207.285 110.335 206.27 107.574 203.974 106.467C202.18 105.604 199.979 105.974 198.261 106.98C196.543 107.986 195.227 109.547 194.034 111.141C189.433 117.292 186.186 124.324 182.499 131.063C180.73 134.297 178.843 137.478 176.665 140.457C175.584 141.937 174.433 143.367 173.191 144.717C172.067 145.94 170.152 147.165 169.367 148.541C170.593 149.803 176.096 146.638 177.478 145.967Z" fill="#429C9B"/>
<path d="M202.261 110.077C196.933 124.193 187.116 136.575 174.587 144.982" stroke="#57BABD" stroke-width="0.676827" stroke-miterlimit="10"/>
<path d="M63.1009 133.827C67.8748 110.28 62.7859 84.8921 49.3057 65.0039" stroke="#61A9B8" stroke-width="1.06704" stroke-miterlimit="10"/>
<path d="M50.7187 67.332C46.8707 66.0726 43.504 63.3959 41.4097 59.9305C39.3155 56.4651 38.5109 52.24 39.1849 48.2476C43.268 49.3424 47.1034 51.8788 49.2783 55.5038C51.4528 59.1288 51.6749 63.2144 50.7187 67.332Z" fill="#61A9B8"/>
<path d="M55.0155 74.9549C54.1341 71.9552 54.365 68.6422 55.6543 65.7942C56.9435 62.9461 59.2801 60.586 62.1156 59.269C63.2049 62.346 63.2679 65.8958 61.9123 68.8652C60.5567 71.8343 58.0539 73.7622 55.0155 74.9549Z" fill="#61A9B8"/>
<path d="M55.2877 74.6711C52.9331 72.6146 49.828 71.4371 46.7015 71.4149C43.575 71.393 40.4535 72.5269 38.0703 74.5502C40.4086 76.828 43.6056 78.3717 46.8699 78.3839C50.1337 78.3965 52.9326 76.9309 55.2877 74.6711Z" fill="#61A9B8"/>
<path d="M59.8655 87.0503C59.5203 83.9431 60.3249 80.7208 62.0908 78.1411C63.8567 75.5614 66.5687 73.6447 69.5902 72.8418C70.1264 76.0615 69.57 79.5681 67.7181 82.2557C65.8657 84.943 63.0655 86.4056 59.8655 87.0503Z" fill="#61A9B8"/>
<path d="M60.1831 86.8179C58.2228 84.3826 55.3701 82.6818 52.2957 82.1153C49.2209 81.5488 45.9499 82.1212 43.2505 83.6985C45.1558 86.3488 48.0349 88.4263 51.2471 89.007C54.4584 89.5883 57.4699 88.6329 60.1831 86.8179Z" fill="#61A9B8"/>
<path d="M63.0758 99.1493C63.0019 96.0236 64.0841 92.8841 66.0675 90.4673C68.0509 88.0505 70.9196 86.3774 73.9995 85.8403C74.2539 89.0945 73.3943 92.5393 71.3152 95.0556C69.2364 97.572 66.3195 98.7852 63.0758 99.1493Z" fill="#61A9B8"/>
<path d="M63.412 98.9455C61.6709 96.3485 58.9774 94.4063 55.9634 93.5748C52.9499 92.7429 49.6411 93.0289 46.8145 94.3651C48.4821 97.1712 51.1697 99.491 54.3189 100.349C57.4685 101.207 60.5517 100.517 63.412 98.9455Z" fill="#61A9B8"/>
<path d="M64.9341 112.463C65.3469 109.364 66.9032 106.43 69.2381 104.351C71.573 102.272 74.6668 101.065 77.7924 101.013C77.5379 104.267 76.1542 107.537 73.7093 109.699C71.2652 111.862 68.195 112.607 64.9341 112.463Z" fill="#61A9B8"/>
<path d="M65.2979 112.314C63.9813 109.478 61.6221 107.141 58.774 105.851C55.9259 104.561 52.6134 104.33 49.6133 105.21C50.8248 108.241 53.1194 110.951 56.0973 112.288C59.0751 113.625 62.2276 113.423 65.2979 112.314Z" fill="#61A9B8"/>
<path d="M174.285 141.946C169.119 118.481 173.782 93.0122 186.928 72.9014" stroke="#61A9B8" stroke-width="1.06704" stroke-miterlimit="10"/>
<path d="M185.555 75.2527C189.381 73.929 192.703 71.1965 194.738 67.6966C196.774 64.1968 197.508 59.9587 196.768 55.978C192.703 57.1409 188.911 59.7412 186.797 63.4018C184.683 67.0629 184.53 71.1515 185.555 75.2527Z" fill="#61A9B8"/>
<path d="M181.386 82.9462C182.217 79.9322 181.931 76.6239 180.594 73.7972C179.257 70.971 176.882 68.6504 174.025 67.3809C172.987 70.4754 172.983 74.0261 174.389 76.9724C175.793 79.9188 178.328 81.8048 181.386 82.9462Z" fill="#61A9B8"/>
<path d="M181.109 82.6668C183.429 80.5713 186.514 79.3417 189.64 79.2678C192.765 79.1934 195.905 80.2748 198.322 82.2582C196.022 84.5746 192.851 86.1717 189.588 86.2384C186.324 86.3052 183.501 84.8871 181.109 82.6668Z" fill="#61A9B8"/>
<path d="M176.739 95.1209C177.032 92.0083 176.174 88.8003 174.365 86.25C172.556 83.7001 169.812 81.8288 166.778 81.0767C166.295 84.3048 166.91 87.8017 168.807 90.4578C170.704 93.1144 173.528 94.5301 176.739 95.1209Z" fill="#61A9B8"/>
<path d="M176.417 94.8943C178.337 92.4267 181.16 90.6784 184.225 90.0607C187.29 89.443 190.57 89.9608 193.296 91.4923C191.435 94.1741 188.591 96.2994 185.389 96.934C182.188 97.5685 179.161 96.6635 176.417 94.8943Z" fill="#61A9B8"/>
<path d="M173.731 107.272C173.753 104.146 172.618 101.025 170.595 98.6413C168.571 96.2581 165.675 94.6329 162.586 94.1475C162.386 97.4054 163.303 100.836 165.424 103.317C167.545 105.798 170.482 106.962 173.731 107.272Z" fill="#61A9B8"/>
<path d="M173.391 107.074C175.089 104.448 177.749 102.461 180.749 101.579C183.748 100.697 187.061 100.927 189.91 102.216C188.289 105.05 185.641 107.414 182.506 108.325C179.372 109.236 176.278 108.598 173.391 107.074Z" fill="#61A9B8"/>
<path d="M172.095 120.615C171.631 117.523 170.026 114.616 167.656 112.576C165.287 110.537 162.173 109.381 159.047 109.381C159.356 112.631 160.794 115.877 163.274 117.998C165.756 120.12 168.837 120.814 172.095 120.615Z" fill="#61A9B8"/>
<path d="M171.729 120.472C172.999 117.615 175.318 115.238 178.144 113.901C180.97 112.564 184.279 112.277 187.293 113.108C186.132 116.158 183.883 118.906 180.928 120.292C177.973 121.679 174.817 121.529 171.729 120.472Z" fill="#61A9B8"/>
<path d="M59.3893 157.746C60.6936 155.372 62.4255 153.175 63.564 150.732C60.5282 146.877 56.8856 143.413 53.0662 140.376C50.5692 138.391 47.9634 136.531 45.2711 134.796C42.8014 136.761 40.3317 138.726 37.862 140.69C38.2946 137.262 38.5432 134.278 38.9022 131.027C33.4177 128.053 27.6447 125.59 21.6966 123.713C20.3255 125.922 19.1563 128.267 17.3124 130.161C17.3409 127.629 17.0982 124.985 16.7534 122.298C11.2551 120.884 5.64206 119.962 0.00176263 119.592C-0.0171349 121.87 0.116409 124.144 0.378875 126.404C1.85247 125.96 2.99388 124.717 4.55482 124.483C3.52511 126.976 2.59451 129.717 1.36995 132.248C2.71335 138.261 5.0134 144.065 8.15124 149.372C10.7478 147.844 13.1809 145.742 16.3112 144.442C15.7661 149.227 15.7569 154.232 15.3441 159.072C16.9928 160.865 18.754 162.554 20.6274 164.116C23.9248 166.865 27.5427 169.212 31.3755 171.136C32.1528 168.17 32.9575 165.216 34.8825 162.725C37.1498 167.034 39.6069 170.874 41.6642 175.132C50.2437 177.568 59.3754 178.068 68.138 176.389C69.5885 176.111 70.8047 173.79 71.2553 172.383C71.7059 170.977 71.619 169.457 71.4157 167.994C70.7761 163.393 69.0661 159.109 66.6611 155.168C64.0998 155.775 61.5083 156.488 59.3893 157.746Z" fill="#61A9B8"/>
<path d="M61.8439 171.927C41.6739 160.065 23.2324 145.269 7.28027 128.149" stroke="#85CCE0" stroke-width="1.06704" stroke-miterlimit="10"/>
<path d="M178.57 162.495C177.346 160.867 175.822 159.417 174.714 157.721C176.562 154.528 178.903 151.561 181.422 148.893C183.068 147.149 184.809 145.487 186.627 143.908C188.675 145.106 190.723 146.305 192.771 147.504C192.083 144.998 191.579 142.804 190.965 140.422C194.729 137.623 198.763 135.174 202.99 133.143C204.246 134.641 205.366 136.261 206.941 137.474C206.65 135.592 206.548 133.598 206.518 131.562C210.459 129.922 214.538 128.637 218.696 127.76C218.953 129.453 219.097 131.16 219.143 132.87C217.999 132.697 217.016 131.894 215.83 131.887C216.862 133.632 217.847 135.572 219.029 137.326C218.671 141.944 217.579 146.51 215.81 150.794C213.714 149.934 211.679 148.629 209.21 147.996C210.127 151.499 210.668 155.224 211.492 158.782C210.456 160.292 209.326 161.738 208.098 163.1C205.938 165.498 203.496 167.631 200.848 169.471C199.953 167.347 199.039 165.235 197.341 163.586C196.113 167.035 194.695 170.155 193.618 173.544C187.492 176.273 180.749 177.62 174.049 177.306C172.94 177.254 171.786 175.656 171.301 174.657C170.816 173.659 170.718 172.518 170.713 171.408C170.698 167.915 171.514 164.544 172.883 161.354C174.854 161.531 176.859 161.785 178.57 162.495Z" fill="#61A9B8"/>
<path d="M178.257 173.311C192.002 162.33 204.148 149.349 214.193 134.905" stroke="#85CCE0" stroke-width="0.802307" stroke-miterlimit="10"/>
<path d="M176.786 177.375H59.7858C57.2787 177.375 55.2466 175.342 55.2466 172.836V97.7765C55.2466 95.2694 57.2791 93.2373 59.7858 93.2373H176.786C179.293 93.2373 181.325 95.2698 181.325 97.7765V172.836C181.325 175.343 179.293 177.375 176.786 177.375Z" fill="#101439"/>
<path d="M179.755 136.205C180.243 134.144 178.968 132.077 176.907 131.588C174.845 131.099 172.778 132.374 172.289 134.435C171.801 136.497 173.075 138.564 175.137 139.053C177.198 139.542 179.266 138.267 179.755 136.205Z" fill="#1C2363"/>
<path d="M57.9313 149.532C57.2606 149.532 56.7168 148.988 56.7168 148.317V122.295C56.7168 121.624 57.2606 121.081 57.9313 121.081C58.6024 121.081 59.1462 121.624 59.1462 122.295V148.317C59.1462 148.988 58.6024 149.532 57.9313 149.532Z" fill="#1C2363"/>
<path d="M170.713 96.3418H60.8711V174.268H170.713V96.3418Z" fill="#DCE8F4"/>
<path d="M170.712 96.3433H60.8726V101.581H170.712V96.3433Z" fill="#A6AFB8"/>
<path d="M64.0648 99.1777H62.6743V100.946H64.0648V99.1777Z" fill="#FC6047"/>
<path d="M65.8709 97.9463H64.4805V100.946H65.8709V97.9463Z" fill="#FC6047"/>
<path d="M67.7811 97.0942H66.3906V100.946H67.7811V97.0942Z" fill="#FC6047"/>
<path d="M161.985 97.4108V97.6665C161.985 97.8694 161.82 98.034 161.617 98.034H161.208C161.005 98.034 160.84 98.1986 160.84 98.4014V99.5202C160.84 99.723 161.005 99.8876 161.208 99.8876H161.617C161.82 99.8876 161.985 100.052 161.985 100.255V100.511C161.985 100.714 162.15 100.878 162.353 100.878H168.075C168.278 100.878 168.442 100.714 168.442 100.511V97.4099C168.442 97.2071 168.278 97.0425 168.075 97.0425H162.353C162.15 97.0433 161.985 97.2079 161.985 97.4108Z" fill="#DCE8F4"/>
<path d="M168.091 100.685H167.068C166.993 100.685 166.932 100.624 166.932 100.549V97.369C166.932 97.2938 166.993 97.2329 167.068 97.2329H168.091C168.166 97.2329 168.227 97.2938 168.227 97.369V100.549C168.227 100.624 168.166 100.685 168.091 100.685Z" fill="#B7FC47"/>
<path d="M166.508 100.685H165.486C165.411 100.685 165.35 100.624 165.35 100.549V97.369C165.35 97.2938 165.411 97.2329 165.486 97.2329H166.508C166.583 97.2329 166.644 97.2938 166.644 97.369V100.549C166.644 100.624 166.583 100.685 166.508 100.685Z" fill="#B7FC47"/>
<path d="M164.926 100.685H163.904C163.828 100.685 163.768 100.624 163.768 100.549V97.369C163.768 97.2938 163.828 97.2329 163.904 97.2329H164.926C165.001 97.2329 165.062 97.2938 165.062 97.369V100.549C165.062 100.624 165.001 100.685 164.926 100.685Z" fill="#B7FC47"/>
<path d="M159.116 98.9613C159.116 99.7755 158.456 100.436 157.641 100.436C156.827 100.436 156.167 99.7755 156.167 98.9613C156.167 98.147 156.827 97.4868 157.641 97.4868C158.456 97.4868 159.116 98.147 159.116 98.9613Z" fill="#DCE8F4"/>
<path d="M163.767 107.462H67.8174V168.264H163.767V107.462Z" fill="#C3CED9"/>
<path d="M163.767 107.462H67.8174V112.705H163.767V107.462Z" fill="#A7B1BA"/>
<path d="M161.825 115.422H99.0098V117.916H161.825V115.422Z" fill="#E0EDFA"/>
<path d="M133.678 120.169H99.0098V122.663H133.678V120.169Z" fill="#E0EDFA"/>
<path d="M117.663 124.917H99.0098V127.41H117.663V124.917Z" fill="#E0EDFA"/>
<path d="M161.825 133.148H99.0098V135.642H161.825V133.148Z" fill="#E0EDFA"/>
<path d="M133.678 137.896H99.0098V140.389H133.678V137.896Z" fill="#E0EDFA"/>
<path d="M117.663 142.643H99.0098V145.136H117.663V142.643Z" fill="#E0EDFA"/>
<path d="M161.825 150.458H99.0098V152.952H161.825V150.458Z" fill="#E0EDFA"/>
<path d="M133.678 155.206H99.0098V157.699H133.678V155.206Z" fill="#E0EDFA"/>
<path d="M117.663 159.953H99.0098V162.446H117.663V159.953Z" fill="#E0EDFA"/>
<path d="M95.9405 115.422H71.5815V129.137H95.9405V115.422Z" fill="#E0EDFA"/>
<path d="M71.5815 129.137L83.7608 122.279L95.9405 129.137H71.5815Z" fill="#CEDAE6"/>
<path d="M95.9405 115.422L83.7608 122.279L71.5815 115.422H95.9405Z" fill="#CEDAE6"/>
<path d="M95.9405 133.068H71.5815V146.782H95.9405V133.068Z" fill="#E0EDFA"/>
<path d="M71.5815 146.782L83.7608 139.925L95.9405 146.782H71.5815Z" fill="#CEDAE6"/>
<path d="M95.9405 133.068L83.7608 139.925L71.5815 133.068H95.9405Z" fill="#CEDAE6"/>
<path d="M95.9405 150.714H71.5815V164.428H95.9405V150.714Z" fill="#E0EDFA"/>
<path d="M71.5815 164.429L83.7608 157.572L95.9405 164.429H71.5815Z" fill="#CEDAE6"/>
<path d="M95.9405 150.714L83.7608 157.572L71.5815 150.714H95.9405Z" fill="#CEDAE6"/>
<g opacity="0.44">
<path d="M100.122 96.3418L60.8711 135.596V101.294L65.8273 96.3418H100.122Z" fill="white"/>
<path d="M123.944 96.3418L60.8711 159.415V141.869L106.397 96.3418H123.944Z" fill="white"/>
</g>
<g opacity="0.44">
<path d="M170.713 104.823V139.122L135.564 174.268H101.269L170.713 104.823Z" fill="white"/>
<path d="M170.714 145.394V162.94L159.382 174.267H141.84L170.714 145.394Z" fill="white"/>
</g>
<path d="M79.4033 94.2083L111.969 68.9745C114.027 67.3796 116.904 67.3796 118.963 68.9745L151.528 94.2083V136.497H79.4033V94.2083Z" fill="#EE8F23"/>
<path d="M143.184 71.7939H87.7461V132.761H143.184V71.7939Z" fill="#FAFAFA"/>
<path d="M139.847 75.4639H91.0835V77.3225H139.847V75.4639Z" fill="#DBDBDB"/>
<path d="M132.525 79.1997H91.0835V81.0584H132.525V79.1997Z" fill="#DBDBDB"/>
<path d="M125.801 82.9355H91.0835V84.7942H125.801V82.9355Z" fill="#DBDBDB"/>
<path d="M125.801 90.1079H91.0835V91.9666H125.801V90.1079Z" fill="#DBDBDB"/>
<path d="M116.835 93.6943H91.0835V95.553H116.835V93.6943Z" fill="#DBDBDB"/>
<path d="M141.216 101.208H115.465V103.067H141.216V101.208Z" fill="#DBDBDB"/>
<path d="M141.217 104.869H120.272V106.727H141.217V104.869Z" fill="#DBDBDB"/>
<path d="M115.465 115.365L79.4033 94.2334V136.497L115.465 115.365Z" fill="#FFAC42"/>
<path d="M115.465 115.365L151.528 94.2334V136.497L115.465 115.365Z" fill="#FFAC42"/>
<path d="M111.968 111.263L79.4028 136.497H151.527L118.962 111.263C116.904 109.668 114.027 109.668 111.968 111.263Z" fill="#FFBE6E"/>
<path d="M156.967 95.7476C157.801 92.7458 156.043 89.6363 153.041 88.8023C150.04 87.9682 146.93 89.7256 146.096 92.7274C145.262 95.7292 147.019 98.8387 150.021 99.6727C153.023 100.507 156.133 98.7494 156.967 95.7476Z" fill="#FC6D5F"/>
<path d="M150.257 91.3735V96.8135H148.718V92.5624H147.708V91.3735H150.257Z" fill="white"/>
<path d="M154.8 93.8213C155.165 94.1321 155.348 94.547 155.348 95.0648C155.348 95.4016 155.261 95.7111 155.087 95.9933C154.914 96.2759 154.649 96.501 154.294 96.6694C153.94 96.8378 153.5 96.9222 152.977 96.9222C152.593 96.9222 152.215 96.8756 151.839 96.7824C151.463 96.6892 151.14 96.5573 150.871 96.386L151.423 95.2282C151.64 95.3735 151.88 95.4847 152.142 95.5624C152.403 95.6401 152.666 95.6788 152.931 95.6788C153.195 95.6788 153.406 95.6284 153.564 95.5272C153.722 95.4259 153.801 95.2848 153.801 95.1034C153.801 94.9224 153.724 94.7847 153.568 94.6915C153.412 94.5982 153.138 94.5516 152.744 94.5516H151.268L151.54 91.373H155.006V92.5619H152.814L152.744 93.3548H153.109C153.871 93.3552 154.434 93.5106 154.8 93.8213Z" fill="white"/>
<path d="M58.5605 44.1093C59.5087 44.1471 60.3587 44.4112 61.1108 44.9025C61.8629 45.3935 62.442 46.0658 62.8477 46.9187C63.1467 47.5478 63.3042 48.1357 63.3193 48.6812C63.3344 49.2267 63.2248 49.6992 62.9901 50.0981C62.7553 50.4971 62.4139 50.8028 61.9667 51.0157C61.5958 51.1921 61.2414 51.266 60.9025 51.2387C60.5636 51.2114 60.26 51.077 59.9912 50.8364C59.9379 51.6078 59.5163 52.1811 58.7264 52.5569C58.314 52.753 57.8772 52.8257 57.4157 52.7753C56.9546 52.7245 56.5221 52.5506 56.1197 52.2537C55.7166 51.9564 55.3924 51.5494 55.1463 51.0321C54.9002 50.5147 54.7873 50.007 54.8074 49.5085C54.8276 49.0105 54.9645 48.5678 55.2181 48.1815C55.4718 47.7951 55.8081 47.5024 56.2277 47.303C56.8429 47.0103 57.4237 46.9783 57.9696 47.2076L57.7252 46.6936L59.4348 45.8806L60.9558 49.0793C61.0621 49.3032 61.1805 49.4438 61.3111 49.5018C61.4417 49.5597 61.5765 49.5555 61.7164 49.4888C62.1569 49.2792 62.1195 48.6329 61.6042 47.549C61.2884 46.8851 60.8517 46.3682 60.2944 45.9986C59.7372 45.6295 59.1064 45.4342 58.4022 45.4132C57.6979 45.3926 56.9752 45.5585 56.234 45.9108C55.4999 46.2598 54.9225 46.7276 54.5025 47.313C54.0822 47.8989 53.847 48.5443 53.797 49.2494C53.7466 49.9549 53.886 50.6537 54.2153 51.3458C54.5512 52.0521 55.006 52.6115 55.5797 53.0247C56.1533 53.438 56.7954 53.666 57.5064 53.7097C58.217 53.7529 58.9397 53.6001 59.6737 53.2511C60.4217 52.8954 61.0444 52.4108 61.5412 51.7972L62.463 52.735C62.2216 53.0382 61.9003 53.3409 61.4997 53.6429C61.0986 53.9448 60.6749 54.2022 60.2272 54.4152C59.2131 54.8973 58.2203 55.1123 57.2486 55.0602C56.2764 55.0081 55.4042 54.7158 54.6319 54.1825C53.8596 53.6496 53.2561 52.9252 52.8202 52.0093C52.3881 51.1005 52.2113 50.1792 52.2903 49.2456C52.3692 48.3125 52.6984 47.4504 53.2788 46.66C53.8588 45.8697 54.6592 45.2318 55.6801 44.7463C56.6522 44.284 57.6122 44.0715 58.5605 44.1093ZM59.0988 50.2443C59.1912 49.9432 59.1463 49.6005 58.9632 49.2158C58.7839 48.8383 58.5479 48.5905 58.256 48.4721C57.9637 48.3541 57.6639 48.3679 57.3565 48.5141C57.0487 48.6606 56.8505 48.8836 56.7614 49.1831C56.6724 49.4825 56.7177 49.8214 56.8971 50.1985C57.0768 50.576 57.3115 50.8267 57.6017 50.9502C57.8919 51.0737 58.1909 51.0623 58.4983 50.9162C58.8061 50.7692 59.0065 50.5458 59.0988 50.2443Z" fill="#BCDFEB"/>
<path d="M154.25 46.3371L153.71 48.0862L155.262 48.3718L154.967 49.9734L153.217 49.6513L152.641 51.4584L150.952 51.1476L151.528 49.3406L150 49.0596L149.424 50.8667L147.735 50.5559L148.311 48.7489L146.747 48.4608L147.041 46.8591L148.805 47.1837L149.345 45.4347L147.78 45.1466L148.075 43.5449L149.838 43.8695L150.414 42.0625L152.103 42.3733L151.527 44.1803L153.054 44.4612L153.63 42.6542L155.319 42.965L154.743 44.772L156.308 45.0597L156.013 46.6617L154.25 46.3371ZM152.561 46.0264L151.034 45.7454L150.494 47.4945L152.021 47.7754L152.561 46.0264Z" fill="#BCDFEB"/>
<path d="M73.2787 154.406H52.3716C46.0262 154.406 40.8823 149.262 40.8823 142.917C40.8823 136.571 46.0262 131.427 52.3716 131.427H61.7893C68.1347 131.427 73.2787 136.571 73.2787 142.917V154.406Z" fill="#FFBE6E"/>
<path d="M57.0806 134.229C52.2907 134.229 48.3936 138.127 48.3936 142.917C48.3936 147.706 52.2907 151.603 57.0806 151.603C61.8709 151.603 65.7676 147.706 65.7676 142.917C65.7676 138.126 61.8709 134.229 57.0806 134.229ZM49.5144 142.917C49.5144 142.334 49.5866 141.77 49.7118 141.225C50.1086 141.043 50.8368 140.746 51.8619 140.477C51.6309 141.785 51.5448 143.25 51.754 144.794C51.0657 144.614 50.3534 144.395 49.6223 144.138C49.5572 143.74 49.5144 143.334 49.5144 142.917ZM53.0088 140.22C54.9237 139.857 57.5299 139.688 60.6845 140.275C60.9865 141.776 61.1318 143.507 60.8664 145.287C58.8624 145.633 56.1575 145.751 52.9038 145.064C52.5876 143.302 52.7089 141.645 53.0088 140.22ZM61.8621 140.528C62.6969 140.726 63.5658 140.978 64.4666 141.292C64.5816 141.816 64.6467 142.358 64.6467 142.917C64.6467 143.352 64.6018 143.777 64.5304 144.193C64.126 144.384 63.271 144.744 62.0237 145.047C62.2094 143.454 62.1027 141.909 61.8621 140.528ZM64.05 139.972C63.2084 139.705 62.3941 139.487 61.6109 139.316C61.3056 138.052 60.9164 136.984 60.5989 136.224C62.138 137.036 63.3667 138.36 64.05 139.972ZM59.0955 135.631C59.2857 136 59.9181 137.293 60.404 139.084C57.5723 138.607 55.179 138.708 53.3153 139.01C53.8163 137.343 54.4866 136.15 54.7457 135.723C55.4818 135.484 56.2654 135.35 57.0806 135.35C57.7794 135.35 58.4529 135.453 59.0955 135.631ZM53.0978 136.496C52.774 137.213 52.4137 138.149 52.1302 139.242C51.3525 139.421 50.7012 139.625 50.1871 139.814C50.8082 138.439 51.8275 137.286 53.0978 136.496ZM49.9541 145.434C50.6482 145.658 51.3206 145.844 51.9757 146.003C52.247 147.154 52.6997 148.334 53.3859 149.513C51.7993 148.621 50.5701 147.172 49.9541 145.434ZM55.2164 150.241C54.2144 148.912 53.5711 147.571 53.1893 146.267C54.7944 146.575 56.2705 146.703 57.5925 146.703C58.715 146.703 59.7258 146.614 60.6241 146.479C60.2927 147.766 59.7187 149.053 58.8086 150.276C58.2526 150.406 57.6761 150.482 57.081 150.482C56.4364 150.483 55.814 150.393 55.2164 150.241ZM60.5632 149.626C61.1818 148.52 61.5862 147.384 61.8255 146.258C62.7918 146.048 63.5755 145.796 64.1558 145.573C63.4957 147.325 62.2085 148.769 60.5632 149.626Z" fill="#FAFAFA"/>
<path d="M155.531 168.59H176.438C182.783 168.59 187.927 163.447 187.927 157.101C187.927 150.756 182.783 145.612 176.438 145.612H167.02C160.675 145.612 155.531 150.756 155.531 157.101V168.59Z" fill="#FFBE6E"/>
<path d="M180.332 153.8C180.332 150.55 175.164 147.755 171.729 150.561C168.295 147.755 163.126 150.549 163.126 153.8C163.126 153.8 162.015 160.171 171.729 164.794C181.444 160.172 180.332 153.8 180.332 153.8Z" stroke="#FAFAFA" stroke-width="1.60058" stroke-miterlimit="10" stroke-linejoin="round"/>
<path d="M148.668 16.865C148.535 16.8146 148.402 16.7713 148.268 16.7348C148.232 16.6034 148.189 16.4715 148.139 16.3396C147.925 15.8101 147.644 15.2805 147.079 14.751C146.514 15.2805 146.234 15.8101 146.02 16.3396C145.969 16.4723 145.926 16.6055 145.889 16.7382C145.756 16.7747 145.623 16.818 145.491 16.8688C144.961 17.0829 144.431 17.3635 143.902 17.9283C144.431 18.4931 144.961 18.7736 145.491 18.9878C145.622 19.0382 145.754 19.081 145.886 19.1176C145.922 19.2507 145.965 19.3838 146.016 19.5174C146.229 20.0469 146.511 20.5765 147.079 21.106C147.647 20.5765 147.929 20.0469 148.142 19.5174C148.192 19.3855 148.236 19.2532 148.272 19.1214C148.404 19.0848 148.536 19.042 148.668 18.992C149.197 18.7787 149.727 18.4969 150.256 17.9287C149.727 17.3601 149.198 17.0783 148.668 16.865Z" fill="#BCDFEB"/>
<path d="M5.73863 105.721C5.6055 105.671 5.47238 105.628 5.33884 105.591C5.3023 105.459 5.25947 105.328 5.2095 105.196C4.99532 104.667 4.7148 104.137 4.14997 103.607C3.58514 104.137 3.30462 104.667 3.09044 105.196C3.03963 105.329 2.99638 105.462 2.95984 105.595C2.82714 105.631 2.69402 105.674 2.56131 105.725C2.03176 105.939 1.50221 106.22 0.972656 106.785C1.50221 107.35 2.03176 107.63 2.56131 107.844C2.69276 107.895 2.82462 107.937 2.95648 107.974C2.99302 108.107 3.03627 108.24 3.08667 108.374C3.3 108.903 3.58178 109.433 4.14997 109.962C4.71816 109.433 4.99994 108.903 5.21327 108.374C5.26325 108.242 5.3065 108.11 5.34262 107.978C5.47448 107.942 5.60676 107.898 5.73863 107.848C6.26818 107.635 6.79773 107.353 7.32728 106.785C6.79773 106.217 6.26818 105.935 5.73863 105.721Z" fill="#BCDFEB"/>
<path d="M159.62 79.9954C159.487 79.945 159.354 79.9017 159.221 79.8652C159.185 79.7333 159.142 79.6019 159.091 79.47C158.878 78.9405 158.597 78.4109 158.032 77.8813C157.467 78.4109 157.186 78.9405 156.972 79.47C156.922 79.6027 156.878 79.7358 156.842 79.8685C156.709 79.9051 156.576 79.9483 156.443 79.9991C155.914 80.2133 155.384 80.4938 154.854 81.0587C155.384 81.6235 155.914 81.9044 156.443 82.1182C156.575 82.1686 156.706 82.2114 156.838 82.2479C156.875 82.3811 156.918 82.5142 156.969 82.6473C157.182 83.1769 157.464 83.7064 158.032 84.236C158.6 83.7064 158.882 83.1769 159.095 82.6473C159.145 82.5155 159.188 82.3832 159.224 82.2513C159.356 82.2148 159.489 82.1719 159.62 82.122C160.15 81.9086 160.68 81.6268 161.209 81.0587C160.68 80.4909 160.15 80.2087 159.62 79.9954Z" fill="#BCDFEB"/>
<path d="M214.896 25.0908C214.829 25.0656 214.762 25.0438 214.696 25.0258C214.678 24.9598 214.656 24.8939 214.631 24.828C214.524 24.5626 214.383 24.2971 214.1 24.0317C213.817 24.2971 213.676 24.5626 213.568 24.828C213.543 24.8947 213.521 24.9611 213.503 25.0279C213.436 25.0463 213.37 25.0677 213.303 25.0934C213.038 25.2004 212.772 25.3411 212.507 25.6246C212.772 25.9076 213.038 26.0483 213.303 26.1554C213.369 26.1806 213.435 26.202 213.501 26.2205C213.519 26.2873 213.541 26.354 213.566 26.4208C213.673 26.6862 213.814 26.9516 214.099 27.217C214.384 26.9516 214.525 26.6862 214.632 26.4208C214.657 26.3545 214.678 26.2885 214.696 26.2222C214.763 26.2041 214.829 26.1823 214.895 26.1575C215.16 26.0504 215.426 25.9093 215.691 25.6246C215.427 25.339 215.161 25.1979 214.896 25.0908Z" fill="#DBF6FF"/>
<path d="M231.254 72.3686C231.188 72.3434 231.121 72.3216 231.054 72.3031C231.036 72.2372 231.014 72.1712 230.989 72.1053C230.882 71.8399 230.741 71.5745 230.458 71.3091C230.175 71.5745 230.034 71.8399 229.927 72.1053C229.902 72.1721 229.88 72.2384 229.862 72.3052C229.795 72.3237 229.729 72.3455 229.662 72.3707C229.397 72.4778 229.131 72.6185 228.866 72.9019C229.131 73.185 229.397 73.3257 229.662 73.4327C229.728 73.4579 229.794 73.4794 229.86 73.4978C229.879 73.5646 229.9 73.6314 229.926 73.6982C230.033 73.9636 230.174 74.229 230.459 74.4944C230.743 74.229 230.884 73.9636 230.991 73.6982C231.017 73.6318 231.038 73.5659 231.056 73.4995C231.122 73.481 231.188 73.4596 231.255 73.4348C231.52 73.3278 231.786 73.1867 232.051 72.9019C231.785 72.6168 231.52 72.4757 231.254 72.3686Z" fill="#DBF6FF"/>
<path d="M230.631 71.2612C230.564 71.236 230.497 71.2142 230.43 71.1957C230.412 71.1297 230.39 71.0638 230.365 70.9979C230.258 70.7325 230.117 70.4671 229.834 70.2017C229.551 70.4671 229.41 70.7325 229.303 70.9979C229.278 71.0646 229.256 71.131 229.237 71.1978C229.171 71.2163 229.104 71.2377 229.037 71.2633C228.772 71.3704 228.507 71.5111 228.241 71.7941C228.507 72.0771 228.772 72.2178 229.037 72.3249C229.103 72.3501 229.169 72.3715 229.235 72.39C229.254 72.4568 229.275 72.5235 229.301 72.5903C229.408 72.8557 229.549 73.1211 229.834 73.3865C230.118 73.1211 230.259 72.8557 230.367 72.5903C230.392 72.524 230.413 72.458 230.432 72.3917C230.498 72.3736 230.564 72.3518 230.63 72.327C230.896 72.2199 231.161 72.0788 231.427 71.7941C231.162 71.5094 230.896 71.3678 230.631 71.2612Z" fill="#DBF6FF"/>
<path d="M38.8666 85.7075C38.7998 85.6823 38.7331 85.6604 38.6663 85.642C38.6478 85.576 38.6264 85.5101 38.6012 85.4442C38.4937 85.1788 38.3534 84.9134 38.0704 84.6479C37.7874 84.9134 37.6467 85.1788 37.5392 85.4442C37.514 85.5109 37.4921 85.5773 37.4737 85.6441C37.4069 85.6625 37.3405 85.684 37.2738 85.7096C37.0084 85.8171 36.7429 85.9573 36.4775 86.2404C36.7429 86.5234 37.0084 86.6641 37.2738 86.7716C37.3397 86.7968 37.4056 86.8182 37.472 86.8367C37.49 86.9035 37.5119 86.9702 37.5371 87.037C37.6442 87.3024 37.7853 87.5678 38.07 87.8332C38.3547 87.5678 38.4958 87.3024 38.6029 87.037C38.6281 86.9711 38.6495 86.9047 38.6676 86.8384C38.7339 86.8203 38.7998 86.7985 38.8662 86.7737C39.1316 86.6666 39.397 86.5255 39.6624 86.2408C39.3974 85.9561 39.132 85.8146 38.8666 85.7075Z" fill="#BCDFEB"/>
<path d="M9.66941 169.653C9.60264 169.628 9.53587 169.606 9.4691 169.588C9.45062 169.522 9.42921 169.456 9.40401 169.39C9.29692 169.125 9.15624 168.859 8.8732 168.594C8.59015 168.859 8.44947 169.125 8.34239 169.39C8.31719 169.457 8.29535 169.523 8.27687 169.59C8.2101 169.608 8.14375 169.63 8.07698 169.655C7.81157 169.762 7.54617 169.904 7.28076 170.187C7.54617 170.47 7.81157 170.61 8.07698 170.717C8.14291 170.743 8.20884 170.764 8.27477 170.782C8.29325 170.849 8.31467 170.916 8.34029 170.982C8.44737 171.248 8.58847 171.513 8.8732 171.779C9.15792 171.513 9.29902 171.248 9.40611 170.982C9.43131 170.916 9.45272 170.85 9.47078 170.784C9.53713 170.766 9.60306 170.744 9.66941 170.719C9.93482 170.612 10.2002 170.471 10.4656 170.186C10.2002 169.901 9.9344 169.76 9.66941 169.653Z" fill="#BCDFEB"/>
<path d="M122.661 43.5722C122.594 43.547 122.527 43.5252 122.46 43.5067C122.442 43.4408 122.42 43.3748 122.395 43.3089C122.288 43.0435 122.147 42.7781 121.864 42.5127C121.581 42.7781 121.441 43.0435 121.334 43.3089C121.308 43.3757 121.287 43.442 121.268 43.5088C121.201 43.5273 121.135 43.5487 121.068 43.5743C120.803 43.6814 120.537 43.8221 120.272 44.1051C120.537 44.3882 120.803 44.5289 121.068 44.6359C121.134 44.6611 121.2 44.6826 121.266 44.701C121.284 44.7678 121.306 44.8346 121.331 44.9014C121.439 45.1668 121.58 45.4322 121.864 45.6976C122.149 45.4322 122.29 45.1668 122.397 44.9014C122.423 44.835 122.444 44.7691 122.462 44.7027C122.528 44.6847 122.594 44.6632 122.66 44.638C122.926 44.531 123.191 44.3899 123.456 44.1051C123.191 43.8204 122.926 43.6793 122.661 43.5722Z" fill="#BCDFEB"/>
<path d="M45.5375 16.5439C45.4707 16.5187 45.404 16.4969 45.3372 16.4784C45.3191 16.4125 45.2973 16.3465 45.2721 16.2806C45.1646 16.0152 45.0239 15.7498 44.7409 15.4844C44.4578 15.7498 44.3171 16.0152 44.2101 16.2806C44.1849 16.3474 44.163 16.4137 44.1445 16.4805C44.0778 16.499 44.0114 16.5204 43.9447 16.546C43.6792 16.6531 43.4138 16.7938 43.1484 17.0768C43.4138 17.3599 43.6792 17.5005 43.9447 17.6076C44.0106 17.6328 44.0765 17.6542 44.1429 17.6727C44.1613 17.7395 44.1828 17.8063 44.2084 17.873C44.3155 18.1384 44.4566 18.4038 44.7413 18.6692C45.026 18.4038 45.1671 18.1384 45.2742 17.873C45.2994 17.8067 45.3208 17.7407 45.3389 17.6744C45.4052 17.6563 45.4712 17.6345 45.5375 17.6097C45.8029 17.5026 46.0683 17.3615 46.3337 17.0768C46.0683 16.7921 45.8033 16.651 45.5375 16.5439Z" fill="#BCDFEB"/>
<path d="M210.348 88.1401C210.281 88.1149 210.214 88.0931 210.147 88.0746C210.129 88.0086 210.107 87.9427 210.082 87.8768C209.975 87.6114 209.834 87.346 209.551 87.0806C209.268 87.346 209.128 87.6114 209.02 87.8768C208.995 87.9436 208.973 88.0099 208.955 88.0767C208.888 88.0952 208.821 88.1166 208.755 88.1422C208.489 88.2497 208.224 88.39 207.958 88.6734C208.224 88.9565 208.489 89.0971 208.755 89.2042C208.821 89.2294 208.887 89.2508 208.953 89.2693C208.971 89.3361 208.992 89.4029 209.018 89.4696C209.125 89.735 209.266 90.0004 209.551 90.2659C209.836 90.0004 209.977 89.735 210.084 89.4696C210.109 89.4033 210.13 89.3374 210.149 89.271C210.214 89.2529 210.281 89.2311 210.347 89.2063C210.613 89.0992 210.878 88.9581 211.143 88.6734C210.878 88.3883 210.613 88.2472 210.348 88.1401Z" fill="#BCDFEB"/>
<path d="M131.541 60.3286C131.474 60.3034 131.407 60.2815 131.341 60.2631C131.322 60.1971 131.301 60.1312 131.276 60.0653C131.168 59.7999 131.028 59.5344 130.745 59.269C130.462 59.5344 130.321 59.7999 130.213 60.0653C130.188 60.132 130.166 60.1984 130.148 60.2652C130.082 60.2836 130.015 60.3051 129.948 60.3307C129.683 60.4378 129.417 60.5784 129.152 60.8615C129.417 61.1445 129.683 61.2852 129.948 61.3927C130.014 61.4179 130.08 61.4393 130.146 61.4578C130.164 61.5246 130.186 61.5914 130.211 61.6581C130.318 61.9235 130.46 62.1889 130.744 62.4543C131.029 62.1889 131.17 61.9235 131.277 61.6581C131.302 61.5918 131.324 61.5258 131.342 61.4595C131.408 61.4414 131.474 61.4196 131.541 61.3948C131.806 61.2877 132.071 61.1466 132.337 60.8619C132.072 60.5768 131.806 60.4357 131.541 60.3286Z" fill="#DBF6FF"/>
<path d="M101.518 28.8191C101.401 28.7746 101.284 28.7368 101.167 28.7045C101.135 28.5886 101.097 28.4731 101.053 28.3572C100.865 27.8915 100.618 27.4262 100.122 26.9604C99.6252 27.4262 99.3783 27.8915 99.1902 28.3572C99.1456 28.4739 99.1074 28.5907 99.0751 28.7074C98.9584 28.7398 98.8416 28.7776 98.7249 28.8221C98.2596 29.0102 97.7938 29.2571 97.3281 29.7535C97.7938 30.2499 98.2592 30.4968 98.7249 30.685C98.8408 30.729 98.9563 30.7668 99.0722 30.7988C99.1045 30.9159 99.1423 31.0331 99.1868 31.1498C99.3745 31.6156 99.6223 32.0809 100.122 32.5466C100.621 32.0813 100.869 31.6156 101.056 31.1498C101.1 31.0339 101.138 30.9176 101.17 30.8017C101.286 30.7698 101.402 30.732 101.518 30.6879C101.984 30.5002 102.449 30.2524 102.915 29.7531C102.449 29.2546 101.984 29.0068 101.518 28.8191Z" fill="#BCDFEB"/>
<path d="M30.2245 62.7249C30.1073 62.6804 29.9901 62.6426 29.873 62.6102C29.8411 62.4943 29.8033 62.3789 29.7592 62.263C29.571 61.7972 29.3241 61.3319 28.8277 60.8662C28.3314 61.3315 28.0844 61.7972 27.8963 62.263C27.8518 62.3797 27.8136 62.4964 27.7816 62.6132C27.6649 62.6455 27.5481 62.6833 27.4314 62.7278C26.9657 62.916 26.5004 63.1629 26.0347 63.6593C26.5 64.1557 26.9657 64.4026 27.4314 64.5907C27.5473 64.6348 27.6628 64.6726 27.7787 64.7045C27.8106 64.8217 27.8488 64.9388 27.8933 65.0556C28.0811 65.5213 28.3288 65.9866 28.8281 66.4523C29.3275 65.9866 29.5752 65.5213 29.7629 65.0556C29.807 64.9397 29.8448 64.8234 29.8768 64.7075C29.9927 64.6755 30.109 64.6377 30.2249 64.5937C30.6906 64.4059 31.1559 64.1582 31.6216 63.6589C31.1555 63.16 30.6898 62.9126 30.2245 62.7249Z" fill="#BCDFEB"/>
<path d="M180.907 51.4447C180.79 51.4002 180.673 51.3624 180.556 51.33C180.524 51.2141 180.486 51.0987 180.442 50.9827C180.254 50.5174 180.007 50.0517 179.511 49.5864C179.014 50.0517 178.768 50.5174 178.579 50.9827C178.535 51.0995 178.497 51.2162 178.465 51.333C178.348 51.3653 178.231 51.4031 178.115 51.4476C177.649 51.6358 177.183 51.8827 176.718 52.3791C177.183 52.8754 177.649 53.1224 178.115 53.3105C178.23 53.3546 178.346 53.3924 178.462 53.4243C178.494 53.5415 178.532 53.6586 178.576 53.7758C178.764 54.2411 179.012 54.7068 179.511 55.1721C180.011 54.7068 180.258 54.2411 180.446 53.7758C180.49 53.6599 180.528 53.5436 180.56 53.4277C180.676 53.3958 180.792 53.358 180.908 53.3139C181.374 53.1261 181.839 52.8784 182.305 52.3791C181.838 51.8802 181.373 51.6324 180.907 51.4447Z" fill="#DBF6FF"/>
<path d="M250.697 35.7571C250.58 35.7126 250.463 35.6748 250.346 35.6425C250.314 35.5266 250.276 35.4111 250.232 35.2952C250.044 34.8299 249.797 34.3642 249.3 33.8984C248.804 34.3637 248.557 34.8295 248.369 35.2952C248.324 35.4119 248.286 35.5287 248.254 35.6454C248.138 35.6778 248.021 35.7155 247.904 35.7601C247.438 35.9482 246.973 36.1951 246.507 36.6915C246.973 37.1879 247.438 37.4348 247.904 37.6229C248.02 37.667 248.135 37.7048 248.251 37.7367C248.283 37.8539 248.322 37.9711 248.366 38.0882C248.554 38.5535 248.802 39.0193 249.301 39.4846C249.8 39.0193 250.048 38.5535 250.236 38.0882C250.28 37.9723 250.318 37.856 250.349 37.7401C250.465 37.7082 250.582 37.6704 250.698 37.6263C251.163 37.4386 251.629 37.1908 252.094 36.6915C251.628 36.1926 251.162 35.9448 250.697 35.7571Z" fill="#DBF6FF"/>
<path d="M177.475 14.2005C177.358 14.156 177.241 14.1182 177.124 14.0858C177.092 13.9699 177.054 13.8544 177.01 13.7385C176.822 13.2728 176.575 12.8075 176.079 12.3418C175.582 12.8075 175.335 13.2728 175.147 13.7385C175.103 13.8553 175.065 13.972 175.033 14.0888C174.916 14.1211 174.799 14.1589 174.682 14.2034C174.217 14.3916 173.751 14.6385 173.286 15.1349C173.751 15.6312 174.217 15.8782 174.682 16.0663C174.798 16.1104 174.913 16.1482 175.029 16.1801C175.062 16.2973 175.099 16.4144 175.144 16.5316C175.332 16.9969 175.579 17.4626 176.079 17.9279C176.578 17.4626 176.826 16.9969 177.014 16.5316C177.058 16.4157 177.095 16.2994 177.127 16.1835C177.243 16.1516 177.36 16.1138 177.475 16.0697C177.941 15.8819 178.406 15.6342 178.872 15.1349C178.406 14.636 177.94 14.3882 177.475 14.2005Z" fill="#DBF6FF"/>
</svg>
