<svg width="282" height="183" viewBox="0 0 282 183" fill="none" xmlns="http://www.w3.org/2000/svg">
<path d="M161.233 46.9122C190.762 84.0639 259.023 46.4976 270.941 98.0049C282.859 149.512 212.012 191.17 119.064 181.57C26.1153 171.969 -7.58194 113.425 4.76904 67.4956C27.9433 -18.6813 122.38 -1.96952 161.233 46.9122ZM245.511 38.0856C251.245 5.84158 183.564 -14.2498 168.228 17.862C152.891 49.9738 239.572 71.4853 245.511 38.0856Z" fill="#FFB8DC"/>
<path d="M266.969 65.0606C268.983 65.0606 270.617 63.4272 270.617 61.4124C270.617 59.3975 268.983 57.7642 266.969 57.7642C264.954 57.7642 263.32 59.3975 263.32 61.4124C263.32 63.4272 264.954 65.0606 266.969 65.0606Z" fill="#FFB8DC"/>
<path d="M16.1427 99.2061C18.1313 98.8833 19.4818 97.0094 19.159 95.0205C18.8362 93.0317 16.9624 91.681 14.9738 92.0038C12.9852 92.3265 11.6347 94.2004 11.9575 96.1893C12.2803 98.1782 14.154 99.5288 16.1427 99.2061Z" fill="white"/>
<path d="M222.139 20.1314C224.154 20.1314 225.787 18.498 225.787 16.4832C225.787 14.4683 224.154 12.835 222.139 12.835C220.124 12.835 218.491 14.4683 218.491 16.4832C218.491 18.498 220.124 20.1314 222.139 20.1314Z" fill="white"/>
<path d="M29.7306 173.634C31.6914 173.171 32.9057 171.206 32.4427 169.245C31.9797 167.284 30.0147 166.07 28.0539 166.533C26.093 166.996 24.8788 168.961 25.3418 170.922C25.8048 172.883 27.7697 174.097 29.7306 173.634Z" fill="#FFB8DC"/>
<path d="M12.7467 20.66C14.7076 20.197 15.9218 18.232 15.4588 16.2712C14.9958 14.3103 13.0308 13.0961 11.07 13.5591C9.10912 14.0221 7.89488 15.9871 8.35789 17.9479C8.82091 19.9088 10.7858 21.123 12.7467 20.66Z" fill="#FFB8DC"/>
<path d="M276.733 173.622C278.693 173.159 279.908 171.194 279.445 169.234C278.982 167.273 277.017 166.058 275.056 166.522C273.095 166.985 271.881 168.949 272.344 170.91C272.807 172.871 274.772 174.085 276.733 173.622Z" fill="#FFB8DC"/>
<path d="M151.268 10.1795C152.693 8.75481 152.693 6.44491 151.268 5.0202C149.844 3.5955 147.534 3.59549 146.109 5.0202C144.684 6.4449 144.684 8.75481 146.109 10.1795C147.534 11.6042 149.844 11.6042 151.268 10.1795Z" fill="#FFB8DC"/>
<circle cx="45.4816" cy="154.472" r="0.627633" fill="#2A2A68"/>
<circle cx="6.75556" cy="162.947" r="0.627633" fill="#2A2A68"/>
<circle cx="264.651" cy="151.028" r="0.627633" fill="#2A2A68"/>
<circle cx="257.699" cy="104.349" r="0.627633" fill="#2A2A68"/>
<circle cx="263.989" cy="28.5368" r="0.627633" fill="#2A2A68"/>
<circle cx="280.872" cy="82.4992" r="0.627633" fill="#2A2A68"/>
<circle cx="200.094" cy="10.6591" r="0.627633" fill="#2A2A68"/>
<circle cx="1.12763" cy="51.3796" r="0.627633" fill="#2A2A68"/>
<circle cx="161.692" cy="27.5429" r="0.627633" fill="#2A2A68"/>
<path d="M241.381 174.373H74.3369C71.3586 174.373 68.9438 171.959 68.9438 168.98V43.9741C68.9438 40.9958 71.3586 38.5811 74.3369 38.5811H241.381C244.359 38.5811 246.774 40.9958 246.774 43.9741V168.98C246.774 171.959 244.359 174.373 241.381 174.373Z" fill="#2A2A68" stroke="#2A2A68" stroke-width="0.418422" stroke-miterlimit="10" stroke-linecap="round" stroke-linejoin="round"/>
<path d="M236.222 174.373H69.1782C66.1999 174.373 63.7852 171.959 63.7852 168.98V43.9741C63.7852 40.9958 66.1999 38.5811 69.1782 38.5811H236.222C239.2 38.5811 241.615 40.9958 241.615 43.9741V168.98C241.615 171.959 239.2 174.373 236.222 174.373Z" fill="white" stroke="#2A2A68" stroke-width="0.418422" stroke-miterlimit="10" stroke-linecap="round" stroke-linejoin="round"/>
<path d="M234.625 157.348L234.625 45.572L70.7767 45.572L70.7767 157.348L234.625 157.348Z" fill="#92B7F7"/>
<path d="M101.701 87.0886H96.167V92.6223H101.701V87.0886Z" fill="#D1DCF8"/>
<path d="M233.786 148.243H229.401V142.71H233.786" fill="#D1DCF8"/>
<path d="M214.747 70.6328H209.214V76.1664H214.747V70.6328Z" fill="#D1DCF8"/>
<path d="M147.978 103.061H142.445V108.595H147.978V103.061Z" fill="#D1DCF8"/>
<path d="M166.002 55.708H160.468V61.2416H166.002V55.708Z" fill="#D1DCF8"/>
<path d="M81.7412 49.1912H76.2075V54.7248H81.7412V49.1912Z" fill="#D1DCF8"/>
<path d="M83.1655 115.011H77.6318V120.545H83.1655V115.011Z" fill="#D1DCF8"/>
<path d="M140.27 74.9766H134.736V80.5102H140.27V74.9766Z" fill="#D1DCF8"/>
<path d="M80.4242 86.6421C80.872 86.6421 81.2351 86.279 81.2351 85.8312C81.2351 85.3833 80.872 85.0203 80.4242 85.0203C79.9763 85.0203 79.6133 85.3833 79.6133 85.8312C79.6133 86.279 79.9763 86.6421 80.4242 86.6421Z" stroke="#2A2A68" stroke-width="0.418422" stroke-miterlimit="10" stroke-linecap="round" stroke-linejoin="round"/>
<path d="M84.0018 151.023C84.4497 151.023 84.8127 150.66 84.8127 150.212C84.8127 149.764 84.4497 149.401 84.0018 149.401C83.554 149.401 83.1909 149.764 83.1909 150.212C83.1909 150.66 83.554 151.023 84.0018 151.023Z" stroke="#2A2A68" stroke-width="0.418422" stroke-miterlimit="10" stroke-linecap="round" stroke-linejoin="round"/>
<path d="M97.0047 116.666C97.4526 116.666 97.8156 116.303 97.8156 115.856C97.8156 115.408 97.4526 115.045 97.0047 115.045C96.5569 115.045 96.1938 115.408 96.1938 115.856C96.1938 116.303 96.5569 116.666 97.0047 116.666Z" stroke="#2A2A68" stroke-width="0.418422" stroke-miterlimit="10" stroke-linecap="round" stroke-linejoin="round"/>
<path d="M99.7718 54.924C100.22 54.924 100.583 54.561 100.583 54.1131C100.583 53.6653 100.22 53.3022 99.7718 53.3022C99.324 53.3022 98.9609 53.6653 98.9609 54.1131C98.9609 54.561 99.324 54.924 99.7718 54.924Z" stroke="#2A2A68" stroke-width="0.418422" stroke-miterlimit="10" stroke-linecap="round" stroke-linejoin="round"/>
<path d="M116.575 80.678C117.023 80.678 117.386 80.3149 117.386 79.8671C117.386 79.4192 117.023 79.0562 116.575 79.0562C116.127 79.0562 115.764 79.4192 115.764 79.8671C115.764 80.3149 116.127 80.678 116.575 80.678Z" stroke="#2A2A68" stroke-width="0.418422" stroke-miterlimit="10" stroke-linecap="round" stroke-linejoin="round"/>
<path d="M141.136 61.2156C141.583 61.2156 141.947 60.8525 141.947 60.4047C141.947 59.9568 141.583 59.5938 141.136 59.5938C140.688 59.5938 140.325 59.9568 140.325 60.4047C140.325 60.8525 140.688 61.2156 141.136 61.2156Z" stroke="#2A2A68" stroke-width="0.418422" stroke-miterlimit="10" stroke-linecap="round" stroke-linejoin="round"/>
<path d="M159.252 98.6733C159.7 98.6733 160.063 98.3103 160.063 97.8624C160.063 97.4146 159.7 97.0515 159.252 97.0515C158.804 97.0515 158.441 97.4146 158.441 97.8624C158.441 98.3103 158.804 98.6733 159.252 98.6733Z" stroke="#2A2A68" stroke-width="0.418422" stroke-miterlimit="10" stroke-linecap="round" stroke-linejoin="round"/>
<path d="M205.774 57.6381C205.774 57.1899 205.411 56.8271 204.963 56.8271C204.515 56.8271 204.152 57.1903 204.152 57.6381C204.152 58.0858 204.516 58.4489 204.963 58.4489C205.411 58.4489 205.774 58.0858 205.774 57.6381Z" stroke="#2A2A68" stroke-width="0.418422" stroke-miterlimit="10" stroke-linecap="round" stroke-linejoin="round"/>
<path d="M186.026 71.357C186.026 70.9089 185.662 70.5461 185.215 70.5461C184.767 70.5461 184.404 70.9093 184.404 71.357C184.404 71.8052 184.767 72.1679 185.215 72.1679C185.662 72.1684 186.026 71.8052 186.026 71.357Z" stroke="#2A2A68" stroke-width="0.418422" stroke-miterlimit="10" stroke-linecap="round" stroke-linejoin="round"/>
<path d="M210.861 94.994C210.861 94.5459 210.498 94.1831 210.05 94.1831C209.602 94.1831 209.239 94.5463 209.239 94.994C209.239 95.4417 209.602 95.8049 210.05 95.8049C210.498 95.8049 210.861 95.4417 210.861 94.994Z" stroke="#2A2A68" stroke-width="0.418422" stroke-miterlimit="10" stroke-linecap="round" stroke-linejoin="round"/>
<path d="M102.538 86.252H97.0044V91.7856H102.538V86.252Z" stroke="#2A2A68" stroke-width="0.418422" stroke-miterlimit="10" stroke-linecap="round" stroke-linejoin="round"/>
<path d="M234.624 147.407H230.238V141.873H234.624" stroke="#2A2A68" stroke-width="0.418422" stroke-miterlimit="10" stroke-linecap="round" stroke-linejoin="round"/>
<path d="M215.584 69.7959H210.051V75.3295H215.584V69.7959Z" stroke="#2A2A68" stroke-width="0.418422" stroke-miterlimit="10" stroke-linecap="round" stroke-linejoin="round"/>
<path d="M148.815 102.224H143.282V107.758H148.815V102.224Z" stroke="#2A2A68" stroke-width="0.418422" stroke-miterlimit="10" stroke-linecap="round" stroke-linejoin="round"/>
<path d="M166.838 54.8711H161.305V60.4047H166.838V54.8711Z" stroke="#2A2A68" stroke-width="0.418422" stroke-miterlimit="10" stroke-linecap="round" stroke-linejoin="round"/>
<path d="M82.5781 48.3542H77.0444V53.8879H82.5781V48.3542Z" stroke="#2A2A68" stroke-width="0.418422" stroke-miterlimit="10" stroke-linecap="round" stroke-linejoin="round"/>
<path d="M84.0024 114.174H78.4688V119.708H84.0024V114.174Z" stroke="#2A2A68" stroke-width="0.418422" stroke-miterlimit="10" stroke-linecap="round" stroke-linejoin="round"/>
<path d="M141.106 74.1396H135.573V79.6733H141.106V74.1396Z" stroke="#2A2A68" stroke-width="0.418422" stroke-miterlimit="10" stroke-linecap="round" stroke-linejoin="round"/>
<path d="M95.1382 65.9297L89.7104 71.357" stroke="#2A2A68" stroke-width="0.418422" stroke-miterlimit="10" stroke-linecap="round" stroke-linejoin="round"/>
<path d="M157.362 79.6455L151.934 85.0733" stroke="#2A2A68" stroke-width="0.418422" stroke-miterlimit="10" stroke-linecap="round" stroke-linejoin="round"/>
<path d="M234.624 55.4072L230.49 59.5408" stroke="#2A2A68" stroke-width="0.418422" stroke-miterlimit="10" stroke-linecap="round" stroke-linejoin="round"/>
<path d="M227.525 124.627L222.098 130.055" stroke="#2A2A68" stroke-width="0.418422" stroke-miterlimit="10" stroke-linecap="round" stroke-linejoin="round"/>
<path d="M181.367 52.2102L175.939 57.638" stroke="#2A2A68" stroke-width="0.418422" stroke-miterlimit="10" stroke-linecap="round" stroke-linejoin="round"/>
<path d="M119.289 98.1838L113.861 103.611" stroke="#2A2A68" stroke-width="0.418422" stroke-miterlimit="10" stroke-linecap="round" stroke-linejoin="round"/>
<path d="M89.7104 134.701L95.1382 140.129" stroke="#2A2A68" stroke-width="0.418422" stroke-miterlimit="10" stroke-linecap="round" stroke-linejoin="round"/>
<path d="M130.541 89.0461L135.968 94.4739" stroke="#2A2A68" stroke-width="0.418422" stroke-miterlimit="10" stroke-linecap="round" stroke-linejoin="round"/>
<path d="M120.121 54.9241L125.548 60.3514" stroke="#2A2A68" stroke-width="0.418422" stroke-miterlimit="10" stroke-linecap="round" stroke-linejoin="round"/>
<path d="M224.811 97.6338L230.239 103.061" stroke="#2A2A68" stroke-width="0.418422" stroke-miterlimit="10" stroke-linecap="round" stroke-linejoin="round"/>
<path d="M152.7 170.095C154.914 170.095 156.71 168.299 156.71 166.084C156.71 163.87 154.914 162.074 152.7 162.074C150.485 162.074 148.689 163.87 148.689 166.084C148.689 168.299 150.485 170.095 152.7 170.095Z" fill="#FFB8DC" stroke="#2A2A68" stroke-width="0.418422" stroke-miterlimit="10" stroke-linecap="round" stroke-linejoin="round"/>
<path d="M234.625 157.348L234.625 45.572L70.7767 45.572L70.7767 157.348L234.625 157.348Z" stroke="#2A2A68" stroke-width="0.418422" stroke-miterlimit="10" stroke-linecap="round" stroke-linejoin="round"/>
<path d="M213.015 105.281H117.737C111.004 105.281 105.546 110.739 105.546 117.471V157.348H225.205V117.471C225.205 110.739 219.748 105.281 213.015 105.281Z" fill="#FBB217"/>
<path d="M213.014 105.281C208.106 105.281 208.842 113.253 208.842 123.808C208.842 130.354 208.842 139.665 208.842 157.348H225.205V117.471C225.205 110.739 219.747 105.281 213.014 105.281Z" fill="#D68A0F"/>
<path d="M213.015 105.281H117.737C111.004 105.281 105.546 110.739 105.546 117.471V157.348H225.205V117.471C225.205 110.739 219.748 105.281 213.015 105.281Z" stroke="#2A2A68" stroke-width="0.418422" stroke-miterlimit="10" stroke-linecap="round" stroke-linejoin="round"/>
<path d="M208.842 157.348C208.842 139.665 208.842 130.354 208.842 123.808C208.842 113.253 208.106 105.281 213.014 105.281" stroke="#2A2A68" stroke-width="0.418422" stroke-miterlimit="10" stroke-linecap="round" stroke-linejoin="round"/>
<path d="M122.874 145.987C122.874 135.332 122.874 128.789 122.874 123.808C122.874 117.832 122.138 105.281 127.047 105.281" stroke="#2A2A68" stroke-width="0.418422" stroke-miterlimit="10" stroke-linecap="round" stroke-linejoin="round"/>
<path d="M122.874 157.347C122.874 155.357 122.874 153.382 122.874 151.596" stroke="#2A2A68" stroke-width="0.418422" stroke-miterlimit="10" stroke-linecap="round" stroke-linejoin="round"/>
<path d="M123.906 148.791C123.906 149.383 123.426 149.863 122.834 149.863C122.243 149.863 121.763 149.383 121.763 148.791C121.763 148.199 122.243 147.72 122.834 147.72C123.426 147.72 123.906 148.199 123.906 148.791Z" stroke="#2A2A68" stroke-width="0.418422" stroke-miterlimit="10" stroke-linecap="round" stroke-linejoin="round"/>
<path d="M158.606 145.987C158.606 135.332 158.606 128.789 158.606 123.808C158.606 117.832 157.87 105.281 162.779 105.281" stroke="#2A2A68" stroke-width="0.418422" stroke-miterlimit="10" stroke-linecap="round" stroke-linejoin="round"/>
<path d="M158.606 157.347C158.606 155.357 158.606 153.382 158.606 151.596" stroke="#2A2A68" stroke-width="0.418422" stroke-miterlimit="10" stroke-linecap="round" stroke-linejoin="round"/>
<path d="M159.638 148.791C159.638 149.383 159.158 149.863 158.566 149.863C157.974 149.863 157.495 149.383 157.495 148.791C157.495 148.199 157.975 147.72 158.566 147.72C159.158 147.72 159.638 148.199 159.638 148.791Z" stroke="#2A2A68" stroke-width="0.418422" stroke-miterlimit="10" stroke-linecap="round" stroke-linejoin="round"/>
<path d="M194.336 145.987C194.336 135.332 194.336 128.789 194.336 123.808C194.336 117.832 193.6 105.281 198.509 105.281" stroke="#2A2A68" stroke-width="0.418422" stroke-miterlimit="10" stroke-linecap="round" stroke-linejoin="round"/>
<path d="M194.336 157.347C194.336 155.357 194.336 153.382 194.336 151.596" stroke="#2A2A68" stroke-width="0.418422" stroke-miterlimit="10" stroke-linecap="round" stroke-linejoin="round"/>
<path d="M195.368 148.791C195.368 149.383 194.888 149.863 194.296 149.863C193.704 149.863 193.225 149.383 193.225 148.791C193.225 148.199 193.705 147.72 194.296 147.72C194.888 147.72 195.368 148.199 195.368 148.791Z" stroke="#2A2A68" stroke-width="0.418422" stroke-miterlimit="10" stroke-linecap="round" stroke-linejoin="round"/>
<path d="M136.817 129.228C136.817 129.228 135.062 126.888 134.178 124.285C134.178 124.285 130.596 119.939 131.408 119.199C132.22 118.459 135.13 121.989 135.13 121.989C135.13 121.989 131.385 117.241 132.411 116.453C133.438 115.665 136.602 120.864 136.602 120.864C136.602 120.864 133.198 115.027 134.37 114.327C135.85 113.443 138.597 120.109 138.597 120.109C138.597 120.109 136.208 114.566 137.689 114.017C139.169 113.467 140.961 120.178 140.961 120.178C140.961 120.178 142.463 117.246 143.301 117.838C144.34 118.572 142.441 122.476 142.441 122.476L143.157 126.148L142.13 129.993L136.817 129.228Z" fill="#9B6537"/>
<path d="M140.96 120.177C140.56 121.097 140.327 121.759 140.327 121.759C140.327 121.759 137.64 122.601 137.981 124.553" stroke="#2A2A68" stroke-width="0.418422" stroke-miterlimit="10" stroke-linecap="round" stroke-linejoin="round"/>
<path d="M134.775 122.366C134.775 122.366 136.208 120.542 139.073 120.005" stroke="#2A2A68" stroke-width="0.418422" stroke-miterlimit="10" stroke-linecap="round" stroke-linejoin="round"/>
<path d="M134.178 124.285C134.178 124.285 130.596 119.939 131.408 119.199C132.22 118.459 135.13 121.989 135.13 121.989C135.13 121.989 131.385 117.241 132.411 116.453C133.438 115.665 136.602 120.864 136.602 120.864C136.602 120.864 133.198 115.027 134.37 114.327C135.85 113.443 138.597 120.109 138.597 120.109C138.597 120.109 136.208 114.566 137.689 114.017C139.169 113.467 140.961 120.178 140.961 120.178C140.961 120.178 142.463 117.246 143.301 117.838C144.34 118.572 142.441 122.476 142.441 122.476" stroke="#2A2A68" stroke-width="0.418422" stroke-miterlimit="10" stroke-linecap="round" stroke-linejoin="round"/>
<path d="M168.327 113.444C162.262 115.641 153.832 123.712 152.399 142.769L143.158 126.148C143.158 126.148 136.71 129.265 136.817 129.229C136.925 129.193 140.101 156.04 159.921 156.04L168.327 113.444Z" fill="#FF5678"/>
<path d="M152.541 154.609C154.7 155.513 157.147 156.04 159.922 156.04L161.894 146.048C161.758 138.701 161.569 129.992 161.569 129.992C161.569 129.992 154.45 145.477 152.541 154.609Z" fill="#E04469"/>
<path d="M188.673 112.44C188.096 112.308 187.497 112.192 186.881 112.092L179.405 115.402L171.93 112.38C170.566 112.663 169.34 113.02 168.327 113.444C168.327 113.444 163.818 119.905 161.569 129.993C158.56 143.485 157.557 157.348 157.557 157.348H196.601C196.888 119.628 188.673 112.44 188.673 112.44Z" fill="#FF5678"/>
<path d="M172.327 157.347H196.601C196.621 154.789 196.6 152.376 196.547 150.092L172.327 154.929V157.347Z" fill="#E04469"/>
<path d="M186.881 112.091C182.102 111.309 176.304 111.469 171.929 112.379C172.716 114.032 175.006 117.71 179.837 117.765C184.375 117.818 186.215 114.111 186.881 112.091Z" fill="#9B6537"/>
<path d="M168.169 94.6188C168.169 94.6188 161.292 92.3011 162.295 84.4206C163.298 76.54 171.417 77.543 173.948 79.31C173.948 79.31 179.393 73.9132 186.031 79.31C192.67 84.7068 189.948 96.0263 186.557 99.2737C183.166 102.522 186.844 107.345 181.781 108.062L168.169 94.6188Z" fill="#2A2A68"/>
<path d="M175.875 115.232V107.895C175.875 107.895 168.266 108.826 167.119 101.567C165.973 94.3071 168.743 89.3877 168.743 89.3877C168.743 89.3877 174.426 91.5848 180.158 90.1517C180.158 90.1517 179.955 95.5368 181.674 95.5368C183.393 95.5368 182.892 92.6711 185.686 92.8501C188.48 93.0292 189.483 100.627 182.784 100.126V115.641L175.875 115.232Z" fill="#9B6537"/>
<path d="M175.874 107.895C178.887 107.362 179.793 106.78 179.793 106.78C179.793 106.78 178.973 110.952 175.874 111.469V107.895Z" fill="#8C542A"/>
<path d="M181.152 100.126C181.152 99.0886 180.311 98.2476 179.274 98.2476C178.236 98.2476 177.395 99.0886 177.395 100.126C177.395 101.164 178.236 102.005 179.274 102.005C180.311 102.005 181.152 101.164 181.152 100.126Z" fill="#B7713D"/>
<path d="M168.72 99.6421C168.72 98.6053 167.88 97.7647 166.843 97.7634C166.828 98.9174 166.903 100.166 167.108 101.494C168.019 101.364 168.72 100.588 168.72 99.6421Z" fill="#B7713D"/>
<path d="M184.193 95.5847L186.319 96.1098" stroke="#2A2A68" stroke-width="0.418422" stroke-miterlimit="10" stroke-linecap="round" stroke-linejoin="round"/>
<path d="M184.479 97.7101L185.255 95.8477" stroke="#2A2A68" stroke-width="0.418422" stroke-miterlimit="10" stroke-linecap="round" stroke-linejoin="round"/>
<path d="M174.94 94.8924C174.94 94.8924 176.803 92.6359 179.06 95.2506" stroke="#2A2A68" stroke-width="0.418422" stroke-miterlimit="10" stroke-linecap="round" stroke-linejoin="round"/>
<path d="M169.984 94.6192C169.984 94.6192 168.814 92.8505 167.549 94.379" stroke="#2A2A68" stroke-width="0.418422" stroke-miterlimit="10" stroke-linecap="round" stroke-linejoin="round"/>
<path d="M172.206 94.9519C172.206 94.9519 170.815 95.8469 170.797 96.6474C170.777 97.5311 172.493 97.0771 172.493 97.0771" stroke="#2A2A68" stroke-width="0.418422" stroke-miterlimit="10" stroke-linecap="round" stroke-linejoin="round"/>
<path d="M171.588 101.266C171.588 100.931 171.316 100.66 170.981 100.66C170.647 100.66 170.375 100.931 170.375 101.266C170.375 101.601 170.647 101.873 170.981 101.873C171.316 101.873 171.588 101.601 171.588 101.266Z" stroke="#2A2A68" stroke-width="0.418422" stroke-miterlimit="10" stroke-linecap="round" stroke-linejoin="round"/>
<path d="M173.482 157.679C173.482 157.679 172.996 158.457 170.632 158.135C170.632 158.135 169.557 159.245 169.056 159.532C169.056 159.532 169.736 162.398 168.805 162.362C167.874 162.326 167.372 160.141 167.372 160.141C167.372 160.141 167.444 163.221 166.584 163.257C165.725 163.293 165.474 160.714 165.474 160.714C165.474 160.714 165.259 162.827 164.256 162.612C163.253 162.397 164.292 158.995 164.292 158.995C164.292 158.995 162.807 161.624 162.126 160.656C161.446 159.689 163.623 153.036 172.029 151.436L174.99 153.92L173.482 157.679Z" fill="#9B6537"/>
<path d="M167.372 160.141C167.086 158.851 168.106 157.383 168.894 157.025" stroke="#2A2A68" stroke-width="0.418422" stroke-miterlimit="10" stroke-linecap="round" stroke-linejoin="round"/>
<path d="M165.474 160.714C165.242 159.156 165.604 157.221 168.109 156.039" stroke="#2A2A68" stroke-width="0.418422" stroke-miterlimit="10" stroke-linecap="round" stroke-linejoin="round"/>
<path d="M164.292 158.995C164.292 158.995 164.811 155.807 167.323 154.929" stroke="#2A2A68" stroke-width="0.418422" stroke-miterlimit="10" stroke-linecap="round" stroke-linejoin="round"/>
<path d="M173.482 157.679C173.482 157.679 172.996 158.457 170.632 158.135C170.632 158.135 169.557 159.245 169.056 159.532C169.056 159.532 169.736 162.398 168.805 162.362C167.874 162.326 167.372 160.141 167.372 160.141C167.372 160.141 167.444 163.221 166.584 163.257C165.725 163.293 165.474 160.714 165.474 160.714C165.474 160.714 165.259 162.827 164.256 162.612C163.253 162.397 164.292 158.995 164.292 158.995C164.292 158.995 162.807 161.624 162.126 160.656C161.446 159.689 163.623 153.036 172.029 151.436L174.99 153.92L173.482 157.679Z" stroke="#2A2A68" stroke-width="0.418422" stroke-miterlimit="10" stroke-linecap="round" stroke-linejoin="round"/>
<path d="M188.673 112.44C188.673 112.44 199.61 113.969 203.048 126.721C207.274 142.392 202.762 150.124 194.261 154.04C185.759 157.956 173.482 157.679 173.482 157.679L172.028 151.437C172.028 151.437 188.29 149.61 191.729 141.001C195.595 131.323 189.246 123.091 188.673 112.44Z" fill="#FF5678"/>
<path d="M173.482 157.679L172.028 151.437C172.028 151.437 188.29 149.61 191.729 141.001C194.021 135.265 192.723 130.037 191.167 124.513" stroke="#2A2A68" stroke-width="0.418422" stroke-miterlimit="10" stroke-linecap="round" stroke-linejoin="round"/>
<path d="M161.569 129.992C159.32 140.081 158.191 150.377 157.765 154.93" stroke="#2A2A68" stroke-width="0.418422" stroke-miterlimit="10" stroke-linecap="round" stroke-linejoin="round"/>
<path d="M222.139 36.2629V59.5008C222.139 62.6549 219.749 65.2963 216.611 65.6114L177.71 69.5145L170.667 74.7527L173.313 35.4955C173.634 30.7318 177.78 27.1455 182.54 27.5141L216.471 30.1401C219.67 30.3878 222.139 33.0553 222.139 36.2629Z" fill="white" stroke="#2A2A68" stroke-width="0.418422" stroke-miterlimit="10" stroke-linecap="round" stroke-linejoin="round"/>
<path d="M215.363 40.3181H180.655" stroke="#2A2A68" stroke-width="0.418422" stroke-miterlimit="10" stroke-linecap="round" stroke-linejoin="round"/>
<path d="M215.363 48.4863H180.655" stroke="#2A2A68" stroke-width="0.418422" stroke-miterlimit="10" stroke-linecap="round" stroke-linejoin="round"/>
<path d="M204.186 56.6536H180.655" stroke="#2A2A68" stroke-width="0.418422" stroke-miterlimit="10" stroke-linecap="round" stroke-linejoin="round"/>
<path d="M102.768 140.869H32.3883C30.4535 140.869 28.8853 139.301 28.8853 137.366V14.5721C28.8853 12.6373 30.4535 11.0691 32.3883 11.0691H102.768C104.703 11.0691 106.271 12.6373 106.271 14.5721V137.366C106.271 139.301 104.702 140.869 102.768 140.869Z" fill="#2A2A68" stroke="#2A2A68" stroke-width="0.418422" stroke-miterlimit="10" stroke-linecap="round" stroke-linejoin="round"/>
<path d="M107.778 140.869H37.3985C35.4638 140.869 33.8955 139.3 33.8955 137.365V14.5716C33.8955 12.6368 35.4638 11.0686 37.3985 11.0686H107.778C109.713 11.0686 111.281 12.6368 111.281 14.5716V137.365C111.281 139.3 109.713 140.869 107.778 140.869Z" fill="white" stroke="#2A2A68" stroke-width="0.418422" stroke-miterlimit="10" stroke-linecap="round" stroke-linejoin="round"/>
<path d="M106.039 123.667L106.039 16.312L39.1392 16.312L39.1392 123.667L106.039 123.667Z" fill="#FBB217"/>
<path d="M75.587 132.273C75.587 130.616 74.2443 129.274 72.5882 129.274C70.9321 129.274 69.5894 130.616 69.5894 132.273C69.5894 133.929 70.9321 135.271 72.5882 135.271C74.2447 135.271 75.587 133.929 75.587 132.273Z" fill="#D1DCF8" stroke="#2A2A68" stroke-width="0.418422" stroke-miterlimit="10" stroke-linecap="round" stroke-linejoin="round"/>
<path d="M42.8393 86.2849C42.8393 85.9447 42.5635 85.6689 42.2233 85.6689C41.8832 85.6689 41.6074 85.9447 41.6074 86.2849C41.6074 86.625 41.8832 86.9008 42.2233 86.9008C42.5635 86.9008 42.8393 86.625 42.8393 86.2849Z" fill="#FFCE78"/>
<path d="M47.9706 121.7C47.9706 121.36 47.6949 121.084 47.3547 121.084C47.0145 121.084 46.7388 121.36 46.7388 121.7C46.7388 122.04 47.0145 122.316 47.3547 122.316C47.6949 122.316 47.9706 122.04 47.9706 121.7Z" fill="#FFCE78"/>
<path d="M47.1371 49.7409C47.1371 49.4007 46.8614 49.125 46.5212 49.125C46.181 49.125 45.9053 49.4007 45.9053 49.7409C45.9053 50.0811 46.181 50.3568 46.5212 50.3568C46.8614 50.3568 47.1371 50.0811 47.1371 49.7409Z" fill="#FFCE78"/>
<path d="M70.4149 30.5405C70.4149 30.2003 70.1392 29.9246 69.799 29.9246C69.4588 29.9246 69.1831 30.2003 69.1831 30.5405C69.1831 30.8807 69.4588 31.1564 69.799 31.1564C70.1392 31.1564 70.4149 30.8807 70.4149 30.5405Z" fill="#FFCE78"/>
<path d="M97.3192 69.9606C97.3192 69.6205 97.0435 69.3447 96.7033 69.3447C96.3631 69.3447 96.0874 69.6205 96.0874 69.9606C96.0874 70.3008 96.3631 70.5766 96.7033 70.5766C97.0435 70.5766 97.3192 70.3008 97.3192 69.9606Z" fill="#FFCE78"/>
<path d="M102.238 119.785C102.238 119.444 101.962 119.169 101.622 119.169C101.282 119.169 101.006 119.444 101.006 119.785C101.006 120.125 101.282 120.401 101.622 120.401C101.962 120.401 102.238 120.125 102.238 119.785Z" fill="#FFCE78"/>
<path d="M63.9628 50.3566C63.9628 50.0165 63.6871 49.7407 63.3469 49.7407C63.0067 49.7407 62.731 50.0165 62.731 50.3566C62.731 50.6968 63.0067 50.9726 63.3469 50.9726C63.6871 50.9726 63.9628 50.6968 63.9628 50.3566Z" fill="#FFCE78"/>
<path d="M93.9633 24.2094C93.9633 23.8692 93.6875 23.5935 93.3474 23.5935C93.0072 23.5935 92.7314 23.8692 92.7314 24.2094C92.7314 24.5496 93.0072 24.8253 93.3474 24.8253C93.6875 24.8249 93.9633 24.5492 93.9633 24.2094Z" fill="#FFCE78"/>
<path d="M92.4863 38.5525L95.0446 41.1103" stroke="#2A2A68" stroke-width="0.418422" stroke-miterlimit="10" stroke-linecap="round" stroke-linejoin="round"/>
<path d="M47.5562 25.3584V29.5066" stroke="#2A2A68" stroke-width="0.418422" stroke-miterlimit="10" stroke-linecap="round" stroke-linejoin="round"/>
<path d="M45.4814 27.4324H49.6301" stroke="#2A2A68" stroke-width="0.418422" stroke-miterlimit="10" stroke-linecap="round" stroke-linejoin="round"/>
<path d="M53.6675 67.468V71.6162" stroke="#2A2A68" stroke-width="0.418422" stroke-miterlimit="10" stroke-linecap="round" stroke-linejoin="round"/>
<path d="M51.5928 69.5422H55.7414" stroke="#2A2A68" stroke-width="0.418422" stroke-miterlimit="10" stroke-linecap="round" stroke-linejoin="round"/>
<path d="M80.7046 32.2039V36.3521" stroke="#2A2A68" stroke-width="0.418422" stroke-miterlimit="10" stroke-linecap="round" stroke-linejoin="round"/>
<path d="M78.6309 34.2778H82.7791" stroke="#2A2A68" stroke-width="0.418422" stroke-miterlimit="10" stroke-linecap="round" stroke-linejoin="round"/>
<path d="M56.0054 37.2737L58.5636 39.8315" stroke="#2A2A68" stroke-width="0.418422" stroke-miterlimit="10" stroke-linecap="round" stroke-linejoin="round"/>
<path d="M96.9395 57.6354L99.4977 55.0771" stroke="#2A2A68" stroke-width="0.418422" stroke-miterlimit="10" stroke-linecap="round" stroke-linejoin="round"/>
<path d="M42.3193 63.9852L44.8776 61.427" stroke="#2A2A68" stroke-width="0.418422" stroke-miterlimit="10" stroke-linecap="round" stroke-linejoin="round"/>
<path d="M42.3193 107.479L44.8776 104.921" stroke="#2A2A68" stroke-width="0.418422" stroke-miterlimit="10" stroke-linecap="round" stroke-linejoin="round"/>
<path d="M96.9395 79.7654L99.4977 82.3236" stroke="#2A2A68" stroke-width="0.418422" stroke-miterlimit="10" stroke-linecap="round" stroke-linejoin="round"/>
<path d="M72.4302 18.905L74.9884 21.4633" stroke="#2A2A68" stroke-width="0.418422" stroke-miterlimit="10" stroke-linecap="round" stroke-linejoin="round"/>
<path d="M43.2577 85.8666C43.2577 85.5265 42.982 85.2507 42.6418 85.2507C42.3016 85.2507 42.0259 85.5265 42.0259 85.8666C42.0259 86.2068 42.3016 86.4826 42.6418 86.4826C42.982 86.4821 43.2577 86.2068 43.2577 85.8666Z" stroke="#2A2A68" stroke-width="0.418422" stroke-miterlimit="10" stroke-linecap="round" stroke-linejoin="round"/>
<path d="M48.3891 121.281C48.3891 120.941 48.1133 120.666 47.7731 120.666C47.433 120.666 47.1572 120.941 47.1572 121.281C47.1572 121.622 47.433 121.897 47.7731 121.897C48.1133 121.897 48.3891 121.622 48.3891 121.281Z" stroke="#2A2A68" stroke-width="0.418422" stroke-miterlimit="10" stroke-linecap="round" stroke-linejoin="round"/>
<path d="M47.5556 49.3225C47.5556 48.9823 47.2798 48.7065 46.9396 48.7065C46.5995 48.7065 46.3237 48.9823 46.3237 49.3225C46.3237 49.6626 46.5995 49.9384 46.9396 49.9384C47.2798 49.9384 47.5556 49.6626 47.5556 49.3225Z" stroke="#2A2A68" stroke-width="0.418422" stroke-miterlimit="10" stroke-linecap="round" stroke-linejoin="round"/>
<path d="M70.8324 30.122C70.8324 29.7818 70.5567 29.5061 70.2165 29.5061C69.8763 29.5061 69.6006 29.7818 69.6006 30.122C69.6006 30.4622 69.8763 30.7379 70.2165 30.7379C70.5567 30.7379 70.8324 30.4622 70.8324 30.122Z" stroke="#2A2A68" stroke-width="0.418422" stroke-miterlimit="10" stroke-linecap="round" stroke-linejoin="round"/>
<path d="M97.7377 69.5422C97.7377 69.202 97.462 68.9263 97.1218 68.9263C96.7816 68.9263 96.5059 69.202 96.5059 69.5422C96.5059 69.8824 96.7816 70.1581 97.1218 70.1581C97.462 70.1581 97.7377 69.8824 97.7377 69.5422Z" stroke="#2A2A68" stroke-width="0.418422" stroke-miterlimit="10" stroke-linecap="round" stroke-linejoin="round"/>
<path d="M102.656 119.366C102.656 119.026 102.38 118.75 102.04 118.75C101.7 118.75 101.424 119.026 101.424 119.366C101.424 119.706 101.7 119.982 102.04 119.982C102.38 119.982 102.656 119.706 102.656 119.366Z" stroke="#2A2A68" stroke-width="0.418422" stroke-miterlimit="10" stroke-linecap="round" stroke-linejoin="round"/>
<path d="M64.3812 49.9379C64.3812 49.5978 64.1055 49.322 63.7653 49.322C63.4252 49.322 63.1494 49.5978 63.1494 49.9379C63.1494 50.2781 63.4252 50.5539 63.7653 50.5539C64.1055 50.5539 64.3812 50.2781 64.3812 49.9379Z" stroke="#2A2A68" stroke-width="0.418422" stroke-miterlimit="10" stroke-linecap="round" stroke-linejoin="round"/>
<path d="M94.3817 23.791C94.3817 23.4508 94.106 23.175 93.7658 23.175C93.4256 23.175 93.1499 23.4508 93.1499 23.791C93.1499 24.1311 93.4256 24.4069 93.7658 24.4069C94.106 24.4069 94.3817 24.1307 94.3817 23.791Z" stroke="#2A2A68" stroke-width="0.418422" stroke-miterlimit="10" stroke-linecap="round" stroke-linejoin="round"/>
<path d="M91.346 90.2969C97.2386 79.3727 87.0563 78.135 90.8736 66.7757C93.4117 59.2224 90.7769 48.2593 81.9039 47.0149C73.0308 45.7705 68.7901 51.3016 68.7901 51.3016C58.5572 54.8277 64.1578 69.1398 60.2857 74.6805C56.5011 80.0962 54.6851 86.9784 60.2857 94.238L91.346 90.2969Z" fill="#2A2A68"/>
<path d="M71.5565 85.3532V68.6557C71.5565 68.6557 68.284 69.808 67.0622 66.9272C65.8408 64.0463 67.6614 61.9952 69.6895 62.4099C71.7176 62.825 70.6803 64.7836 71.9941 64.8066C73.308 64.8296 73.8611 61.5571 73.9302 58.5148C73.9302 58.5148 79.3345 58.7684 83.7597 55.7607C83.7597 55.7607 85.3477 60.5354 88.459 62.1258C88.459 62.1258 90.0629 74.878 78.5052 73.4608V85.9867L71.5565 85.3532Z" fill="#FBBBB0"/>
<path d="M78.5058 77.0885V73.4612C76.812 73.1963 75.3831 72.2971 75.3831 72.2971C75.3831 72.2971 75.0919 76.4161 78.5058 77.0885Z" fill="#EAA49D"/>
<path d="M76.9578 68.0634C76.9578 66.9993 76.0954 66.137 75.0314 66.137C73.9673 66.137 73.105 66.9993 73.105 68.0634C73.105 69.1274 73.9673 69.9898 75.0314 69.9898C76.0954 69.9898 76.9578 69.1274 76.9578 68.0634Z" fill="#EAA49D"/>
<path d="M87.6614 67.25C86.6672 67.25 85.8613 68.0559 85.8613 69.0501C85.8613 69.6844 86.1919 70.2384 86.6881 70.5589C87.3936 69.563 87.8375 68.4266 88.1124 67.3157C87.9672 67.2772 87.8183 67.25 87.6614 67.25Z" fill="#EAA49D"/>
<path d="M75.7808 62.2719C75.7808 62.2719 77.6938 60.2208 79.4223 62.4564" stroke="#2A2A68" stroke-width="0.418422" stroke-miterlimit="10" stroke-linecap="round" stroke-linejoin="round"/>
<path d="M87.9799 63.0562C87.9799 63.0562 86.6987 61.1586 85.02 62.7411" stroke="#2A2A68" stroke-width="0.418422" stroke-miterlimit="10" stroke-linecap="round" stroke-linejoin="round"/>
<path d="M81.9043 63.2174C81.9043 63.2174 83.4713 63.1943 83.4943 63.932C83.5173 64.6697 82.2039 64.6463 82.2039 64.6463" stroke="#2A2A68" stroke-width="0.418422" stroke-miterlimit="10" stroke-linecap="round" stroke-linejoin="round"/>
<path d="M78.252 67.6687C78.252 67.6687 81.2479 69.9273 84.0827 68.4524" stroke="#2A2A68" stroke-width="0.418422" stroke-miterlimit="10" stroke-linecap="round" stroke-linejoin="round"/>
<path d="M67.9785 65.061L69.4652 64.0066" stroke="#2A2A68" stroke-width="0.418422" stroke-miterlimit="10" stroke-linecap="round" stroke-linejoin="round"/>
<path d="M69.6552 65.7866L68.7217 64.5334" stroke="#2A2A68" stroke-width="0.418422" stroke-miterlimit="10" stroke-linecap="round" stroke-linejoin="round"/>
<path d="M106.006 79.015C106.006 79.015 106.642 75.273 106.676 73.4709C106.711 71.6691 107.161 65.9518 108.721 66.0556C110.28 66.1598 108.859 71.08 109.171 73.4361C109.171 73.4361 111.181 71.7382 112.185 72.778C113.19 73.8173 110.014 75.6115 110.014 75.6115C110.014 75.6115 112.832 76.4396 112.474 79.7543L109.795 81.6138L106.006 79.015Z" fill="#FBBBB0"/>
<path d="M108.195 73.5065C108.195 73.5065 108.714 70.3261 110.581 68.5976C112.447 66.8691 113.623 67.8026 113.243 68.5976C112.862 69.3926 110.857 71.1546 110.546 73.8342L109.509 74.7509L108.195 73.5065Z" fill="#FBBBB0"/>
<path d="M112.905 70.1152C112.441 69.8253 110.849 70.8353 110.412 73.1023C109.974 75.3693 111.767 75.0271 112.481 73.7019C113.194 72.3772 114.072 70.8449 112.905 70.1152Z" fill="#FBBBB0"/>
<path d="M114.335 71.1223C113.899 70.9047 112.574 71.9378 112.381 73.9864C112.187 76.035 113.749 75.5772 114.268 74.3404C114.787 73.1039 115.433 71.6692 114.335 71.1223Z" fill="#FBBBB0"/>
<path d="M113.876 74.753C113.876 74.753 113.549 78.0175 112.019 78.7724C110.488 79.5272 108.547 75.0497 108.547 75.0497L109.691 72.2237C109.691 72.2237 113.835 71.2186 113.876 74.753Z" fill="#FBBBB0"/>
<path d="M106.675 73.4709C106.71 71.6691 107.16 65.9518 108.72 66.0556C110.279 66.1598 108.858 71.08 109.17 73.4361C109.17 73.4361 111.18 71.7382 112.184 72.778C113.189 73.8173 110.013 75.6115 110.013 75.6115C110.013 75.6115 112.831 76.4396 112.473 79.7543" stroke="#2A2A68" stroke-width="0.418422" stroke-miterlimit="10" stroke-linecap="round" stroke-linejoin="round"/>
<path d="M109.275 70.3571C109.61 69.7236 110.038 69.0993 110.58 68.5976C112.447 66.8691 113.623 67.8026 113.242 68.5976C113.061 68.9771 112.509 69.5771 111.948 70.3918" stroke="#2A2A68" stroke-width="0.418422" stroke-miterlimit="10" stroke-linecap="round" stroke-linejoin="round"/>
<path d="M113.433 71.5245C113.544 70.9513 113.438 70.4491 112.904 70.1152C112.474 69.8466 111.078 70.6931 110.526 72.6203" stroke="#2A2A68" stroke-width="0.418422" stroke-miterlimit="10" stroke-linecap="round" stroke-linejoin="round"/>
<path d="M114.335 71.1223C113.899 70.9047 112.574 71.9378 112.381 73.9864C112.187 76.035 113.749 75.5772 114.268 74.3404C114.787 73.1039 115.433 71.6692 114.335 71.1223Z" stroke="#2A2A68" stroke-width="0.418422" stroke-miterlimit="10" stroke-linecap="round" stroke-linejoin="round"/>
<path d="M99.5535 97.1642C99.5535 97.1642 103.702 89.0518 106.007 79.0034L112.46 79.7411C112.46 79.7411 112.261 108.688 102.043 113.758C91.8249 118.829 85.5418 95.5051 85.5418 95.5051L84.0845 80.6089C91.0901 81.1616 98.1706 87.4844 99.5535 97.1642Z" fill="#6ECBD2"/>
<path d="M99.5532 97.1642C99.5532 97.1642 103.702 89.0518 106.007 79.0034L112.46 79.7411" stroke="#2A2A68" stroke-width="0.418422" stroke-miterlimit="10" stroke-linecap="round" stroke-linejoin="round"/>
<path d="M112.459 79.7407C112.459 79.7407 112.26 108.688 102.042 113.758C100.295 114.625 98.6633 114.662 97.1582 114.127" stroke="#2A2A68" stroke-width="0.418422" stroke-miterlimit="10" stroke-linecap="round" stroke-linejoin="round"/>
<path d="M84.0834 80.6082C76.1091 79.6174 66.2967 80.6969 62.5862 82.6907C62.5862 82.6907 57.2391 95.2513 57.3776 123.668H92.5816C92.5816 103.824 84.0834 80.6082 84.0834 80.6082Z" fill="#6ECBD2"/>
<path d="M87.0378 115.044C86.4913 115.009 66.8083 116.298 57.4537 116.915C57.3955 119.061 57.3658 121.304 57.3775 123.668H71.5566C71.5566 123.668 80.8025 121.233 87.8654 118.253C87.8654 118.253 87.755 115.091 87.0378 115.044Z" fill="#4DB6C1"/>
<path d="M100.497 85.2932L79.5718 90.8999L87.3734 120.017L108.299 114.41L100.497 85.2932Z" fill="#2A2A68" stroke="#2A2A68" stroke-width="0.418422" stroke-miterlimit="10" stroke-linecap="round" stroke-linejoin="round"/>
<path d="M85.9985 87.7484L93.364 85.7747C94.1017 85.5772 94.8599 86.0149 95.0578 86.7525C95.2553 87.4902 94.8176 88.2484 94.0799 88.4463L86.7145 90.42C85.9768 90.6175 85.2186 90.1798 85.0207 89.4422C84.8228 88.7041 85.2609 87.9459 85.9985 87.7484Z" fill="#FF5678"/>
<path d="M85.9985 87.7484L93.364 85.7747C94.1017 85.5772 94.8599 86.0149 95.0578 86.7525C95.2553 87.4902 94.8176 88.2484 94.0799 88.4463L86.7145 90.42C85.9768 90.6175 85.2186 90.1798 85.0207 89.4422C84.8228 88.7041 85.2609 87.9459 85.9985 87.7484Z" stroke="#2A2A68" stroke-width="0.418422" stroke-miterlimit="10" stroke-linecap="round" stroke-linejoin="round"/>
<path d="M71.5566 78.5081V85.353L78.5054 85.9869V78.5081H71.5566Z" fill="white"/>
<path d="M82.4366 80.435C76.8859 79.9501 70.7401 80.3807 66.4692 81.3665C68.771 85.4549 76.7306 92.2538 76.9411 91.4881C77.1461 90.7425 81.0533 84.7992 82.4366 80.435Z" fill="white"/>
<path d="M79.848 117.235C79.848 117.235 83.8355 116.662 85.9791 116.154C88.1227 115.647 90.46 114.782 90.3119 113.919C90.1734 113.112 85.8406 113.896 85.8406 113.896C85.8406 113.896 91.4408 112.859 91.1182 111.522C90.806 110.229 85.218 112.014 85.218 112.014C85.218 112.014 91.5445 110.185 91.0776 108.802C90.6106 107.42 84.6879 110.139 84.6879 110.139C84.6879 110.139 90.1039 108.019 89.7353 107.051C89.3667 106.083 84.1816 108.089 84.1816 108.089L83.833 106.787C83.833 106.787 81.9225 107.35 81.1848 108.618C80.566 109.681 78.258 110.346 78.258 110.346L77.7969 115.555L79.848 117.235Z" fill="#FBBBB0"/>
<path d="M62.5859 82.6902C62.5859 82.6902 45.6235 90.9871 48.1127 110.439C50.6019 129.89 79.8475 117.235 79.8475 117.235L78.2579 110.347C78.2579 110.347 64.3839 113.481 60.2812 107.811C56.179 102.142 63.4156 93.5223 63.4156 93.5223L62.5859 82.6902Z" fill="#6ECBD2"/>
<path d="M50.093 95.9739C48.3516 99.8598 47.3729 104.657 48.1126 110.439C50.6018 129.89 79.8474 117.235 79.8474 117.235L78.2578 110.347C78.2578 110.347 64.3838 113.481 60.2812 107.811C58.0573 104.738 59.1657 100.797 60.6469 97.8333" stroke="#2A2A68" stroke-width="0.418422" stroke-miterlimit="10" stroke-linecap="round" stroke-linejoin="round"/>
<path d="M79.8473 117.235C79.8473 117.235 83.8349 116.662 85.9785 116.154C88.122 115.647 90.4593 114.782 90.3112 113.919C90.1727 113.112 85.84 113.896 85.84 113.896C85.84 113.896 91.4401 112.859 91.1175 111.522C90.8054 110.229 85.2174 112.014 85.2174 112.014C85.2174 112.014 91.5439 110.185 91.0769 108.802C90.61 107.42 84.6872 110.139 84.6872 110.139C84.6872 110.139 90.1033 108.019 89.7346 107.051C89.366 106.083 84.1809 108.089 84.1809 108.089L83.8324 106.787C83.8324 106.787 81.9219 107.35 81.1842 108.618C80.5653 109.681 78.2573 110.346 78.2573 110.346" stroke="#2A2A68" stroke-width="0.418422" stroke-miterlimit="10" stroke-linecap="round" stroke-linejoin="round"/>
<path d="M106.038 114.995V123.667H39.1387V16.312H106.038V79.0025" stroke="#2A2A68" stroke-width="0.418422" stroke-miterlimit="10" stroke-linecap="round" stroke-linejoin="round"/>
<path d="M93.1499 52.9348L137.462 50.1598C141.567 49.9029 144.666 46.3358 144.348 42.2357L142.827 22.6423C142.515 18.6187 139.024 15.5948 134.997 15.8605L106.46 17.7409C102.514 18.0007 99.4773 21.3293 99.5785 25.2821L100.124 46.5266L93.1499 52.9348Z" fill="white" stroke="#2A2A68" stroke-width="0.418422" stroke-miterlimit="10" stroke-linecap="round" stroke-linejoin="round"/>
<path d="M108.166 25.9192H136.818" stroke="#2A2A68" stroke-width="0.418422" stroke-miterlimit="10" stroke-linecap="round" stroke-linejoin="round"/>
<path d="M108.166 34.3396H136.818" stroke="#2A2A68" stroke-width="0.418422" stroke-miterlimit="10" stroke-linecap="round" stroke-linejoin="round"/>
<path d="M108.166 42.76H127.591" stroke="#2A2A68" stroke-width="0.418422" stroke-miterlimit="10" stroke-linecap="round" stroke-linejoin="round"/>
</svg>
