<svg width="20" height="14" viewBox="0 0 20 14" fill="none" xmlns="http://www.w3.org/2000/svg">
<path d="M15.812 0.0169912H4.145C1.855 0.0169912 0 1.85199 0 4.11599V9.88399C0 12.148 1.856 13.984 4.145 13.984H15.812C18.102 13.984 19.957 12.148 19.957 9.88399V4.11599C19.957 1.85199 18.101 0.0159912 15.812 0.0159912V0.0169912ZM13.009 7.27999L7.552 9.85499C7.51872 9.87102 7.48192 9.87836 7.44503 9.87634C7.40815 9.87433 7.37237 9.86301 7.34103 9.84345C7.3097 9.82389 7.28382 9.79672 7.2658 9.76447C7.24779 9.73222 7.23822 9.69593 7.238 9.65899V4.34999C7.23867 4.31286 7.24872 4.27651 7.26722 4.24432C7.28573 4.21212 7.31208 4.18513 7.34382 4.16587C7.37556 4.1466 7.41167 4.13568 7.44877 4.13413C7.48587 4.13258 7.52276 4.14044 7.556 4.15699L13.014 6.89199C13.0504 6.91012 13.0809 6.93814 13.102 6.97282C13.1232 7.0075 13.1341 7.04744 13.1336 7.08806C13.1331 7.12868 13.1211 7.16833 13.0991 7.20245C13.077 7.23658 13.0458 7.2638 13.009 7.28099V7.27999Z" fill="#475569"/>
</svg>
